<mxfile host="Electron" modified="2023-04-18T04:49:24.323Z" agent="Mozilla/5.0 (Windows NT 10.0; Win64; x64) AppleWebKit/537.36 (KHTML, like Gecko) draw.io/21.1.2 Chrome/106.0.5249.199 Electron/21.4.3 Safari/537.36" etag="Wv_GTMWLJBxVgKDqenNB" version="21.1.2" type="device">
  <diagram id="6mIKCLdlFL2WZiKBufd9" name="第 1 页">
    <mxGraphModel dx="2058" dy="1180" grid="0" gridSize="10" guides="1" tooltips="1" connect="1" arrows="1" fold="1" page="1" pageScale="1" pageWidth="1200" pageHeight="350" math="0" shadow="0">
      <root>
        <mxCell id="0" />
        <mxCell id="1" parent="0" />
        <mxCell id="s-VoMjex199tbVGTSxkl-6" value="Financial Data" style="text;html=1;align=center;verticalAlign=middle;resizable=0;points=[];autosize=1;strokeColor=none;fillColor=none;fontSize=36;" parent="1" vertex="1">
          <mxGeometry x="937" y="277" width="248" height="55" as="geometry" />
        </mxCell>
        <mxCell id="s-VoMjex199tbVGTSxkl-9" value="&lt;font style=&quot;font-size: 36px;&quot;&gt;Medical Data&lt;/font&gt;" style="text;html=1;align=center;verticalAlign=middle;resizable=0;points=[];autosize=1;strokeColor=none;fillColor=none;fontSize=36;" parent="1" vertex="1">
          <mxGeometry x="25" y="277" width="228" height="55" as="geometry" />
        </mxCell>
        <mxCell id="s-VoMjex199tbVGTSxkl-31" value="" style="group" parent="1" vertex="1" connectable="0">
          <mxGeometry x="224.5" y="9" width="231" height="55" as="geometry" />
        </mxCell>
        <mxCell id="s-VoMjex199tbVGTSxkl-32" value="&lt;font style=&quot;font-size: 32px;&quot;&gt;Encryption&lt;/font&gt;" style="text;html=1;align=center;verticalAlign=middle;resizable=0;points=[];autosize=1;strokeColor=none;fillColor=none;fontSize=36;" parent="s-VoMjex199tbVGTSxkl-31" vertex="1">
          <mxGeometry x="17" y="2" width="169" height="55" as="geometry" />
        </mxCell>
        <mxCell id="s-VoMjex199tbVGTSxkl-34" value="" style="edgeStyle=none;orthogonalLoop=1;jettySize=auto;html=1;rounded=0;fontSize=32;" parent="s-VoMjex199tbVGTSxkl-31" edge="1">
          <mxGeometry width="100" relative="1" as="geometry">
            <mxPoint x="-7" y="57" as="sourcePoint" />
            <mxPoint x="240.5" y="57" as="targetPoint" />
            <Array as="points" />
          </mxGeometry>
        </mxCell>
        <mxCell id="s-VoMjex199tbVGTSxkl-41" value="" style="group" parent="1" vertex="1" connectable="0">
          <mxGeometry x="755" y="9" width="231" height="55" as="geometry" />
        </mxCell>
        <mxCell id="s-VoMjex199tbVGTSxkl-42" value="&lt;font style=&quot;font-size: 32px;&quot;&gt;Encryption&lt;/font&gt;" style="text;html=1;align=center;verticalAlign=middle;resizable=0;points=[];autosize=1;strokeColor=none;fillColor=none;fontSize=36;" parent="s-VoMjex199tbVGTSxkl-41" vertex="1">
          <mxGeometry x="12" y="2" width="169" height="55" as="geometry" />
        </mxCell>
        <mxCell id="s-VoMjex199tbVGTSxkl-43" value="" style="edgeStyle=none;orthogonalLoop=1;jettySize=auto;html=1;rounded=0;fontSize=32;" parent="s-VoMjex199tbVGTSxkl-41" edge="1">
          <mxGeometry width="100" relative="1" as="geometry">
            <mxPoint x="240.5" y="57" as="sourcePoint" />
            <mxPoint x="-7" y="57" as="targetPoint" />
            <Array as="points" />
          </mxGeometry>
        </mxCell>
        <mxCell id="P1x1mqTw085ikrvF6RCM-1" value="" style="shape=image;verticalLabelPosition=bottom;labelBackgroundColor=default;verticalAlign=top;imageAspect=0;image=data:image/png,iVBORw0KGgoAAAANSUhEUgAAAgAAAAIACAYAAAD0eNT6AAAABHNCSVQICAgIfAhkiAAAAAlwSFlzAAAOxAAADsQBlSsOGwAAABl0RVh0U29mdHdhcmUAd3d3Lmlua3NjYXBlLm9yZ5vuPBoAACAASURBVHic7N15fFT1vT/+1/ucmSRkYUlm5oQkQJRkBo1QFW6torjhQlWst6VS3KqXtnbRLra2395udvtda61t7e2+uFfRusGta4sbilyoWxEyCQoKIbMkBLKQZOac9++PQC+lLEk+nzNnzuT9fDz6x/WReX/eCefO+30+53w+H0AIIYQQQgghhBBCCCGEEEIIIYQQQgghhBBCCCGEEEIIIYQQQgghhBD5grxOQEV1dUPYcXAcMcUYNIMYURAsAGUAJoFQBgBg9ALYAaAXjAQTmgnczMTNhoFX2ttbUx7+GkIIIUTO+aoBqKurG5fpL5kPojMAOgPATKj/DgzgdYBXgvGXceWZpzdv3tyvnq0QQgiRv3zRAEwOzZjtEF8O8CUAqlwebicxHmUTdyQS8b9gqEEQQgghCkreNgANDQ3Fu7roo0T0JQDTPUqjFYybKiY6t7e2tg54lIMQQgihXd41AEPT/KVXg3AdgFqv89ljG0A3BYt7f71169bdXicjhBBCqMqrBsAKNZ4Pop8COMLrXA7iLQKuaU/F/+x1IkIIIYSKvGgAaiqnT7EN86cgfMDrXIbpoYDtXLuts3Wr14kIIYQQo+F5A2CFYgth8B/AqPQ6lxHaSaCl7anmB7xORAghhBgpzxqAJjQVpcODNwL0WS/zUMREuKU9WfEVYF3G62SEEELkVmVlw/gi0ziZgXlgzAFhGoZWq00AIQtGLwEpgN9mYANAq2HYKxOJTUmvc/ek8E6dMHPSYNHAowyc7MX4ujHw3GBm8MKurs1dXucihBDCXfX19SX9vUUXM/BxACcAMEcYgsFYQ4Q7AwPBP27dtb7ThTQPK+cNQCgUqzHJeQKgY3I9tstet5kWpNPNbV4nIoQQQr+68U2VmeLM9QD+A0BIU9geIvw665g/TKc3bNcUc1hy2gCEw9MbDJhPAajP5bg5tNmBfVYqtanV60SEEEJoQ5FI9DJi3AQg4tIYPcz4VjJd8dNcPVLOWQMwdOfPq1C4xX+vt2025+a6kxNCCKFfVVW0NmDgTgCn52jIdUzOxclk6ya3BzLcHgAYeuZvEj+Owi/+AHCESfbjEyfWT/Q6ESGEEKM3OTRjdsDAGuSu+APAbGJjnRVquMDtgVxvAJrQVDRYNPAohg7uGStmFQeLHwZmB71ORAghxMhFItGLHHKeBVDjwfATQMaDVjh2lZuDjPTNxREzwhN/CNCH3R4nD9VXlGbG9fR1POV1IkIIIYYvEplxDjE/BKDEwzQMAAvLy0Lv9vZ1vOLGAK6+A2BZsQvh8ENujxOcUImKY45FWcPRKKmdiuLIZAQrJsIoGfq3c/r7kenuwkByO/q3bUFvy5vY9fdXkd21w820AIDBvDCRblnh9kBCCCHUhcONxxqg5wBUeJ3LHlkwX+RGHXGtMNdUTp9im+ZrACa5Ed8sr0DV3Pmomnc2yhpmjDwAM3o3bUT6uSfRueovsHu69Sc5pCPr4D0dHfFtbg0ghBBCXTjcVG0gsw7eTPsfyk4YOD6RiL+lM6hrDYAVij7kxt7+RZOqYF2wGOH558Mo1jM7Y/fvRurpFUisuBeZHfr3Y2DwA8lUyyLtgYUQQmhjhaPLAOTrd/XaRKrmROCZrK6ArjQA4XDsXAP8mM6YZJoIn/0B1F58FcxxpTpD/4Mz2I/2R+/F9ofuBme1/Y0BAAScJ6cICiFEfqoONZ7HRPn9uJbxhUQ6fouucNobgLq6unGZgdL10Hikb8nkWhz52W+i9IhGXSEPqe+tODb9+AYMJHRu6sct48oyszZv3tyvMagQQghFljWrDE5/M4Bar3M5jG4HwWgqtb5dRzDtqwDGFVVfA8JiXfEmzpmLxq/eiOJwta6QhxWcVIXQqeeif+tm9G9/V1NUqrIzZqKnr2ONpoBCCCE0qCid8HFAX91yUTGYuVfT6jKtMwANDQ3F3TuNTdDURYXOPA/Tln4eZLi+WvGA2Lax5Tc3I71S29OMd0OpYMN6rB/UFVAIIYQSwwo3bgQoN1PM6nqKB4unvrPzDeVlbFora8CoWkpES3TECp15Huo/dh3IyMlmhQdEhoGJs0/CYEcSfZu1bO8/oa/Ueae3r+NvOoIJIYRQY4ViF4Dwaa/zGIGibMDZ0tvbsVY1UEBHNnsQEX1JR6CJc+Zi2tLPA+TJacX/jAjTPnYdMru6sHPdSxri8fUAfgeA1YMJIcTYYVlHHQMnuxRM80GoB1CmHlXfV/GMasKSEwI4JUaYMmno5vXdHQ6eb2bc83IWG9v1jEXMlwP4hXIcDbkAACaHG+c5oGdV45RMrsVR/9+vYI7T8O+qkd3Xize//HEMJNVfDHSAU1Kp+Asa0hJCiILXhKaiVDhzCwFXI0dn2IxEMADcsDCIy040YBoHLqu2w7jjRQffWp5BRn2RGZPpWO3trSmVINr+kA7octUYFDBx5Ge/mXfFHwDM0jJM/9w3QKb6UxODoPy3EkKIsSAcbipPh7NPEvAp5Gnxv3tpET461zxo8QcA0yBcebKJu5cWIag+906wTeUDirT8Mevq6sZBw+YJkQWLcrbUbzRKp8cQOfci9UCMRfX19V7uMS2EEHkvHG4qN5F5DOBTvc7lYG5YGMTJjcMvpSc3GvjmBeodABO/TzWGlgYg018yH8B4lRhFk6pQu+gKHem4qmbRlQhOrFQNM7G/t+gMHfkIIUQh2lv8GTjZ61wOZkY14bITR15GrzjJRMxSLL+MmFoAXdMpRMrFzLpgsbatfd1kjitF9fkadooknKkeRAghCo8fij8ALDkhcMhp/4MxDcJHTlB9nMzK0+WanqeoNQBmeQXC88/Xk0oOhM66EGZ5uVoQhvLzGyGEKDR+Kf4AMC86+vfo58VUyy8pH7Sn3ABUVzeEAcxUiVE1d74v7v73MkvGoepEtUkPBt5TWzujSlNKQgjhe34q/gBQM2n0JbRukvIiPOXjipUbAMfBcVBcTlh16tmqaeRc1annqIYwslnnOB25CCGE3/mt+BcC5QaAmJReRAhOqETZkcrvMuRcWcNRCIyfqBSDHPWXOIQQwu/8Wvzbdjij/uzWHcqbAnWrBlBuABhqDUDFMcfmx45/I0WEiqZjlUIwpAEQQoxtfi3+APBsfPRF/Lnm0TcPQ1j5LAANMwBqRays4WjVFDxT3tikGEGteRJCCD/zc/EHgHtW27CdkTcBtsO4Z42tODq1KAbQsAqAWOmc3pKaKcopeEU9d7W/nRBC+JXfiz8ANCcc3P7iyAv5batsxNsVZwAIzWoBtCwDJKX1cCWT69RT8EhxtXLuym9xCiGE3xRC8d/rhuVZPN8y/GL+fIuDby9XPwyAmJRPp9OxD4BSETPLFNfTeyiguheANABCiDGmkIo/AGSywKW/HcTvX8ge8nFA1gZ++5yNS38ziIzq7D/gGEFeqRpEx5EEFSqnKZolpcopeMUcp5y7NABCiDGj0Ir/Xpks8LWHsrjjJQdL3mtiXszAlD3r/N/dwXi22cYf1zjq0/7/Z3VbWzytGkS9ARAqtF0NQgiRzyxrVhmc3csZ5EbxX2UzLUinm0e8NM4KxRaC+BEdScTbHXzrUfe/1pn4Th1x1B8BsNpaRLu/TzkFr9i7lXPfqSMPIYTIZ+FwUzk5/Y8DdJru2AS84CB47miKPwAk0s0rCIjrzstF3SUDJffpCKTjHQClBiDbo7yXgWeyPT2qIbp05CGEEPnKzWl/Al6wEVyQSq1X+TJ2QPiJtqRcxsy/eGfnG8p7AABaGgBWqoID7dvUU/DIQPtW1RDSAAghCpYPij8AgKnkdgDvakjLbbvIdG7WFUzDIwBqV/l4f5sf/uYHpiH3Th15CCFEvvFL8QeAROL1XrDzaR2x3EXfSCQ2JXVFU98KWHEzgt6W9aopeKYn/nelzxPTm5pSEUKIvOGn4r9XIt26HMAynTG1IqxJpCb/t86Q6lsBg5UagF1/fxVg5UMRco7ZQff6V5ViOAZe05SOEELkBT8W/72YMtcCyMfn0l0gWgw8o76D0D40zACoNQDZXTvQu2mjaho519uyAdlutZf4iUgaACFEwfBz8QeAZPLtBBPOA7DLrTFGIUvAJYlE89u6Ays3AIGA8TdAZSsgIP3ck6pp5Fzns0+ohhhIJMr81/kIIcQB+L3475VMxl9jchYByLg91jAwAUvbU/E/uxFcuQHYsxvR6yoxOlf9Bc5Av2oqOWPv7kPHatVdGGk1sC4fLjAhhFBSKMV/r2Sy9UkYtAhAb67GPIAsAVe2p+K3uzWAjn0AAMJfVT5u93Qj+dRyLankQuqpR2Er7gHAzI9qSkcIITxTaMV/r0Si+RGTnXnw5p2ALgIudLP4A7oaAIeVGgAASKy4F3b/bh3ZuMre3Yv25eovijLZ0gAIIXytUIv/Xm3p1r9lHZygepM7IoQ1MOh4t6b996WlARhXnnkaipvaZHZ0Yvv9rjY7WrQt+wOyuxQ3YWKsT6U2terJSAghcs+yZpUZGFzu0sE+q7JM7/ey+O/V0RHflkjGzwQ7CxlQ3v3tEHoJ9JVEsmauGy/8HYiWBmDz5s39AB5QjZN4/AH0vZW/WzL3tm5E8omHleOQof63EkIIr+Tz3v5uSaRblw9mBmcC9D0A2jbjAdDNzD+AYR/Znmq+UfdSv0MhXYHC4egpBvCcapxiqwZH/9evYZaW6UhLm2xvDzZ85eMYSG5XDZWxmerT6eY2HXkJIUQuFfq0/3A0NDQU79plLjKYP8HA+zDyk3UZwEtMfGfJQMl9uvb2HyltDQAAssLROIAG1UATZ5+E6dd9G2SaGtJSx7aN1pv+EztfeVlHuPsSqfhiHYGEECKXpPj/q1AoVkGEuQZ4HoA5DEwlIAKgAgQHjG4G0gDeMggbwLTaCPLKPSvoPKWzAYAVin4chF/piBU6fQHqP/ElgLSmOHLMePsXN6JDfd0/AMABTkml4i9oCSaEEDkixb/w6FkFsEfFROd2XS9JpFc+hs2/ugls2zrCjQrbttbiD6DftB05AEgI4StS/AuT1jn2zs5Ou7ws5AA4V0e8vs2t6NvcgonHvQ9GsEhHyGHL9vbgrVu+hR2rn9UZNgCDrigvrdzS29f5hs7AQgjhBin+hUv7Q/ZJleNed+zgYgCVOuINbN+KHS89g4rYMQhWhnSEPKze1o1o+d4X3TqjoAhEH6worbSqayqf7uzs9G6KQwghDkGKf2Fz5QF7JDLjHGLncZ0xyTQRPvsDqL34Spjj3Fkh4Az0o+1PdyCxYllOHj0w6G9k8KJEIv6W64MJIcQIWNasMji7V7ix1A/AKptpQb4t9RtrXHvDzgpHHwRwke64wQmVsBZ+GOH5C2GWjNMS097dh9RTj6J9+TL1TX5GbgfYuWLPWdRCCOE5ufMfG1xrAGoqp0+xA+arYD2PAvZnlpej8qQzEZp3Nsoajhr5agFm9LS8ic5nn0DH6pXKe/srYgA/SKRqvpbLTSCEEGJ/UvzHDlfX2Fmh2EIQP+z2OIHxE1HRdCzKG5swrnYKiiM1MMdPgFlSCgCw+/tg79qJgWQb+ra+g96W9ehe/yqy3TvdTGvEGHjOYXNxOr1BebchIYQYKSn+Y4vri+yrI9GbmfEFt8cpICkmviSZbHnK60SEEGOHPPMfe1zfaq+nt35lWdngqQRMc3usAlFGoCXlZZV2b1+nbBgkhHBdONxUbvDg4wDN0x17z97+C9LpDXLnn2dyss1eZWXD+KBpPAvg2FyMVzAYf4FpL0kkNuk8eEIIIf5B7vzHrpztsxsKxWpM4hcAHJGrMQvEu0zOxclk60teJyKEKCxS/Mc2rVsBH0o63dzmwD4bQE7OOS4gUwjGM1a48RqvExFCFI6xeKSv+Gc5P2knHG6qNpB5DPI4YOQYDw/a2Y/u2PFWfi1fEEL4itz5CyCHMwB7pVLr2wcyg6cDpHWTfQ8xM/+AwFcC1OfqSIQPBAOBly1rxkxXxxFCFCy58xd7ub4K4ED6+7v6e/tm3lVR3s0A5sGDmQhNegh0WSId/0lPX+erE8ZVPcjA6SBE3BqQgBCYrywvrUr09nX8za1xhBCFx7JmlREPrHDjbX8M3fm/X9729w/PC68VajwfRLcBqPI6lxFaR7ZzeXtn65v7/sdQKFZhEv8GwMU5yOG348oGr9m8eXN/DsYSQviYbPIj9ud5AwAAVVXRWtPgHxPoQ17ncliEQTB/J5Gq/a9DbdtbHY5+hgk3g+H2OcavOrAXpVKbWl0eRwjhU1L8xYHkRQOw19ApgvatADV6ncuBEPA4TOeL7e2t64fz89VV0fcyYRnI9U2QdjLhymQy/pDL4wghfEaKvziYvGoAAKChoaG4Z6fxMQauBzDF63wAgIBX2MD1iUT86ZF+trZ2RlV20LkDwPtdSG1fTIRb2pMVXwHWZVweSwjhA1L8xaHkXQOwVxOaitKhzOUgvt6jGQEG6Ckm+lEyufHJof971MgKR/8fgG/D/RcvVwVsZ/G2ztatLo8jhMhjUvzF4eRtA7APCoejcw3C5WAsAjDR1dEYWwh0PwL2bcOd6h+u6lDsdCb+IwBLZ9wDkAOFhBjDpPiL4fBDA/AP9fX1Jf29RWeAcCYzzgAwC6p7GRAGwVgL4Dkm59FksnU11O72DykUOmqyQfa9NLT80U0OM76dTMe/A8BxeSwhRJ6Q4i+Gy1cNwP5qa2dUZbPOceQgxsAMgKIAWwAqQJgIoBwMAtADoAvgXoC2ANxCRC1wjDeNol1r2tra3N3A51+cFrDCbd/F0HsOLv8b0JNk2pe2t7em3B1HCOE1Kf5iJHzdAPidFWq4AGTcDmCSm+MwsBVkXJxMbnzRzXGEEN6R4u+NysqG8UWmcTID88CYs2fVVxWACSBkweglIAXw2wxsAGg1DHtlPpzyKg2AxywrdgQcXgZgjstDZcD4ciId/zFcfMQhhMg9Kf65tedx9MUMfBzACRj5y90Mxhoi3BkYCP5x6671nS6keVjSAOSBhoaG4p4uuoWJPun2WAQ8OJDNXiUHCglRGKT4507d+KbKTHHmegD/ASCkKWwPEX6ddcwfptMbtmuKOSzSAOQRK9S4BES/AlDu6kCMLcRY1N4R/19XxxFCuEpO9cud6nBsEYN/Brh11gv1EfFNVcng99dj/aA7Y+w3Yi4GEcM3uarxKMekB8A42uWhdgN0TSLV/DuXxxFCuEDu/HOjqipaGzBwJ4DTczTkOibn4mSydZPbA3lyGqA4uJ7dneny8trbgcw0gGa5OFQQwMKysqojJkwsfrK7u1t2DxTCJ6T458bk0IzZZPBfMbTkPFdqCHRFeemk9b19nXE3B5IZgDwWiTReTUw/BlDs8lBv2Gx8KJ3e6OrFJoRQJ8U/NyKR6EXEuBNAmUcpZAH6RCLV/Hu3BpAGIM9NDs2Y7ZBzP4AjXB6qm0BL21PNy1weRwgxSlL8c2PoYDpnBYCAx6kwQEvdagKkAfCBqRNmThoo7r8NTAvdH41+GkoFvpSrl1CEiESOsMgJng7i99HQhl5HMBAG7bnzyuN11LkkxT83wuHGYw3QcwAqvM5ljyyYL0qkW1boDiwNgH9QdST2JWb+HtzuShkvm3b2w2073nrH1XHEmFU3vqkyW5xZwoTLwHjvKELkxTrqXJHinxvhcFO1gcw6ADVe57KfnTBwfCIRf0tnUGkAfCYcjp5iAPfC/Qu0g4DL2lPxx1weR4whoVCsxjT4i2B8HPqerXq2jjoXpPjnjhWOLgOwyOs8DmJtIlVzIvBMVldAWQXgM319He9UjJ90J9h4D4DpLg5VCmBJeVmosrdv5tPAZjlQSCg4LWCFi68xiB8EcCqAIo3BiwCcaBA+WVFeVTStt/rFFFK2xviesaxZZcQDKwBy4/CwVTbT+9PpDVL8AVSHGs8D0fe8zuMQaspLu7t6+zpW6wooMwD+ZVrh2LcA/ipUT0Q8HMJfGZklyeTbCVfHEQUpHD6q0YR9HwPH5WjInK2jdpPc+efO0IZK/c0Aar3O5TC6HQSjqdT6dh3B3C0cwk12ItX8dQLOB9Dh6kiMM4iDfwuHo6e4Oo4oOJYVu9CAvTaHxR8AZhMb66xQwwU5HFMrKf65RU7/R5H/xR8AKoizX9AVTBoAn2tPxR8zs9njwXjZ5aFqDOCv1ZFYDo4wFoXACkWXwuE/ARjvwfATQMaDVjh2lQdjK5Hin3MGgz/rdRLDRcSfnDphppYTZOUdgALQ3b9jZ31f9R19ZTwBQydTucUAcFZ5eeVxVYHaJ3YOJPtdHEv4mBWKLgXh1/D2JsMAsLC8LPRub1/HKx7mMWxS/HPPCsUuAOHTXucxAkXZgLOlt7djrWoguZMrMNXh2IcZ/Fu4v4b1bYONRdvTG9e5PI7wGcuKXbjnzj9fbjBcW0etkxR/wLKOOgZOdimY5oNQD+924RuVGdWEJScEcEqMMGXSUO/77g4Hzzcz7nk5i43t2k5iX51IxU9UDSINQAEKhWZETXIeADDT5aEGmPhzyWTLL10eR/hEOHxUowF7LbyZ9j8UV9ZR6zLWi38TmopS4cwtBFwNHz6aDgaAGxYGcdmJBkzjwGXVdhh3vOjgW8szyKgv5GMyHau9vTWlEiRfOnShUV9fumPCxOLbHaeojoBjXRwqQKDzy8srG8vL657o7U3IgUJj2uzg+LL+JwDUe53JAZSAMbe3b+Yf8m1J61gv/uFwU/nusuxjNLT+3nc3pcEAcPfSIiw81oRBB0/fIMJxUw38W72Bh1+14ahdhURsrO3p61ivEkQagALV3d2d6e3reLi8LLQVwFkYOv3PJTQLyH5gfEnlyp7dnWn3xhH5rDpSfh2DLvc6j0PQvo5alRT/od8fgBv7HOTEdz8QxMJjh19Kp1YRJowD/rpRsQ8lbO3t7XhCJYTvplrEyCRSzb9zwCcBaHV1IMbRjkFrrFDjElfHEXkpFIrVMNM3vc7jsAg3hMNN1V6nAUjxd/P3z5UZ1YTLThx5Gb3iJBMxS7H8MmJqAaQBGBNSqZZXB7PZOQQ86PJQ5SC6uzrU+POGhga3jzAWecQ0+IvwxwtbWtdRj5YUf/8XfwBYckLgoM/8D8U0CB85QXUCnhsVA0gDMFbs2PHWzvZU/ENgfAGAq8/qmeiT3TuNFywr5vYRxiIP1I1vqtyzt78v6FxHPRpS/Auj+APAvOjoX1mYF1Mtv6R8DUsDMLZwIh2/hRzMBbDZ5bHmwOFXI5HGD7o8jvBYtjizBP64+9+rvL94cLEXA1vWrDIDg8tdKn6rskzvz+fi7/Lvn3O1k0ZfQusmKb/vqLzU291jZV1WXd0QdhwcR0wxBs0gRhQEC0NfRpNAKAPDANANoAdAL4G3OKBNYLzFROszmYHVXV2buzz9RXKsvSP+v9XVDe9l27wL4LNdHGo8Md1vhaM/SKRqvqbzFKvhsKxZZcgOnEAGH81AlIBGBqaBUQrCeADlGHrrWK4PBQxoe/EvFghicVkFTi4uRp059N7qVjuDFwYGcG9vN5qzeiaviPlyAL/QEmyYwuGmcnL6H2OQa3f+6XT+Fn83f3+vaFvV7xFfLbmoq6sbl+kvmQ+iMwA6A0Pr3FV/BweMDTDoBWJ+pCoV/Mt6rB/UkK4fGJFQ9OtE+AZcng1i4DmHzcUuH9dqhMPRk4hpIYHngTAb6k2uA8JGgJ4fg9fHYUUiR1jEwe1Q/P/DIBG+MX4SLikth3mQpVQ2M+7q68F3du1AhpW/erWsox4umfYvnGn/fT3zpSJEq0f31bmxnXHGTQMqw6cTqXhYJYAfGgCaHG48xRlaXrQI7m8wshPEK8gxfteebl7p8lh5IRJpPIuY7gagdDENQ4KYPqL77xqJxGYZ4CuYsQjAFJ2xD2Df6+MZ+P8mQIkVii4G4Y8qMYJEuL0qgrlFJcP6+VWD/biiI6ncBBDo4vZU8zKlIMMgxb8wiz8A3HBhEB+bN7qX+X79rI1vPaoyo8UtiVRLVCFA/r4D0NDQUBwJNX7CCkdbHNCzAP4DudldbAKYLmHiv1qR6PrqcPTTNTU1pTkY1zPJZMtTAds5HsAql4eymPgpKxz9KtSbT8MKNZ5vhaJPE/NrPPRyo9vFH9j3+ghH11eHo58p9OvjkIjfpxriG+MnDbv4A8DcohJ8bbz6O3ysIffDkeJfuMUfAO5ZbcN2Rt6I2g7jnjW24ujUohgg/xqAurq6cVYo+vnuncYmIvolgOmeJcM4moGf2Zny1upw9NNNaCryLBeXbets3ZpIVZxOhB/B3btaE8D3rHB0RW3tjKrRBKgORxdYoejrIFoOwpma8xuJoxi4dc/18ZlCvj4OhkBKa5FjgSAuKS0f8ecuKy1HNKD459awjvpQpPgXdvEHgOaEg9tfHHkhv22VjXi78kZAzWoB8qwBqA41npcZKF2PoSKUT2czT2bgZ+lwptkKxRZ6nYx71mXak/HrmPBBADtdHuz92QFnXXVV9L3D/UAkEptlhaJPMfBnEJrcTG6EJjNwazqcabas2IVeJ5NLDCitRV5cVnHQZ/6HYhLh4lLVhQfq66gPRop/4Rf/vW5YnsXzLcMv5s+3OPj2cvX3oYnpJdUYedEA1FROn2KFog8x0QoA+bx2vB7Ej1SHYw+EQrEar5NxSzIZf8iBPQfAq64ORJjGJp6vDkc/c+gfnB2sjkRvIOa1IMx3NSc19XD44epw9E+FfH3sZ6LKh08ZwdT/v3y2ZJzK0NCxjvpApPiPneIPAJkscOlvB/H7F7KHfByQtYHfPmfj0t8MIqM6+w84RpCV36Xy/CXAPUeH/gGAZxtzjFIXE65MJuMPe52IW+rr60t29xbdCmBpDoa7z2b6WDrd3L3vf4xEYrOI+Q4A78lBDjp1MeGqZDL+kNeJuMmKRAfAGPVc/PrJU1BOo7sP6WEHTdvfHe3QADCQSMVH34EcgBT/sVX89xetNrDkvSbmxQxM2bPO/90dHG+MdwAAIABJREFUjGebbfxxjaM+7f9/Xkyk4nNVg3jYAJwWsMJt3wVwvbd5KCL8OpQMXlPIS8MikdilxPxLuLzZCwFxh2hRMtn8OgBY4ejFAP0eYP++ZFfg14cVjiq9L7KlZprS+NPatih9PpGKa/vusaxZZXB2rwDoNF0x97HKZlqwf4OcT/z6+1uh2EIQP6I7rpuY+JM6jmH3pPBOnTBz0mDRwKOF0yXSswOZgQ8U8oYxljVjJjvO/QR3X5wCqI/gfNph42gi/pK7Y+UGA88NZgYvLMTrQxqAIXLn7+vf36gORzcwoLSkLoe6iweLp72z840dqoFy/g5AKHTU5IGigZWFU/wBgE8tDhS9UFM5PRfL0DyRSGx8gxGcA+Bed0fiUgb9oVCKPwAQMK+4qGhVIV8fY5ls7+v7398B4Scuxtft5zqKP5DjBiAcnt5gkv0i/Pc89/AITXYgUNAH4KRS63sSqfhHAL4WhIKc0nYN4+ih6yN6pNepCH32bG/7uBvT3gS84CB4bj5P+xfK789UcjsApRdKcmQXDPtHuoLlrAEIhWI1BsynANTnasycY54Kh58u9DfAE6mWWw3HOAnA217n4ivMU8G0smbSkVO9TkWoK4A7XyWF9PsnEq/3EnB1LsZSQ99IJDYldUXLSQMwdcLMSSbx4yjk4v9/jjTBT452kxu/2J7euC5QZPwbgD97nYuvME+1g4HHCv36KHSFcuc7WoX4+7en4n8G4PrW0KNGWJNITf5vnSFdbwCa0FQ0WDTwKIYO7hkbCE3ZjLMMOM3Xpy0ezrZtGzsSqfj5AH8NgPrK1rGCcfRYuD4Klc9feFNWyL8/U+ZaANu8GPswukC0WPeJqq43AOnw4I2F9cLfMDHOqI60/ZfXaeQAJ1It3yOmswAkvE7GN4aujxu9TkOMTCEXv+Eo9N8/mXw7wYTzAOzyKocDyBJwSSLRrP2Rq6vLAPds8vOQ2+MEJ1Si4phjUdZwNEpqp6I4MhnBiokwSob2+HD6+5Hp7sJAcjv6t21Bb8ub2PX3V5HdpeVFykMi0KL2VPMDrg+UB0KhoyYbZN9LwDyvc9lXuIJwUoOB2VMNNFiEKZWEUBmhdM/2NX2DQLqX8W4noyXBWLfFwYutDtI97h/05/frw+/LAPNFPhS/wyn04r+vSKThbGJjBYCgx6kwAVe2p+K3uxHctcJcUzl9im2ar8GlHf7M8gpUzZ2Pqnlno6xhxsgDMKN300akn3sSnav+ArvHtcdNaabMMcnk22Pk7jg/NniaWApcdLyJD802cdzUkU90MQOvvOvggbU2Hn7FRlefC0kO8fX1IQ2Aunwrfgcylor/XntuYO+GyxugHUKWgKVuFX/AxS9oKxR9CIQP6I5bNKkK1gWLEZ5/PoxiPbt42v27kXp6BRIr7kVmR6eWmPsi4MH2VPyD2gPnMSvUcAHIuB053uK5egLh6lMDuPRE8x93+Kp6B4C7Vmfxy2dsJHbpnxXw8/UhDYCafC1++xqLxX+vmlDD8TYZjyL3h9N1EXDJnhcTXeNKA1Adajxvz8E+2lDARGTBItQuukJb4d+f3b8b2x+4DYnH/gTO6n2njQkXFfK5AQdiWbEj4PD9AGa7PVbQBJaeEsB15wS0Ff799Q4ANz+Zxe+ez+o4zOOfMOHf/XhugDQAo5fvxQ8Y28V/r6qqaG3AxB1gnJGTAQlrQLTYjWf+/zqUZnV1deMyA6XrofFUv5LJtTjys99E6RGund75T/reimPTj2/AQKJNW0wC4u2pimOAdRltQX2goaGhuKeLbmGiT7o1xpFhwi8uC2JmbW62tXh9K+PqOwaxuUPfbIBfrw9pAEbHD8VPiv8/i4RilxDxzQAsl4bYBdA3hpb66X3b/2BM3QHHFVVfA8JiXfEmzpmLxq/eiOJwta6QhxWcVIXQqeeif+tm9KudNravqoqywURPX8f/6groB52dnXZPX+f/lJdWtoDoHGD0J8cdyDlNBu7+WBGmVOZuU0trPGHRHBPNCeCtlLYmwJfXR3lZ1bdUPv/5CqXThPHj7p1Kn/eCH4qfFP9/1dvX8UawqOK3ATNgA5gBfe8GdDPzT8h0PpJItvwV2KztyMDD0ToD0NDQUNy909gETc9LQmeeh2lLPw8ytPcpw8K2jS2/uRnplY/pCpkYVzZYv3nz5n5dAf2kurLhaDaNdQC0PMNZ8j4TN34wANPw5l3DrA1c/0AG967R9jzAd9eHzACMjB+KnxT/w2toaCjetctcZDB/goH3ARjpnh4M4CUmvrNkoOQ+XXv7j5TWjUh2ddFHifQV//qPXQeQdycFk2mi/hNDZ9JoagKs3T1FlwL4rY5gfmObRpWhsfjf9KGgl5cHAiZw84eHVglpagLG9PVR6PxQ/KT4D09ra+sAgLsA3BUKxSqIMNcAzwMwh4GpBEQAVIDggNHNQBrAWwZhA5hWG0Fe2dYWT3v6S0BvA0BEpOUEt4lz5mLa0s97Wvz/gQjTPnYdMru6sHPdSzoifg7A7zDUAY4pBL5Wx6TTOU0GbvxgIF8uD/zgQ0Gke4Cn39TSBIzZ66OQ+aH4SfEfnT1bFj++53++ou3B6eRw4ykApqvGKZlciyM+8/88m/Y/EDJNHPmZ/0RxRMMZP4Qmy4rm5m3SPFJTOX0KgZSXhR4ZJvx0SdCzaf8DCZjAz5YEMK1KQ05j9PooZH4oflL8xyZtDYADulw1BgVMHPnZb8Ic59W+CwdnlpZh+ue+ATI1NCYOL1EP4i+2aX4KijNOQRP4xWVBVJTkT/Hfa/w4wi8vK0JAR986Bq+PQuWH4ifFf+zS0gDU1dWNA7BINU5kwaKcLfUbjdLpMUTOvUhDJLqoCU0urVbPSyaAq1SDLD0lkLOlfqPxnimEq07W0QGMueujIPmh+EnxH9u0fJtm+kvmAxivEqNoUhVqF12hIx1X1Sy6EsGJlaphJqVDg2fryMcPqkMzTsHQSzGjjzGBcN05+X943hfPCSJSoRxmTF0fhcgPxU+Kv9BzO0Wk/MzSumCxazv86WSOK0X1+cqTHQAZZ6kH8QcmVp42ufpU93b406m8GPiEjlN+CfPVgwhv8DP5Xvyk+AtA2zsAag2AWV6B8Pzz9aSSA6GzLoRZXq4YhU/TkYs/OErXx8RS4NIT8+el0MO5/MQAJpSqRqHTNKQicssGcGsoVXROPhc/Kf5iL+UGoLq6IQxgpkqMqrnzfXH3v5dZMg5VJypPehxTWzujSkc++Wzod6QmlRgXHa/vYJ9cKCsGPnCscsMycyxcHwWgF+C/A/xjsp1ZiVT82vVYP+h1UgcjxV/sS3mu0nFwHCku7q461X+PO6tOPQfJpx5VCWFkB520FY7qSikvZQfVd7VcNNs/d/97fWiOidtfVNoXYExcH15LpOL5t6TEJVL8xf6UZwCIaYbK5wPjJ6HsyJhqGjlX1nAUghOUXwYUhxEqJ7xnSv6++X8wx081EK4YM7VF5DnLmlVmYHC5G8UfwKos0/ul+PuP8jcrg5Sq9/iZx+fHjn8jRYTyo2d5nUXBOzlq+PXywPum+69xEYXHsmaVwdm9wqX3SlbZTAv27IYnfEbDDACU5ijLGo5STcEz5Y1Kj7bFMBzvw7v/vWZP9W/uojCEw03l5PQ/7kbxJ+AFB8Fzpfj7l/o3FLHSOb0ltVOVU/BKSc0Ur1MoeA2WD2//92iI+Dd34X8y7S8OR8MtCimthyup1nJ4oCeKq+u8TqHg1Yf8W0T9nLvwN7nzF8OhYQZAbQfAQJn6tmleCSjvBSAOZ+I4/xbRicp7AQgxcnLnL4ZLx0NKpSpolIzTkII3zHHyDe+2Mh+t/99feR4eWiQKm7zwJ0ZC3lISQogCIMVfjJSOBkBpKsjp360hBW/Yu/u8TqHg9ebtnmqH19PPXqcgxggp/mI01BsAxi6Vj2d6lD7uqWyPPAZz244+/xbRLukPRQ7IC39itDTMALBSFRxItKmn4JGB9q1ep1DwtnT4twHYnPZv7sIf5IU/oULDDAC1q3y8f9s7yil4pb/tXa9TKHitCf8W0dakf3MX+U/u/IUq9a2ACc0qn+9tfVM1Bc/0xP/udQoFb9076ocJeWXtFqXDgIQ4KLnzFzqobwUMVmoAdr3xCsA+vFNiRvebr3mdRcFb1eL49fLAS60+TFzkPXnhT+iiYQZArQHI7tqB3k0bVdPIuZ6WN5Hd1eV1GgUv3cN45V3/zQKs3cLo6JUGQOgl0/5Cp4BygIDxNzsDBjDqXU/Szz3pu0OBOp99QjWEEygyItu2bezQkU++qq2dUZUddJJQaDYfWGvjeJ8drPOntVnVEL64PqxwVLqcHAmHm8pNZB5zY9qfgBdsBBfItP/IVVY2jC8yjZMZmAfGHBCmAagCMAGELBi9BKQAfpuBDQCthmGvTCQ2Jb3OXctWZVY4+iqA94z282Z5Bd7z82Uwikt0pOM6e3cfXv/MxbDVlgG+nkjFR/038xMrHH0dwMzRfn5iKbD26yUo9cmugD0DwL99tx871ZYBvpZIxY/VlJJrVBuALTXTlMaf1rZF6fOJVNwX2zVK8c8v9fX1Jf29RRcz8HEAJwAwRxiCwVhDhDsDA8E/bt21vtOFNA9Lz20V4a8qH7d7upF8armWVHIh9dSjqsUfIPxFTzZ+wErXR1cfcOdLynfUOXPHi7Zq8QfAz2hIRRQAKf75o258U6UVjv7X7t6idxm4DcBJGHnxBwAC4QQGfpYpzmypjkRvDoWOmqw328PT0wA4al/wAJBYcS9sH+wKaO/uRfvyZcpxHMZDGtLxBWJW/l1/+YyN3gEd2biru5/xy2fUmxViPKUhHeFzUvzzBkUi0cszxZkNAL4MIKQxdjkzvmCSHY+EotcBs4MaYx+SlgYgWLL7LwB2qsTI7OjE9gdu05GOq9qW/QHZXTtUw2xPpeKrdOTjB+3p1hcAJFRiJHYxbn4y/2cBbnoii3SP4mNxQmdVukgagDFOin9+qKqK1lrh6F+IcTuAiItDlRPhh1a4+6VIpGG6i+P8g5YGYOvWrbsB3K8aJ/HYn9D3VlxDRu7obd2I5BMPa4hEvwfgv1fbR88G8HvVIL97PovXt+bvO2evvOPgtlUa1v4zHlyP9T4+BUGokuKfHyaHZswOGFgD4PQcDjub2FhnhRoucHsgba9WO8AdqjE4a2PTj2+A3derIyWtsr09eOsn3wbbyl/wmazDv9CRk58EbOfnAJRu4TM2cPUdg9i1O/+agJ27GZ+8M4OshvpPTPeoRxF+JcU/P0Qi0Ysccp4FUOPB8BNAxoNWOHaVm4NoawBSqfgLAFpV4wwk2vD2z76vo9Bqw7aNt2/9LgaS23WEe6ijI75NRyA/2dbZuhXAg6pxNncwrvljVkuh1SVrA5++O4N3OrU0Jm+0p5uf0RFI+I8U//wQicw4hxjLAJR5mEYA4N+62QQo7wOwDwbjJhB+pRqoa92L2PKbm1H/iS8B5PEqHWZs/tVN2PnKy1rCOcCtWgL5kAPcagAfVo3z1Hob1z8A3PzhYD5cHrhuWQZ/3aDniQ6BbwGQf1McBSr/9jHIuPKPL8V/+MLhxmOJnfuhtz6OFgH8KyvUmEykW1boDq51d5WKic7tDGg5Ii+98jFs/tVNns4EsG3j7V/ciA71TX/26jdNR/kNQr/a87v364h17xob1y3TM+U+Wlkb+Ny9Gdy/VlsS28snsEz/C62k+A9fONxUbYD+B0CF17nsIwCiuywreqTuwFobgNbW1gEC/VBXvPTKx9B689c9eScg29uD1pv+U2fxB4ASto2XI5HYpTqD+kEkEruUbeNlANp2e7p3jY2rbst48k7Azt2Mj/5hUGfxBxN/u7W11QeLHYVfSPEfGQOZn8KbZ/6HMwEO7gNO0zoroX1/1WBx768BbNIVb+e6l/Dmlz+Ovk1KRw6MSG/rRmz4yse1Tfvvp4yY77QisV/W19f7Y+tDBfX19SVWJPZLYr4TLjxPe/pNG+fcMojX3s1dE/DKOw7O+dGgtmn/PTYmk7W/1RlQjG1S/EfGsmIXAljkdR6HMMcKtV2jM6ArT1Crw9H3M/A/OmOSaSJy7kWoWXQlzHGlOkP/g727F23L/oDkEw/n5NEDg/5GBi9KJOJvuT6YBywreiQ7dD+Bj3d7rIAJXHWyiS+eE0R5sTtjdPczbnoii9tW2fofPTBdmEg3P6o5quv8vhVwoZLiPzJDJyz2NwOo9TqXw+h2EIymUuvbdQRz7RUqKxx9EMBFuuMGJ1TCWvhhhOcvhFkyTktMe3cfUk89ivbly3Rs8jNSXTDoo4lE8yO5HthNlhW7EA7fBmBiLscNVxCuPs3E5ScGUKapEegZGNre95fPaNjk58DuT6Tiyi9HekEagPwjxX/kqsPRTzPwM6/zGA5muimZbr5eRyzXGoCayulT7ID5KhiVbsQ3y8tRedKZCM07e+gkwZG+Ds6MnpY30fnsE+hYvVJ9b381zEw/TKYnfxXQsI+sp04LRELbv0/EX4SL19fhTCgFPnCsiQ/NMXH8VGM0lwfWbmH8aW0Wj7ymY2//g0qR6TS1t7emXBvBRdIA5Bcp/qNiWOHGjQA1ep3IMPUUDxZPfWfnG8p3q65+QVuh2EIQP+z2OIHxE1HRdCzKG5swrnYKiiM1MMdPgFky9KjA7u+DvWsnBpJt6Nv6Dnpb1qN7/avIdivtXqwdA887TIvT6eY2r3MZjVAoVmMQ30vAKV7nsq+qMsJJjQZmTzXQaBGmVhIqywnle04X7BkEOnsY73Qy4gkH67Y4eLGV0dnr+nsFzIQPJpNx354LIQ1A/pDiPzp76pSvZmCZ6FPJZLPyhnKu36FVR6I3M+MLbo9TQBIwcEkiEffVaYGWFT0TDu4GYHmdi18w8w+S6ZYve52HCmkA8kOhFH/LOuoYONmlYJoPQj283YhnxGZUE5acEMApMcKUSUPv2L+7w8HzzYx7Xs5iY7u2m4rViVT8RNUgOZiinR2MhLufJmCe+2MVDBvgbyVSLd9H/p8ZYFjhxq8C9C2M7ljMseqpRCq+AEPnJPiWNADeK4Ti34SmolQ4cwsBV8OF1WluCwaAGxYGcdmJBkzjwGXVdhh3vOjgW8szyKg/6GUyHUv10WEO/tDrMoOZwQsBvO7+WAXDBOg7kXB0RW3tjCqvkzmY2toZVZFwdAVA34EU/5F4IzgQXAyfF3/hvUIo/uFwU3k6nH2SgE/Bp8X/7qVF+Ohc86DFHwBMg3DlySbuXlqEoPpqfoJtKh9QlJM/dlfX5i6baQGAzbkYr1AQsCCb4b9ZVuMJXueyP8tqPCGb4b8RsMDrXHym1UHw7K271nd6nYjwt0Ip/iYyjwF8qte5jNYNC4M4uXH4pfTkRgPfvEC9A2Di96nGyFm3lU43tzmwzwLwdq7GLAjMU8H0nBVuvNbrVPaywo3Xguk5ME/1Ohef2WwEzPm61vCKsauQir8bBx/lyoxqwmUnjryMXnGSiZilWH4ZMbUAOZ5uSaU2tdpszoU8DhgZRhFAP7HC0WWhUMyzPapDoViFFY4uA+gnQzmJEXjNZvOk7ds3yENroYifkeKfH5acEDjktP/BmAbhIyeoPjVl5WWLOX/ekk5v2D6QGTwVoGdzPbZLmJl/QOArAXJvtfiQRQHitZY1Y6bL4/wLy5oxM0C8Fq5vlUl9BL6SmW5C4ZyKt3Iwmz01nd6g5TxpMWbZAG4NpYrOkeKfH+ZFR/8e/byYavmlSYoBvHnhoqtrc1ciVX4WMf0Q/v6S7yHQ4mS65cvtqZbbYBgnMODqoQUMROHw6upw9Ao3x9lXdTh6BRxezUDUzXEYaIZhnNCearltz05XHwGQ+5Og9GFi+mEiVXP2jh1v5demE8IvegH+O8A/JtuZlUjFr12P9YNeJzVahVT8AaBm0uhLaN0k5UV4yrPBHp+mDlihxvNBdBuAvH3b/SDWke1c3t7Z+ua+/zEUilWYxL8BcHEOcvhdsLjvmq1bt+52I3hdXd24zEDprQD+w434+7nPZvpYOt3cve9/tKyjjiHHvoOB43KQgz6ETjjORxPp1uVuDqO6DC+Riit9B/h9GaDq7y+Gr9CKPwDEv18y6rNHegaA6FeVTkcfSKTiSgfKeb7kIpFuWZF18B4GP+B1LsNCGAT464lUzfv2L/4AkE43dydS8cUAXzv0s676j8xA6Yvh8PQG3YHD4ekNmYHSF+F28R/6e16bSMUX71/8ASCR2PD39lTFCcz4JoCMq7nocx8jc7TbxV8IvyjE4g8AbTtGv03L1h3Kk9//8n05Up43AADQ0RHflky1LGIyzgW4xet8DoaAx8lwjk+kWr57uD37E6mWW8nGKWC4/dLXsQbMtZFI47/rChiJNP67AXMtgGN1xTwgxhaycUoi1XLroX9wXSaZjn8bhnk8gZ9wNSc1m4j5/EQqvjiZfDvhdTJC5INCLf4A8Gx89EX8uWbVPd5Y+SyAvGgA9komNz5RMYFnEnANgHe9zmcvAl6BgbPaU/EF7e2t64f7ufaO+JpAsTEbwJ9dTA8AJhDTA1Yk+iNgdnD0YWYHrUj0R8T0AIAJ2rI7sD8Hio3Z7R3xNcP9wNBsQMu5TM45AF5zMbcRYWArM1+dSFUc1Z5u0XoMthB+VsjFHwDuWW3DdkbeBNgO4541qvuAkfLNcl41AADQ2to60J6K/yyUCjaA8TEPZwQYoCeZjHPbU/HZiUT86dEE2bZtY0ciFT8f4K/B3Z3fCIzPW+HuZ2orG+pG+uHayoY6K9z9DBifh7vvhtgAfy2Rip+/bdvGjtEESCZbn0yk4sc5oAUAnoJ3L5K+wcxXl5YNNibTLb8C1vnlEYUQriv04g8AzQkHt7848q/121bZiLcrzgCQ+gvnfngBhsLh6FyDcDkYi+D2+fKMLQS6HwH7tpHc7Q9HdSh2OhP/Ee4fmJNici5NJlufHM4PRyINZxMbdwEIu5xXgpg+0p5uXqkzqGUddQzZzhVs4MM52JxoBzFWEPFvt6dannN5rMOSlwDlJcB8NBaK/17BAHDX0iKcMszdAJ9vcXDpbwaRUbwdJNCH21PN96vF8JH6+vqS/t6iM0A4kxlnAJgF1VkMwiAYawE8x+Q8mky2roaLd5Sh0FGTDbLvzcHhSA4RvtOejH8bBz9QyKiORL/BjK/D5dkgBp5z2Fzs8lp4ikRmnEjsLARoHsBzACg8EgEwNGuznoHnQfxIMjn+mXy605cGQBqAfDOWiv9ewQDwzQsCuOKkg58HkLWH7vy/syKjXPwBOGYQVltbPK0SxNcXf23tjKps1jmOHMQYmAFQFGALQAUIEwGUg0EAegB0AdwL0BaAW4ioBY7xplG0a01bW5vbG/js57RAJLTte0T0Jbj+b0BPkmlfuv+pUdXVDWG2zbsAPtvd8cHMfFMyXfufh3txUreamppSZ7DiBBAfzeAGgKJgTAOhFNhzfQzpAWMXCH0MbCZgExhvscF/z2b55c7O1l25zHskpAGQBiCfjMXiv69otYEl7zUxL2Zgyp51/u/uYDzbbOOPaxz1af//82IiFZ+rGkQufg9ZocbzYdDtYFS6PNQ2Jro4mWxeBQDVVdF/YwPLANS7PO4uJr4qmWz5k8vjjFnSAEgDkC8sa1YZnN0rADrNhfCrbKYFB1oqrMoKxRaC+BHdcd3ExJ9MJlt+qRon714CHEsS6ZYVIJoDYJ3LQ9US80orFP28FYp+ng2sgvvFfx0MOlaKvxCFLxxuKien/3E3ij8BLzgInutG8QeARLp5BQFxN2K7pLtkoOQ+HYGkAfBYItH8dsUEZy5AP3V5qCAIPwLhR1B/Ln5IxLgzWNx3SiLRLCc/ClHgLGtWmYHB5S5N+6/KMr3f5bMPHBB+4mJ83X7+zs43lPcAAKQByAutra0DiVTzZ5npUvh77/teZrq0PR2/3K3tiYUQ+cPPd/77Yiq5HXm098wh7IJh/0hXMGkA8kgy3Xy3yTR76PAPf9lzkM+JyXTz3V7nIoRwXwHc+f9DIvF6LwFX52IsNfSNRGJTUlc0aQDyTFu6udlB0YkgusfrXIaN6B5GcE4isfENr1MRQrivUO7899Weiv8ZwLJcjjkihDWJ1OT/1hlSGoA8lEqt70kkmy9hok8BGPA6n0MYYKJPJZLNl/j5fHIhxPC5udSPgBdsBBd49X3ClLkWwDYvxj6MLhAt1r2UWhqAPJZMNv/CYDoZQD6+TPe2wXRyMtn8C68TEULkRiEXfwBIJt9OMOE8APm090eWgEvceKla1sD6wNQJMycNFA3eDvAFXucyhJYXDxZdoetNVOFfsg/A2FHoxX9fe7ZHXwGXV0wNAxNwZXsqfrsbwWUGwAfe2fnGjkSq+UICfQVATnfT20+WQF9JpJovlOIvxNgxloo/MHTgGAxaBG9XZWXdLP6ANAB+wu2p5huJnfkA3NxP/2C2Ezvz21PNN8K70/eEEDk21or/XolE8yMmO/PgzTsBXQRc6GbxB6QB8J32dOuzDoLHA9B6ot5hrHQQPL493fpsDscUQnhsrBb/vdrSrX/LOjgBhL/mbFDCGhh0/J5VCa6SBsCHTHPARg4fBTBgMjvyrFSIMaSQ1vmr6OiIb0sk42eCnYUMbHVxqF4CfSWRrJmbq11UpQHwmepQw6lsG68BOCtXYxIwzyR7XXWo4dRcjSmE8E4hrvNXlUi3Lh/MDM4E6HsAtG3GA6CbmX8Awz5y6BFr7k5NlQbAP6g6HPsyk/E0gMkejD+ZyXi6Ohz7MmT1iBAFa6xP+x9KV9fmrkSq+WsVE5ypTHQZAS9gdLOxDOBFJv5k8WDxtGS65cs6d/gbLvki9wFZBijylSwDLCxS/EcuFIpVEGGuAZ4HYA4DUwmIAKgAwQGjm4E0gLcMwgYwrTaCvLKtLZ72OHVpAPJdTajheJuM+wEc6XUu/4ToHZB9cSLRutrrVIR3/N4AiJxZZTOcbg8nAAAgAElEQVQt8Nu0f6GTRwB5LBKJXm6T8QLyrfgDAPNUOMYzVjj2Wa9TEULkNSn+eUoagDxUV1c3zgo3/o4YtwMY53U+h1AM8I+tSOzucLip3OtkhBB5R4p/HpMGIM/UhGKxzMC4NQBd5XUuw8a8hJBZa1kzZnqdihAib0jxz3PSAOSRSCh2iU28FqBjvM5lpAiIwXFetsIx/zQuQgi3SPH3AWkA8kBDQ0OxFY79hIjvAuDnqfRxAP+uOhS9o66uLp8fXQgh3CPF3yekAfCYZcWO6N5prAL4WpeHyjLji8z4IlzeRZAJl2UGSp+3rNgRbo4jhMgvft3kZ6ySBsBDVqjxfDCvBTDb5aG2OcDpyXT85mQ6fjM5OAkMt9dPzYbDr0YijR90eRwhRH7wzfa+Yoiv9wGorm4IOw6OI6YYg2YQIwqCBaAMwCQQysAgAD1g7AKhj4HNBGohcAs79CYCxS8nEq/n+MjH0wKR0LbvEdGX4Pa/AeNpmPYl++8yZVnTI7DNu0GY7+r4ADPzTcl07X/mcotLYGgvc2QHTiCDj2YgSkAjA9PAKAVhPIYetxCAbgA9AHoJvMUBbQLjLSZan8kMrO7q2tyVy7xHQnUdvupGOLIPgAAKd5OfQuerBqCurm5cpr9kPojOAOgMADOh/jtkAKxjpudh4JFksvlFuHjcbSh01GSD7HsJmOfWGHs4RPhuezL+bQD2QX7GrI5Ev8GMr8Hl2SAGnnPYXJxOb3DzKGMjHI6eREwLCTwPhNkAAooxHRA2AvQ8MT9SlQr+ZT3WD+pIVgdpAKQB8JoUf//yQwNAk8ONpzigywEsAjDe5fHeJcL9TMZticTGN3QGrg7FTmfiPwKwdMY9gDSTcWkyufGJ4fxwJDLjHGLnLgAhl/NKENNH2tPNWo8yjkRiswzwFcxYBGCKztgHsBPEK8gxfteebn4GLjaLwyENgDQAXpLi72952wA0NDQU7+qij+6ZJp/uSRKMp4lwS3sq/hjUvujJCjd+FaAbAJiasjvYUC+Zdvbits5N747kUzWV06fYZuA+gE90K7M9bIC/mUi1fB9qf1PDCjW+H6DPgXCmruRGaAMBPzeCPb9va2vr8yIBaQCkAfCKFH//y7sGYGiav/RqEK4DUOt1Pnu8wWR8abh31PuqrZ1RlR107gDwfhfy2hcD/JNEavz1wLrM6ELMDlrhXT8A6LNw/9r4c6DIuHzbto0dI/1gdTi6gBk3gdDkRmKjsJ2A71elgr/O9eMBaQCkAfCCFP/CkFcNQHWo8TwmuhVAni4foydh0BeH+2iguir6XiYsA0HtW+7wdjHxVclky590BItEGj9ITL+H249bGFuI8eH2jvia4eUVm0UO35yDFxdHazMM+lwi0fxIrgaUBkAagNzjZxwUXSDF3//yYhlgTeX0KVYo+hATrUDeFn8A4LPhOOsioeg3gdnBQ/2kFW68hk08n4Pi/5oDc46u4g8AyWTLnxyYcwC8pivmARGmsYnnrXDjNYf+wdnB6kj0BmJem8fFHwDq4fDD1eHon0KhWI3XyQihmQ3g1lCq6Bwp/oXB8xkAy4pdCIf/AGCS17mMBAGvsGFenkhs+Pu+/z0UilWYxL8BcLH7WfDvg8W7P7N169bdbkSvq6sblxkY97McnUtwn830sf03EIlEYrOI+Q4A78lBDjp1MeGqZDL+kJuDyAyAzAC4rBfgtwE8TTb/pr2z9U2vExL6eNgAnBawwm3fBXC9t3ko6WfCJ5LJ+B0AUFMVnWETHsjBs+l+MD6bSMd/7fI4AIaOJSbGzzG0v4JrCIg7RIuSyebXAcAKRy8G6PcAl7o5rqsIvw4lg9e49W6ANABqDYDq7y+En3ly8U+dMHPSYNHAowyc7MX4mjEz/dAg502G8d9uF6v9i2Su/P/s3XlgVNXZP/Dvc+9MEkJCgMzMHRKWCMkMGLEW+Iks4kZF61bfilIVt9qKbxdtqe3bTavt203p69JWba3ivqDWhVYRWxAUkRe0LggzCQqCIXdmCJAFkszc+/z+CLa8FCSTc+7cuZPz+VOZ5zwj13ueOffc54RC0aM15kUMRJwdifYQ7K/ZrB1JxNc5O1ZuMLCiO919jhMNhVQBoAoARemrnO8BCATGDesq6lpWIJM/ABARX8eg+xz/pcp4tjPdPTnXkz8AJBKxdzJMkwA87uxIXMqg+wpl8gcAAmYUFxW9VjV0jNM9ChRFUXotpwVAMDimVidrFbz3PNddhG6ArjVT8S+42ZY2lYq1mcn4nH3v3udNNzxPYBxp+XyvGkZktNupKIqiADksAAKBaJUGfSmAmlyNWQgY2MbQTjKTsdvczuUTZjJ2m2bTNAAfup2LpzCPBNOyqiGjR7qdiqIoSk4KgJEV44foxC9CTf5ZIeBFnx+fTSQ2rnI7lwNtT8XW6n4cS8CLbufiKcwjLb/vherqsZVup6IoSv/meAFQj/qi7qKu59BzcI/SOxYzXd+cjJ/R1BRPuZ3MoTQ1xVPNyfgZzHQ9Dn3gkHIgxpGZtP0EcKLoQUWKoih95ngBkAp2/7qANvzlQorJ/nwiFfspANvtZHrBTqRiPyXWZgJodjsZz2CcHA41/crtNBRF6b8cfQVmX5OfPzs9jr9iKMqPOgYDa49ESfVIFIeGwV8+GFpJCQDA7uxEum0XuhLb0fnxFnQ0vI/W9/6BTOtOJ9PKGgMrbaY5qVSsye1c+iIQiFZpxI8RcLzbuewvWE6YWqth4kgNtQZhxFBCYCChtKjn3+/pBlIdjK0tjAaTsW6LjVWNNlLtzh/0R6DZzcnYk44P5BD1GqDS3w0dWjuoSNemMzADjEn7ur9WAqgAIQNGBwFJgD9kYANAq6FZy0xzU8Lt3B27+HtOl9PfhkMd/vSyclROm4nKGadiYO3Y7AMwo2PTRqRWvISW1/4Gq73t8J9xDhPTgubUsO8DyzNuJiLuRF84sP0XTDwfLjZ4GlwKnDtBx3kTdXx2ZPYLXczAW1ttPLnWwjNvWdjl3Fl/Kab0UYnEh6ZjIzhIFQBKf1RTU1PS2VF0AQNfBTAZ2Z/yymCsIcKDvi7/o9ta17c4kOZhOXbxG4HIn0H4guy4RUMqYZw1B8GZZ0IrLpES0+rci+TLi2EufgzpnTn/e9gFjS7L5QEyubBv9WchgMG5HDdcQZh3gg8XT9H/+QtfVEcX8NDqDO5absFslb8qQMDTzcn4F6UHzgFVACj9yfBB9UPTxenvAvgygICksO1E+EPG1m9JpTZslxSzVxy5+Ped6rdYZkzy6QidPhvVsy+VNvEfyOrci+1PLoT5wlPgjPN72hj0Jmk82zTjHzg+mAsMIzKabVpE4AlOj+XXgSuP92H+LJ+0if9AHV3Agpcy+NPKDNKSLw8m/IfT5wY4QRUASj9BoVBkLjFuBhByaIx2ZvwkkSq/ve9HumdH+sXfc4BM6XpIPNWvZFg1Rl9zA0qPqJMV8lPt+SCOTbfeiC7TwUfxRHcPKO26dvPmzZ3ODeK+mpqakr17im8F81VOjTE6SLhzrh/jq3PT1uKdbYx5D3Rj8w55qwEExJuT5Ufl6n98WVQBoBS6yspItU/DgwBOytGQ65jsCxKJxk1ODyT9jpnuLJ0HiZP/4EnTMO4Xd+ds8geA0tERHPnLP2DwxKlOhO9gorlmIjav0Cd/ANi8eXOnmYjNY6K5ADpkx59Vr+GFa4tyNvkDwNHDCS9+qwifq8/2sd+hMRAJB9u+Ki2goijChgXGTvRpWIPcTf4AMJFYW2cEas9yeiCpd83a2tpiEObLihc45QyMmX8j9AGOHkJ3UHrpQIyZfxMCJ50uM2wn6fbkRCL2kMygXpBIxB4i3Z4MQFrRc+FxOu65zI/yktz/iBs0gPCnS/2Yc6zUIuDHNTU1zjzfUhQlK6FQ5Fyb7FcAVLkwfAVIe9oIRh09il1qAdC6iy4DUC0jVuCUM1DzlfkgTd4NNluk66i56jqZRUCJZWmOvBXhBfu+u5QJ7sLjdNx8nh+65t4Krk8HFpwvtQgw9rYXXSwrmKIofRMKjZ1FjCfg8BHoh+ED+B4niwCZBQARkZQT3AZPmoZRV34LoDx4PEeEUV+Zj4qJU6SE04BvSAnkQRrwTRlxZtVr+NUXfflyeeDX5/kx80hpRcC1cPH1SUXp74LBumOI7UUA8qFTJwF8txGoO9OJ4NIKgGHBuuMBjBGNUzKsGkd8/fuu/vI/EOk6Rn/9hygOSVkJOrd6aO1wGYG8ZN9RuOeKxhkdJNx+obu//A/k04HfXujDqEoJORHqDSNysnggRVGyFQzWhzXQXwCUu53LfnwgesiJk0SlFQA26BLRGOTTMfqaG1x55n84eulAjLn2epAuXJj4M7o+T0ZOXmLp+tUQrKj9OnDnXHee+R/OoAGEu+YWwSejbrX5QglRFEXJkob07XDnmf/hVMDG47LPD5FSAAwfPnwAgNmicUKnz87pbv9slY6JInSa8I9YAHwFcngUcx7QAQg/x7ryeF9Od/tn6zMjCFdMl1EB0Ln1qHeom4GiKAdjGNFzIGEec9AkI9Ak9RGylLtpurNkJoBBIjGKhlSievalMtJxVNXsy+EfPFQ0zLBgMDJNRj5eEA7UTgdgCMWoIMyflQ+P5D7dd2b5ERJfPBySCnSfKiEdRVF6wTCOHgibf+d2HodFuDEYrA/LCifn5xSR8DNL46w5jnX4k0kfUIrwmeJFokbiz8O9gomEv+u8E5zr8CdTWTFwlYxVOsJM8SCKovQG2Z2XQdIbbA4rJ858W1YwSeupYgWAXlaO4ExHNjk6IvC5c6CXlYkFYZwiJxsvELs+BpcCF0/Jn02hh3PJFB8qSkWj0IkSUlEU5fA0Bl/jdhK9RcRXj6wYL+V1cuECIByuDQIYLxKjctpMT/z6/4ReMgCVU4QXPY6qrh5bKSOffLbvOx4lEuPcCfIO9smFgcXAF44RLljG94frQ1HcZgSiZwKUv5vP/l1ZZ3H3HBmBhNcqbRufJcH3litP8N7jzsoTZiGx9DmREFqm204ZwYislPJSptsWjjF7ond+/X/ivEk67l8ldGJQv7g+3CZ6loFSCORdAmPDhAsn+3B8lDBiSM/v6607bayMMR55I4ONzXLGIuZLANwpGke4ACCmqMjn/RVDMXC0UAhXDKwdB9+gwci07nI7lYIWLCd8ZkT+7vw/lAkjNVQOJOzoUPOLohQ6vw+48Ww/5k7R/q1HSdTQEDWAy6dreGCVjZ88n0Y6Izzk5HC4Ntjc3JgUCSJ8Z2WIFQDlRx2THx3/skWE8vpj3M6i4E2t1bx6eWBqnfcKF0VRsuP3AQ9fWYTLpumf2qBM1wiXT9fx8JVF8IvvEyZYuvABRcJ3KGIIFQADa48UTcE1ZXX1bqdQ8CaO9O4k6uXcFUXpnRvP9mN6FsX+9DoNN5wlXgEw8XGiMcTvUMRC7ySWVI0QTsEtXs7dK8aEPPjzf59aD+euKMrhjQ0T5k7Jfhq9dKqOqCE4/Qr++AakvAZIQu/DlQzzblv84rB3c/eKI4LenURrAt7NXVGUw7twsq9P55LoGuFLk0U3N7Pwmwsy1iiF+p7pAwXfp3eRT7QXgHJYFQO8O4kOFu4FoChKPpsR6fv9aUZUdPol4V4AEh4BCBYAJd69S+oDvJu7V5R56P3/A5Xl4aFFiqLIUz2k71Po8CHC9wfhpuNql5KiKIqi9IHIS77M7r8iLF4AMNpEPm517hFOwS3WXu/m7hXt3W5n0Hftne7/D64oinOadva90dnH4i1khOZeQM4KgFASmXbh7+CaTHu72ykUvF17vDuJ7lL1oaIUtFfifb8/rYiJdknlnYIBZBQALDQLdjV/LJ6CS7qat7mdQsHbnPJuAeDl3BVFObxHVluw7Oz/P7dsxiNrhFqFA6AGwQAyHgFQs8jHO5u2CqfgFi/n7hWbEt6dRBs9nLuiKIcXM+0+nfmx8DUL8WbBFQBCTCyAjFbAgkl0NKwXTcE17fH33E6h4K3dIn6YkFvWbhGt8BVFyXc3Pp/Byobe36dWNti46XnxwwCI6XXRGOKtgMFCBUDre/8A8mA3ZLaYbbSt/4fbaRS8VY22Fy8P2AysavRg4oqiZCWdAS6+pxv3vpr51McBGQu4Z4WFi//YjbT4bwNb8/My0SDCDYmZOEbc9/cZM6070bFpIwbWjhNNJac6GjYg07bb7TQKXqqd8dZWGxM81ld/3RZGizoJUFH6hXQG+NGfM3jgdRsXHqtjRlTDiH3v+W/dyXglZuHRNbb4sv+/rG5qiqdEgwgXAD6f9qaVBgPocxWQWvGS5wqAlleWiIawfUVa6OOPN+6QkU++qq4eW5npthMQWG16cq3luQLgqbXCS3yeuD6MYMTTVY6ZjKtuTf2cEYieDeJnZcSKN9v4yXPOP7Zk4gdlxBG+q+6rQt4RidHy2t9gd3WKppIz1t492LFaePXlvXy/ucuw7zsKbfR45i0LezzUD6C9C3j2beE1vnf7w/WhKG4zU7HFBMTdziMLbSVdJY/LCCTnZxXh7yIft9rbkFj6vJRUciG59DlYoj0ACH+Tk40XsND1sWsP8ODr4ptmcuWBVRZ2C/cA4OUSUlEU5fBsEG5zO4neYuY7P9r9rnAPAEBWAWCL3eABwFz8GKzOvTKycZS1twPNzz8hHMdm/FlCOp5AzMLf9a7lFjq6ZGTjrLZOxl3LZezwxVIJ6SiK0gtMJfcD8MJ73a2k2wtkBZNSAPhL9v4NgNCOuPTOFmx/cqGMdBzV9MR9yLQKF1/bk8n4azLy8YLmVOOrAEyRGGYrY8FL+b8KcPOSDFLtgo/FCS2VqSJVAChKjpjmOx1g+2tu53F4dL1pbkrIiialANi2bdteAItE45gvPIU9H+Tvo5iOxo1ILHlGQiS6F4B3X3DPngXgXtEgf1qZwTvb8nfP2Vsf2Vj4moR3/xlPr8d6D+16UBTvM1ONzwMQX951CmGNmRz2O5khpW2ttoEHRGNwxsKmW2+EtadDRkpSZTra8cFtN4Et4Rt8OmPznTJy8hKfZf8egNBP+LQFzHugG617868I2L2XcfWDaWQkzP/E9Ih4FEVRssWU/iaAfOxPvwtEcwAJzxf3I60ASCbjrwJoFI3TZTbhw9/+XMZEKw1bFj6842foSmyXEe7PO3bE8/ECc9THLY3bADwtGmfzDsY3Hs1ImWhlyVjA1x5O46MWKYXJu82p2HIZgRRFyU4i8aHJhDMAtLqdy34yBFxkmrEPZQeW+XI1g3GzjEC71q3Clj8uyI8OgczYfPfN2P3WG1LC2cAdUgJ5kKzvvnS9he8+mc6XywPzn0jj7xvkPNEh8P9A7JhxRVEEJBLxt5ns2QDSbucCgAm4sjkZ/6sTwaV2VykfbN/PgJQj8lLLXsDmu292dSWALQsf3vkr7BBv+vOJTl23pby+4UX7vruUhg+PrbEw/wk5S+59lbGAax9LY9FaaUlsL6tgtfyvKC5LJBpfgkazAbj5PDpDwOXNyfj9Tg0gtQBobGzsItAtsuKllr2AxgU/dmVPQKajHY03/1Dm5A8AJWxpb4RC0YtlBvWCUCh6MVvaGwBKZMV8bI2FKxamXdkTsHsv47L7umVO/mDimxobGz3wsqOiFD7TjD2rsz0D7uwJ2EXAOU5O/oDkAgAA/MUdfwCwSVa83etex/vf+yr2bBI++bDXOho3YsN/fVXasv8BBhLzg0YoeldNTY20yTBf1dTUlBih6F3E/CCAgbLjv/y+hVn/0423t+auCHjrIxuzftMtbdl/n42JRPU9MgMqiiKmKdX4ZsbGZNFmd1khrIFGE5xa9v+/QzkgHIx8noG/yIxJuo7Qaeeiavbl0AeUygz9T9beDjQ9cR8SS57JyaMHBr1JGs82zfgHjg/mAsOIjGabFhF4gtNj+XTgiuk6vjPLj7JiZ8Zo62TcvCSDha9Z8h89MJ1jpmLPSY7qONGzALZUjRIaf1TTFqHPq7MAlN4KBaIXEfECAIZDQ7QCdH3Pq35yd/sfimMXvxGMPA3gXNlx/RVDYZx9PoIzz4ZeMkBKTGvvHiSXPofm55+Q0eQnW7ug0WWmGZNyGEW+MIzoObB5IYDBuRw3WE6Yd6KOS6b4MFBSIdDe1dPe967lEpr8HNwiMxk/34nATlMFgNKfDB5cM7jYX/wdgL8CICQpbBsz30m6vUBmk5/ecOzirxo6ZoTl0/8BxlAn4utlZRg69RQEZpzac5IgZflVmNHe8D5aXlmCHauXiff2F8PMdEsiNewHuar8nHOiLxTY/nMi/g4cvL4Op6IU+MIxOs6bpGPCSK0vlwfWbmE8tTaDZ9+W0dv/kJKk2/XNzY1Jx0ZwkCoAlP6otra2uLVVn60xX8XAccj+ZF0G8DoTP1jSVfK4rN7+2XL04t93zOIzTo/jGzQY5fXHoKyuHgOqR6A4VAV9UAX0kp5HBVbnHlitu9GVaMKebR+ho2E92tb/A5k2oe7F0jGw0maak0rFmtzOpS8CgWiVRvwYAce7ncv+KgcSptZpmDhSQ51BGDmUMLSMUFbU8+/bu4GWdsZHLYy4aWPdFhurGhktHY7vK2AmfDGRiHv2XAhVACj9XSAQLSfCNA08A8AkBkZSz+pAOQg2GG0MpAB8oBE2gGm15udl+07SdZXjF384FFnAjG87PU4BSTLZFycSjS+5nUg2woHaE5i0RwEMczsXD/mlmYx/XySA6AQsOgGqAkBRvEv6WwAHak6U/xcDK5wep4AEibW/GsG6HyEHfz8SaEaw7kdM2t+gJv9sLDWT8R+5nYSiKP1XDiaYdenudPc5AN5xfqyCoQP001Awsri6emyl28kcSnX12MpQMLIYoJ8C0N3Ox0Pe9Xf556DnkCRFURRX5OQX5q5dm3dZTKcDkN7LuJARcHq62/5HKDR2qtu5HGhYIDop023/LwGnu52Lx2yyWJ+1rXV9i9uJKIrSv+VsiTmVijXZsE6FKgKyQsBwgr3MCNZ90+1cPmEE675pa/wagCPczsVjNms+/ZRUaoOUU6UURVFE5PQZczK5qdGGfyqAf+RyXM9jFAF0mxGI/Hnw4Jqcvle/v0AgWm4EI48BdFtPTkrv8Xs+yz5++/YNYrvWFEVRJMn5JrNkcn1zV7r7JIBeyfXYDmFm/jWBLwfIubfFAYDwhRJ/0RuGMXa8o+MchGGMHe8jXgvgAmdHoj0EvpyZbkbhnIq3rDtjTd93JLKiKEpecGWX+a5dm3eZyWEziXAjAKkN1XOsnUAXJFIN32tONizUbZ4IxnonB2QgAtteYwQiX3FynP2FQpG5sO3XGYg4OQ4BcSZMaU42LEykYt8F8CW4exqXKAbo9kDSf9rOnR/kV9MJRVH6PdffgTUCdWeCaCGAvN3tfgjryLIvaW5pfH//fxgIRMt14j/C8V/KAIA/+Yv3fGPbtm17nQg+fPjwAemu0jsAfNmJ+Ad43GL6SioVa9v/HxrGuKPIth5g4LM5yEEeQgts+zIz1fi8k8OoPgDqiYrDOsDYDOKXSec/Njc3OvoDR8kt198zN1MNizM2PsPgJ93OpVcI3QD/2ExWHXfg5A8AqVSszUzG5wD8zZ4/66gvp7tKVwWDY2plBw4Gx9Smu0pXwenJv+e/5zfNZHzOgZM/AJjmhveak+WTmXEDgLSjucjzOCN9pNOTv6LkwEAQ6gG6hi3tbSMYuaMe9Wr/T4FwvQAAgB074h8nkg2zmbTTAG5wO59DIeBF0uwJZrLhZ4fr2W8mG+4gC8eD4fRPlGM06GtDobr/kBUwFKr7Dw36WgDHyIp5UIwtZOF4M9lwx6f/wXXpRCp+EzR9AoGXOJqTmE3EfKaZjM9JJD403U5GUSTTAXw9Fcy8FAzWl7mdjCIuLwqATyQSG5eUV/B4Ar4BYKvb+XyCgLeg4XPNyfjp2SyBNe+Ir/EVaxMBOH2ucwUxPWmEIr8BJvr7Hmai3whFfkNMTwKokJbdwf3VV6xNbN4RX9PbD/SsBjScxmTPAvC2g7llhYFtzDzPTJaPa041SD0GW1HyD5+gI/2CKgK8z/U9AIdSj/qiVCB9CYi/C1CdCykwQEuZ6DeJxMaXILYjnYxg3Q8AuhHOd8xb5bPsC7LdcV49tHZ4RtceB+B00yEL4BvMZMPPIfjfNBiMztLA3wYwE+5cy+8y8+9Ky9L3b968udOF8dUeALUHwDUEvGrBf3oyud7Vo1SVvsvbAmA/FAxGpmmES8CYDafPl2dsIdAi+KyFsje8hAPRk5j4UQCGzLgHkdWBQqFQ7anE2kMAgg7nZRLTl5pTsWUygxrGuKPIsi9lDeeDeaTM2AexkxiLifie7ckG18+4UAWAKgDcpIoAb/NCAfBPNTU1JZ0dRSeDcAozTgZwNEQfYxC6wVgLYAWT/Vwi0bgaDr5/HgiMG6aR9RgBM5waYx+bCD9tTsRvwqFftdTCocj1zPgxHH4cxMAKm/U5DnfBo1Bo7BRi+2yAZgA8CYDAIxEAPf361zOwEsTPJhKDlgPr8mYzoioAVAHgNlUEeJenCoADVVePrcxk7M+SjSgDYwGKAGyg5xzmwQDKwCAA7QB2AdwB0BaAG4ioAbb2vlbUuqapqcnZBj7/5kRfKPDxfxPRdXD874BeIt26uLm5Mbn/Pw2Ha4Ns6Q8BfKqz44OZ+eZEqvqHh9s4KVtVVVWp3V0+GcRHMrgWoAgYo0AoBfZdHz3awWgFYQ8DmwnYBMYHrPF7mQy/0dLS2JrLvLOhCgBVAOQDVQR4k6cLAK8zAnVnQqP7wRjq8FAfM9EFiUTsNQAIV0b+H2t4AkCNw+O2MvEViUTDUw6Po7hEFQDKflZZTKcd7HVeJT+pAsBlhhE9AjYvAjDR4aHSYHwPAED4FcSXxg9nHTSabZoxdfhTAVMFgLI/tRLgLXn1GmB/ZJqxD8sr7GkA3e7wUH4QfgPCb+Dw5E+MB/3Fe45Xk7+i9AecxV4AACAASURBVC8MTNeQXhIIRMvdzkU5PFUA5IHGxsYuMxm7hpkuRs9+Ba/aC9CXm1PxS5xqT6woSt6bqhO/qIqA/KcKgDySSMUe1pkmAfye27lki4EYNG2ymYzd63YuiqK4ThUBHqAKgDzTlIrF/MV7jwXYOxMp0SMM/yTT3Piu26koipI3VBGQ51QBkIe2bdu210w2fJkJlwLI56X0LoCuNROxi9SmH0VRDkIVAXlMFQB5LJGIP6CzPR3AB27n8m+IPoJmn2gmY7e5nYqiKHlNFQF5Sr0G6AEjK8YP6Srqvh/gs9zOpQc9X9xddOlHu9/d6XYmiru8/hqgaCOkQhMM1pfpSL/AwHTZsQv1FcGhQ2sHFenadAZmgDEJhFEAKgFUgJABo4OAJMAfMrABoNXQrGWmuSnhdu7q4vcOCgej32XwzwD4XMohQ6AfNSdjv4aD7ZIV71AFQOFRRcDh7WtLfwEDXwUwGdkf8sZgrCHCg74u/6PbWte3OJDmYamL32PCgdoTmLRHAQzL8dDbie0vNacaX8nxuEoeUwVAYVJFwMENH1Q/NF2c/i6ALwMISArbToQ/ZGz9FofPSvk3ag+AxzSnGl8h3f4MgKW5GpOBFRbrE9Xkryj9QzK5vp21ktMAXi47tlebBYWD0dnp4vQGAN+DvMkfAMqY8W2d7MZwKPKTetQXSYz9qVQB4EGWVawjh48BCLCINLXkryj9iGm+02Gj6CwCXnUg/FQf8V+Dwfqyw/9Rd1VWRqqNYOTvDH4CQMi5kbiUGTekgulVoVDtGOfG+RdVAHhMOFB7gob0mwBOyuGwJ2lIvxkO1J6QwzEVRXFZMrm+3YL/dCeKAAam60i/kM9FwLDA2Ik+DWuQ2/vtRGJtnRGodXzTtyoAvIPCwej3mLSXkfvn/wAwjEl7ORyMfg9q74ii9Bv9tQgIhSLn2mS/AqDKheErQNrTRjB6hZODqALAA0ZWjB9iBKPPMviXcO8NAADwMfiXRjD67MiK8UNczENRlBzqb0VAKDR2FjGeADDQxTR8AN/jZBGgfsnluWGB6CSb+AkAR7idywE+1JjO356KrXU7kf5MdBe+6C549RZA/9If3g4IBuuO0UArAOTLJsUMmM81Uw2LZQdWKwB5LBSKXm0Tv4r8m/wB4Aib+NVQKHq124koipIbhb4SEAzWhzXQX5A/kz8A+ED0kGFERssOrAqAPBQM1pcZoejDxPx7AMVu5/Mpion590Yo+nA+Ld8piuKcQi4CNKRvhzvP/A+nAjYeB06U+ghYFQB5pioQjWrofh3MF7qdS68xX0hIrzWMsePdTkVRFOcVYp+AcKDuDACzczlmliYZgaZvyAyoCoA8EgpEL7KI1wF0lNu5ZIuAKGz79VAgepHbuSiK4rxC6hNgGEcPZKK7czGWEMKNwWB9WFY4VQDkgdra2mIjGL2NiB+Cu7tORQ0k4ofCgcgDw4cPH+B2MoqiOKtQVgLI7rwcQLXT40hQTpz5tqxgqgBwmWFEj2jbrb0G8DcdHirDjO8w4zsAMk4OxIS56a7SlYYRzcfNi4qiSFQAKwEaO3//lYaIr5b1GrYqAFxkBOrOBPNaABMdHupjGzgpkYovSKTiC8jGVDDE3p86vImw+R+hUN0XHR5HURSXeXklwDCiZwFU50Rsh5R1FnfPkRHI0+/AhsO1QdvGZ4kpyqCxxIiAYKBnGX0ICAPBIADtYLSCsIeBzQRqIHAD2/Q+fMVvmOY7HbnN/ERfKPDxfxPRdXD674DxMnTrogPPnjaMMSFY+sMgzHR0fICZ+eZEqvqHwHJHVx4OZBhHD0SmazJpfCQDEQLqGBgFRikIgwCUoee/fxuAdgAdBN5igzaB8QETrU+nu1bv2rV5Vy7zzobqA6D6AOQTJ/sEeMHYMOHCyT4cHyWMGNLz+3rrThsrY4xH3shgY7O0I1VWm8n4FNEgnrr4hw8fPiDdWTITRCcDdDKA8RD/DmkA65hpJTQ8m0jEVsHBs+4DgXHDNLIeI2CGU2PsYxPhZ82J+E0ArEP8GT0cilzPjB/B4dUgBlbYrM9x+LhLLRiMTCWmswk8A4SJEO+caIOwEaCVxPxsZdL/t/VY3y0jWRlUAaAKgHzTH4sAvw+48Ww/5k7RoGsHv6Qsm/HAKhs/eT6NtPhPISbdNpqbG5MiQbxw8dOwYN3xNugS9LyiMcjh8bYSYRGTttA0N74rM3A4ED2JiR8FYMiMexApJu3iRGLjkt784Z62l/ZDkHvE5cGYxPSl5lRsmcygoVD0aA18KTNmAxghM/ZB7AbxYrK1PzWnYsvhYLHYG6oAUAVAPupPRYDfBzx8ZRGm1/XuN9SrDTYuuqdbuAgg0AXNydgTIjHydg9AbW1tcShQd5URjDTYoFcAfBnOT/4AMIIZ34Ztv2MEIkvDwcjnIV4okRGs+yETL4Xjkz+9rlvWhN5O/gCQSGxcolvWBIBedzIzAAYTLzWCdT+E+H9TzQjUnWkEIi8T89vM+Dacn/wBoAJMFzHx341gZH04GPl6VVVVaQ7GVRTPcLJZUL658Wx/ryd/AJhep+GGs8T7+TDxcaIx8q4AGD58+AAjEPlW225tExHdBSAn5yIfFGEmA38xgpG3Q6Gxs/oSorp6bKURjCwG6GcAdMkZ7o8BvtVMlp3Q1LJpa7YfbmrZtNVMlp0A8K1w9letDtDPjGBkcXX12Mq+BAgHI6cbgcg7IHoehFNkJ5iFcQzcYaXLGsPByNfrUV/kYi6Kklf6QxEwNkyYOyX7afTSqTqihuD0y4iKBcizAiAcqDsj3VW6HoTfIL/eyRxPbL9oBKNLsul2F66MHJvpstcB+LyDuQFAKxPPNpMN3wLWpfseZl3aTDZ8i4lnA2iVlt3BfT7TZa8LV0aO7e0HQqHo0UYgspSBv4JQ72RyWRrGwB2pYDpmGNFz3E5GUfJFoRcBF072HfKZ/6fRNcKXJov+HmThNxfyogCoGjpmhBGI/JmJFiM/D77Zh0+Fba8LBSI3ABP9n/YnjWDdN1jHShDEHnIe3ts29EmJRMNTsgImEg1P2dAnAXhbVsyDIoxiHSuNYN1h2ltO9IdDkRuJeW0O3loQUQObnwkHI08FAtF87CeuKDlXyEXAjEjfn2TOiIpOvyTcC8D1AsAwoudYuv42CF9wO5de8hPhJ+Fg2xuGMe7fWvYGAtFyIxh5DKDbwXB4SZjv9RfvmZJMbmiQHTmZ3NDgL94zBeB7Zcf+PxhFAN1uBCOPHew931AoerQRbPtfZlwP4FOLrnzBwH/oxOtDoci5bueiKPmgUIuAqiF9n0KHDxHefyrcF8G1HbD1qC9KBbt/BdA1buYhqAPAl81k/HEAMIxxR7FtPUkQfzZzGHsJ/LXmZMN9Do8DAAgH6y5n0O8AONrel4EYafp5prnhPQAwAnVfAmn3AOzVTXYMwq1movx7Yo9m8pfX3wLwgA4wNoP4ZdL5j83NjevdTkhEob0dEP95Ccr6eF5rexcQ+UGnyPBdZjJeIhLAlYl3ZMX4Id1FXc8VyEXAzHSLRvb7DO13Tk9WBMRtotmJROwdJ8c5UCgUPVpjXsRAxNmRaA/B/prN2pFEfJ2zY+UGAyu6093n5HNDob5SBUBOWQDuDCT98/OpF0W2CqkIWH5dESLhvq0CbGxmnHxzl8jwKTMZD4oEyPkjgEAgWtVV1LmiEP7y9yEivo5B9zk9+TP4yW7L/n+5nvwBIJGIvdNt2f+PwU86OxKXMui+Qpn8AYCAGcV+/8rKykg+bWxVvEcH8PVUMPNSrk7Jc0IhPQ54Jd73+ndFzBYcnXcKBshtARAMjqnViV/z4nG3riJ0A3RtItkwu6Wl0end+YfU0tLYmkg2zAbo2p6clN6jo3w6rTKMyGi3M1G8jk/QkX5BFQHue2S1BcvOvgiwbMYjaw7VoLW3SHjvV84KgEAgWqVBXwqgJldjFoitIPsEMxm7ze1EPmEmY7eB7BMAZN1voF9jHgkbS9UbAoooBqarIsB9MdPG/auyn8gXvmYh3iy4AkCIiQXIUQEwsmL8EJ34RajJPysEvKj7McE0G1e7ncuBTLNxte7HBAJedDsXjxmta7y0r02QFOUThVQEoKfbqyfd+HwGKxt6P5mvbLBx0/PihwEQi3dudbwAqEd9UXdR13PoObhH6R2Lma5vTsbPaGqKp9xO5lCamuKp5mT8DGa6Hoc+cEg5EOPITNp+AjhRvB+o0q8VShEQSPpOBfBbePA+ks4AF9/TjXtfzXzq44CMBdyzwsLFf+xGWvxb2pqfhc9UcfwtACNY9z8AXev0OAUkAQ0Xmmb8b24nkg3DiJwCG48ACLmdi1cQ4TfNifh8t/MQod4CyA8EvGrBf3oyub7d7VxEhMO19WzRlWD6HAg16Dna3TMiYQ0XHqtjRlTDiH3v+W/dyXglZuHRNbb4sv+/rDKT8WmiQRwtAAwjeg5s/rPT4/grhqL8qGMwsPZIlFSPRHFoGPzlg6GV9LwiaXd2It22C12J7ej8eAs6Gt5H63v/QKZVeBOlVAystJnmpFKxJrdz6YtAIFqlET9GwPFu57K/YDlhaq2GiSM11BqEEUMJgYGE0n1tmvZ0A6kOxtYWRoPJWLfFxqpGG6l25w/6I9Ds5mTM4TcrnKMKgPxRKEVArhmB6NkgftbtPLLBxFcnEg13icZxbGKuGjpmhKXrbwMQbld4MHpZOSqnzUTljFMxsHZs9gGY0bFpI1IrXkLLa3+D1d4mP8kssiGmBc2pYd8Hlos/HHLVib5wYPsvmHg+XGzwNLgUOHeCjvMm6vjsyOyfdDEDb2218eRaC8+8ZWHXHgeS7JFiSh+VSHxoOjaCg1QBkF9UEdAnWjgY2eB8jxNp2oq7i0d9tPtd4V+wjt2gjUDkz0609y0aUgnjrDkIzjwTWrFQE6R/sjr3IvnyYpiLH0N6Z4uUmFnYBY0uM82YpyrQw9m3+rMQwOBcjhuuIMw7wYeLp+j//IUvqqMLeGh1Bnctt2C2yl8VIODp5mT8i9ID54AqAPKPKgKyFw5F/pMZv3M7j95g5l8nUg3fkxHLkQIgHKg7Y9/BPtKQT0fo9Nmonn2ptIn/QFbnXmx/ciHMF54CZ5zfi8KgN0nj2aYZ/8DxwVxgGJHRbNMiAk9weiy/Dlx5vA/zZ/mkTfwH6ugCFryUwZ9WZmRs4vk/mPAfiUT8z3KjOk8VAPlJFQHZMYyjB8Lu3ABghNu5HEYrNKvONDclZASTXgAMHz58QLqrdD0knupXMqwao6+5AaVHCJ9+2Ct7Pohj0603ost08FE80d0DSruu3bx5s1Az6HxXU1NTsndP8a1gvsqpMUYHCXfO9WN8dW7aWryzjTHvgW5s3iFvNYCAeHOy/CivnRmgCoD8pYqA7BiB2rNA2nNu5/Hp6FqZPWGk3zHTnaXzIHHyHzxpGsb94u6cTf4AUDo6giN/+QcMnjjVifAdTDTXTMTmFfrkDwCbN2/uNBOxeUw0Fz2HJ0k1q17DC9cW5WzyB4CjhxNe/FYRPlcvep73vzAQCQfbviotoNLvFcIrgrlkphqfB/CE23kcEmGNmRwm9TGF1LtmbW1tMQjSXmsKnHIGxsy/EfqA3L8JopcOxJj5NyFw0ukyw3aSbk9OJGIPyQzqBYlE7CHS7ckApBU9Fx6n457L/Cgvyf1ew0EDCH+61I85x0otAn5cU1PjzPMtpV9SRUB2mNLfBPCx23kcxC4QzZG9SVxqAdC6iy4DIOXAk8ApZ6DmK/NBmrwbbLZI11Fz1XUyi4ASy9IceSvCC/Z9dykT3IXH6bj5PD90zb2TpH06sOB8qUWAsbe96GJZwRQFUEVANhKJD00mnAHAtTNXDiJDwEWmGftQdmCZnciIiKSc4DZ40jSMuvJbALl3c/8nIoz6ynykW3dh9zrhzovQgG/Aw72vRWjAN2XEmVWv4Vdf9OXL5YFfn+dHqh14+X0pOwOvBfAnAM43IVBgJuN5cBX9i1NH5e5XBKg9AYeRSMTfDoVqZxNriwH4XU6HCbiyORn/qxPBpa0ADAvWHQ9gjGickmHVOOLr33f1l/+BSNcx+us/RHFIyhku51YPrR0uI5CXVA0dMwLAuaJxRgcJt1/o7i//A/l04LcX+jCqUkJOhHrDiJwsHkjxIicPyFErAb2XSDS+BI1mw4F9S1nIEHB5czJ+v1MDSCsAbNAlojHIp2P0NTe48sz/cPTSgRhz7fUgXbgw8Wd0fZ6MnLzE0vWrIbji5NeBO+e688z/cAYNINw1twg+GXWrzRdKiKJ4lCoC8oNpxp7V2Z4Bd/YE7CLgHCcnf0BSATB8+PABAGaLxgmdPjunu/2zVTomitBpwj9iAfAVyOFRzHlAB3CFaJArj/fldLd/tj4zgnDFdBkVAJ1bj3qHuhkoXqCKgPzQlGp8M2NjMgh/z9mghDXQaIJTy/77k3I3TXeWzAQwSCRG0ZBKVM++VEY6jqqafTn8g4eKhhkWDEaED3LwinCgdjoAQyhGBWH+rPw/PO87s/wIlQuHGZIKdJ8qIR3Fw1QRkB927Ih/bCbipzDTxQCcbNndCtC1ZqJqmhMb/g5Gzs8pIuFnlsZZcxzr8CeTPqAU4TOFFzugkfjzcK9gIuHvOu8E5zr8yVRWDFwl45RfwkzxIIrXqSIgfyRSsYe70t1jAfpvAFI68e3Txsy/hmbV9TT5yd15MJLWU8UKAL2sHMGZZ8pJJQcCnzsHepng/zOMU+Rk4wVi18fgUuDiKfmzKfRwLpniQ0WpaBQ6UUIqSgFQRUD+2LVr8y4zGftReYU9konm7vs76cuEzQBWMfHVxd3FoxKphu/Jau+bDeECIByuDQIYLxKjctpMT/z6/4ReMgCVU4QXPY6qrh5bKSOffLbvOx4lEuPcCfIO9smFgcXAF44RLljG94frQ+kdVQTkl8bGxq5EIvZQczJ+vMU01AadDuAXAJYyEAOwE0AGhG4AOxiIMfACEX5DoPN1P0JmMj4tkWi4S8apfn0lvJ06FKo9lVhbIhJj3M/vxMAxfTjS10UdDe9jw4++5nYa/cJfrynCMX040tdN67bYOOv2brfTyHtunwWQb30ADsepPgGAOjugPxK+qxKT0MztGzQEA0dHRdPIuYG14+CvEN4MqBxGoIzwmRHemvwBYMJIDcFyT80tigckk+vbWSs5DeDlsmMzMF1DekkgEBXfxqp4gvCdlUFCs/eg8RPyo+NftohQduTRbmdR8KZHNK9eHjhujPcKFyX/meY7HdAGnOlEEQBgqk78oioC+gcJKwCIiHx+YO040RRcU1ZX73YKBW+CB3/9f2Kixx5bKN5hmu902Cg6y4k9AQCm+oj/qvYEFD7xOxRxWOTjJdUjhVNwS0nVCLdTKHi1hgd//u9TG/Ju7kr+U48DFFESfqKQUJVYEpZyeKArisP9rqV/ztUEvDuJejl3xRvUSoAiQsIKgFgHQN9A7xaYPtFeAMphDR7g3Ul0sHAvAEU5PLUSoPSVjIeUQrOgVjJAQgru0AeoO7zTBnro/f8DleXhoUVKYVIbA5W+ULuUFEVRCoAqApRsySgAhJpG2J17JaTgDmvvHrdTKHgdHu6l097Jbqeg9DOqCFCyIV4AMFpFPp5uF/q4qzLtqmGW03bu8e4kukvVh4oL1MZApbckrACw0CzYZTaJp+CSruZtbqdQ8Lbs8G4BsDnl3dwVb1MbA5XekLACQM0iH+/8+CPhFNzS2bTV7RQKXqPp3Um0MeHd3BXvUysByuGItwImxEQ+39H4vmgKrmmPv+d2CgVv3Ue22yn02dotltspKP2cWglQPo14K2CwUAHQ+u5bAHvwlxIz2t5/2+0sCt5rDbZXLw+83ujBxJWCozYGKociYQVArADItO5Ex6aNomnkXHvD+8i07nI7jYKXame8tdV7qwBrtzB2dKgCQMkP6nGAcjA+4QA+7U0rDQbQ564nqRUvee5QoJZXloiGsH1FWujjjzfukJFPvqquHluZ6bYTECg2n1xrYYLHDtZ5am1GNIQnrg8jGPF0lSMh/w4wNoP4ZdL5j83NjeulJOaAZHJ9ezBYf7qO9AsMTJcZm4HpOtIvBIP1pyeT69XrUR4hfFdtaoqnALwjEqPltb/B7uoUTSVnrL17sGP1MtEw7+b7zV2Gfd9R6Kb4zFsW9nioH0B7F/Ds28LP//vF9VEABoJQD9A1bGlvG8HIHfWoz9v+lcnk+nYL/tOdWAnYrwhQKwEeIednFeHvIh+32tuQWPq8lFRyIbn0OVjCPQAceR6Xp1jo+ti1B3jwdeFf1DnzwCoLu4V7APSn66Ng6AC+ngpmXsrnSVAVAcon5BQAttgNHgDMxY/B8kBXQGtvB5qff0I4DjGWSkjHE4j5z6Ix7lpuoaNLRjbOautk3LVcvFjpT9dH4eET8n0SVEWAAkgqAPwle/8GYLdIjPTOFmx/cqGMdBzV9MR9yLTuFAtCaKlMFfWbG3xzqvFVAKZIDLOVseCl/F8FuHlJBql2wcfK/ez6KERemARVEaBIKQC2bdu2F8Ai0TjmC09hzwdxCRk5o6NxIxJLnhEPxHh6PdZ76Km2MAvAvaJB/rQyg3e25e+es7c+srHwNQnv/ve/66MgeWESVEVA/yZta7UNPCAagzMWNt16I6w9HTJSkirT0Y4PbrsJbInf4InpEQkpeYrPsn8PQOgnfNoC5j3Qjda9+VcE7N7LuPrBNDIS5v/+eH0UKi9MgqoI6L+kFQDJZPxVAI2icbrMJnz4259LmWhlYcvCh3f8DF2J7TLCvducii2XEchLPm5p3AbgadE4m3cwvvFoRspEK0vGAr72cBoftUgpTPrl9VHIvDAJqiKgf+rzu/sHYwQiXwXhbhmxAiedjpqrrgNIaorZY8aHd/4KO8Tf+wcAEPiK5mTDfVKCeUwwGJmuAStlxJpzrI4F5/vz4fLAtY+lsWitnIrEa9eH6Hv0W6pGCY0/qmmL0OdziYBXLfjz+j35YLC+zIk+AYA3vn9fDB1aO6hI16YzMAOMSSCMAlAJoAKEDBgdBCQB/pCBDQCthmYtM81NCbdzl3r7rK2tLW7drTUSMFxGvMBJp2PUV+aDdF1GuKyxZWHz3TdLm/wBbC+vsI9obGz0wH52+cLh2nq2tLUASmTEm3Osjl+f54fPncsDGQuY/4S8yR8evD5UAZAdL0yCqgg4vJqampLOjqILGPgqgMnoeQU0GwzGGiI86OvyP7qtdX2LA2keltT2ao2NjV0EukVWvNSyF9C44Meu7AnIdLSj8eYfypz8wcQ3eenmLlMoFL2YLe0NSJr8AeCxNRauWJh2ZU/A7r2My+7rljn59+vro7/wwnK4ehxwaMMH1Q81gpFf7u0o2srAQgBTkf3kDwAEwmQGfpsuTm8JhyILAoFxw+Rm25skJBs+fPiAdFfpuwDGyIpZHKrCmGuvR+mYqKyQn6qjcSM+uO0mWc/8P7HRTFaNByS8JO4hNTU1JXv3FN8K5qucGmNUJeGuuUX4zIjcPA946yMbVz8o7Zn/Jzx5fagVgL7xwi9htRLwf1AoFJlLjJsBhBwao50ZP0mkym8H1qUdGuP/cOSOGQ5GPs/AX2TGJF1H6LRzUTX7cugDSmWG/idrbweanrgPiSXPyN+EyHSOmYo9JzdofjOMyGi2aRGBJzg9lk8Hrpiu4zuz/CgrdmaMtk7GzUsyWPiaJX8TokevD1UA9J0XJkFVBACVlZFqn4YHAZyUoyHXMdkXJBKNm5weyLGfTEYw8jSAc2XH9VcMhXH2+QjOPBt6yQApMa29e5Bc+hyan39CvMnPwS0yk/HznQicrwwjeg5sXghgcC7HDZYT5p2o45IpPgyUVAi0d/W0971ruYQmPwfn2etDFQBivDAJ9uciYFhg7ESb7OcAVOV46N1ge66ZanS0R75jBUDV0DEjLJ/+DzCGOhFfLyvD0KmnIDDj1J6TBLPdDs6M9ob30fLKEuxYvUxCb/9DSpJu1zc3NyadGiC/nOgLB7b/gonnw8Hr63AqSoEvHKPjvEk6JozU+nJ5YO0WxlNrM3j2bRm9/Q/J09eHKgDE5fskCPTPIiAUipxLjAcBDHQphQxAV5nJmHATtUNx9AZtBKJng/gZp8fxDRqM8vpjUFZXjwHVI1AcqoI+qAJ6Sc+jAqtzD6zW3ehKNGHPto/Q0bAebev/gUybUPfi3mAmfDGRiAv3wveCQCBapRE/RsDxbueyv8qBhKl1GiaO1FBnEEYOJQwtI5TtO7OtvRtoaWd81MKImzbWbbGxqpHR0uH45kLPXx+qAJAjXyfB/fWnIiAUGjuL2F4MwOdyKgzQlU4VAY7/QguHIguY8W2nx8lHzPzrRKrhe27nkQuGETkFNh6BcxtkCk4hXB9GKNIFRp+Pv10/bATKqG8vI7WzjfrtW/s6NAB0mcl4Vm+l9KdJ8GD6w/cPBuuO0UArAJS7mcd+MmA+10w1LJYdWOprgAfTnCj/LwZWOD1OHlqaSDX8wO0kckALBaI/ho0lUJN/Ngrj+mC0iXx8u8Buyo/FN+pmnXt/f0Wu0L9/MFgf1kB/Qf5M/gDgA9FDhhEZLTuw4wUAsC7dne4+B8A7zo+VN971d/nnoOcQnIJVVRUJhIORvxDxTejbu7D9VSFdH0K7Zld0dfb5syuFjw/nPuVe6JPg4RTy99eQvh253/DXGxWw8ThwotRHEjkoAIBduzbvsphOB7A5F+O5rNGG/1S3OjvlimHUHmel8SYDp7mdi8cU1PVBgud/PLanHRZnv43AYsZje0VXiqmhr58s5EmwNwrx+xtG9BwAs3M5ZpYmGYGmb8gMmJMCAABSqViTDetzAD7M1Zgu2Kz59JnJ5PpmtxNxkhGMXgPWXgEwwu1cPKbgrg8Gx0Q+H89048E92U/kD+xpQ0NasFcKQSj3QpwEs1FI398wjh4Im3+Xi7GEEG4MBuvDssLls7A2YwAAHutJREFUrAAAgGRyU6PF+jQU5uOAty3Wp27fvqEwtiUfxNChtYNCwbpFAN8qsvGrnyrQ64NeF43ws9adeDWLRwGvdnXivyX06yAWz72QJsG+KJTvT3bnZQCqnR5HgnLijLRN9TktAAAgldqwvSvdfQJAr+R6bAct685kTkilNkjtHZxPQqHo0UW69r8EOs/hofYC9GUiLHB4nFwq3OtDs5YBEHoVMM2My1oSWNjR9qmPAzIM3NvRhstaTKTF39C0NT8vE46CwpkE+6oAvr/G4GscjC8VEV89smL8ECmxZATpm4n+cKD95243jBHExLSgOTXs+17r4Z6NcLDuMgb9HoCc1ouHQEDcJpqdSMTeAQAjEJkDoj8B7EzvZ+f1i+vDCERWgzBZRqw6vx9zBpTh+JIBGK737HfaZmWwonMvHt/bLr7s/y+rzGR8mqxgQP94Re7TePX77+tX86zsuE5iov9MJGJ3isZxfeI1AnVngmghes5P9g5CC2z7MqdbNbqp52CnAb8F6IocDLcobdlXtrQ0tu7/Dw1j3FFkWw8w8Nkc5CBPP7g+PhEORr7GwG/dziMbTHx1ItFwl+y4Xp0EZXHy+3vB2DDhwsk+HB8ljBjSs8C+daeNlTHGI29ksLFZWnOx1WYyPkU0iOsFANBz2IKu8a05WF6W5XGm9DWJxIem24k4JRgcV6fBWgTgM44OROgG83VmsuH2Q/+hif5QoO0HRPghAL+j+chR8NfH/oYPqh+aLk5/BPdapmarrbi7eNRHu9915OAPVQT0vyLA7wNuPNuPuVM06NrBp1XLZjywysZPnk8jLb4eyKTbhmgL8bwoAD7R037RugOgOrdzOYRNxHxNc6pB6kmH+SYUqvsiMd0LYJCjAxF9BLIuMM3G1b354z2rAZlbGDTL0bz6rl9cHwfjpY6fuejAqIqA/lME+H3Aw1cWYXpd77bUvdpg46J7uoWLAAJd0JyMPSESI+ebAD9NIrFxSXkFjyfgGwCEenzKxMA2Zp5nJsvHFfbNfaLfCNb9DzEtgsOTPwEv+vw0obeTPwCY5ob3mpMNpzHZswC87WB6Wek/18ehZWz9FgB5OyHtp5V02/ENpgWwMU6Ik98/39x4tr/Xkz8ATK/TcMNZ4v18mPg40Rh5tQKwv3rUF6UC6UtA/F0XVwTeZebflZal79+8eXPfW5Z5QNXQMSMs3fc4wMLPlQ7DAvgnZrLh5wBsgTgUDEZnaeBvA5gJd67lfnN99EYoEJlPhFvczuPT0bVmMnZbrkZTKwGFvRIwNkxYOr/okMv+h2LZjJm3pBEzRW6B+KuZjJ8hEiBvC4D9UDAYmaYRLgFjNpw/X34nMRYT8T3bkw394gyDfSdfPQQg4PBQCWi40DTjf5MZ1DDGHUWWfSlrOB/MI2XGPoh+d3303kS/EWx7HcBEtzM5KMIaM1E1LddvZKgioHCLgJvO8ePKGX3rgv6HVyz85DmRt1q4wUw2RAQCeKIA+KeampqSzo6ik0E4hRknAzga4o8xLADrGVgJ4mcTiUHLgXXS3jXKc3o4FLmeGT+Cw4+DGFhpM81JpWJNDg5DodDYKcT22QDNAHgSxDcN9ufrI2uhUO0YYm0dgAq3cznALmg0wTRjrnQiVUVAYRYBy68rQiTct1vnxmbGyTd3iQyfMpPxoEgATxUAB6quHluZydifJRtRBsYCFAHYAFAOwmAAZWAQgHYwWkHYw8BmAjaB8QFr/F4mw28c+OpZf2AYY0Kw9IdBmOnwUMxMtyRSw36Q619eVVVVpXZ3+WQQH8ngWoAiYIwCoRTYd330UNeHREag9iyQ9jTcP0v9ExkCzmlOxv/qZhKqCCi8IiD+8xKUFffts+1dQOQHQk8Osz7O+kCeLgCUvgkGI9M14DE43/pyFzS6zDRjnmqyoYgzgtErAL4H7t9jmIDLm5Px+13OA4AqAgqtCPB6AZBXbwEojqNQIDJfA5bB4cmfQW9Cw0Q1+fdPZjJ2L0BXAnCzA2ImnyZ/QL0dUGhvBzTt7Psmvm07hZsCtYkGUAVAPzFkyOgKIxB5et8ubWeXZonuLh3YNc004x84Oo6S18xk7F4wnwtgtwvD79q37J83k/8nVBFQOEXAK/G+T+IrYkJvAABg4UZWqgDoB4LB2s8W+XzrQPiCw0N1MNFcMxGbp16LUwDATDUshoYJANbmbFDCGmg0we1n/p9GFQGFUQQ8stqCZWdfBFg245E1luDo1CAYQBUAhc4IRL6iQVsFYIzDQ20g3Z6cSMQecngcxWNMM/6Bmayagp5OgcLLlp+iFaBrzUTVNLd2+2dDFQHeLwJipo37V2U/kS98zUK8WXAFgBATC+D+Bh3FIT074MvuYsJcxwcjPGqz/6v5vPlIyQ+h0BGGZhd9h4nn4V9vYYhqY+Y7SbcXmOamhKSYOaM2BtaXacgsBvgEt3PpC78PeOjKIhzfy26AKxtsXPzHbqQFFwAIdH5zMrZILIZScKoqI2MtjRcBdJTDQ3UR4dvNifjvHR5HKTAjK8YP6S7u+hIz5gKYjOzvRQzgdSZ+sKSr5HGnDvbJlf5eBNSjvigVTC8AcDWAvnXWcZHfB9xwlg+XTtUP2RUwY/X88v/p4rTw5A/A1v0wmpriKZEgqgAoMEYwcgGAPwIod3iozRrT7O2pWO6e7SoFKRyuDcLST2Li45gxFsBoAgKgfdcwo42BFIAPNMIGMK3W/LxM9OaXb/p7EQAA4XBtPVt0JZg+B0INvHPCJAAgEtZw4bE6ZkQ1jBjSM71u3cl4JWbh0TW2+LL/v6wyk/FpokFUAVAwTvQZwaafAXD0lLN9/uLv8l+yrXV9Sw7GUpR+wzCOHgh772KATnQg/CqL6bRUKubkPgzPMQLRs0HsqdeVmfjqRKLhLtE4qgAoAMOGjRtlW9YTYBzr8FAZAD82k/FfoWcJVlEUydRKQM5p4WBkAwNCffVzqK24u3iUjMde6i0AjwsH6s6wLevNHEz+CWg43UzGfwk1+SuKY5LJ9e2slZwG8HLZsRmYriG9JBCIOv2I0EtsEHJ2QqQEv5e150UVAN6lG8HIfzPR82AMdXYoXm7D/xnTjL/s7DiKogCAab7TYaPoLIdekZvqI/5rPr8imGtMJfcD2Op2Hr3QCs36jaxg6hGAB4XDtUG2tIcBfM7hoRigO8xk2XfUCXiKkntqT0DuhIORzzPwF7fz+HR0rZmMSVutUAWAx4QDtScwaY8CGOboQIQWsvmS5lRDnv8PoSiFTe0JyB0jGHkcwPlu53FQhDVmomqazFNV1SMA7yAjGPkvJu1lOD/5r9F0fYKa/BXFff29Y2AuMaW/CeBjt/M4iF0gmiP7SHW1AuABIyvGD+kq6noAwJk5GO63gaR//nqs787BWIqi9JJaCciNUCjyGWKsADDI7Vz2yew72Er62RaqAMhzwwLRSTbxIgA1Dg/VBuArZjL+uMPjKIrSR6oIyI1QqPZUYm0xAL/LqbCTR1qrRwB5LByK/KdN/Cocn/z5Pd3GsWryV5T8ph4H5EYi0fgSNJoNoMPFNDJOTv6AWgHIS8FgfZlG6T+A8SWnxyLGg1pR+7ympqY9To+lKIocaiUgN6oCtRMs0p4DUJ3joXcRcJHTR1qrAiDP9PTC1hYBGOfwUJ1gfNNMxf/o8DiKojhAFQG5UVkZqfbpeACMk3MyIGENiObk4khrVQDkkVAgehER3w2nD8BgbCHG+c074mscHUdRFEepPgG5YwRqz2LSfk/AcIeG6CDQT5uTwxbI3u1/KKoAyAM1NTUle/cU3wrmqxwfjPFMt5W5bOfOD3Y7PpaiKI5TKwG5M3hwzeBif/F3AP4KgJCksG3MfCfp9gLT3JSQFLNXVAHgMsOIjGabFhF4gsNDZZjxX4lU/DdQvfwVpaCoIiC3amtri1tb9dka81UMHAfAl2UIBvA6Ez9Y0lXyuKze/tlSBYCLDCN6DmxeCGCww0N9bANzksm4E33FFUXJA6oIcEcgEC0nwjQNPAPAJAZGUs/qQDkINhhtDKQAfKARNoBptebnZU1N8ZTLqXu7AAiHa4O2jc8SU5RBY4kRAcFAzzP0ISAMxP9v796joyzvPIB/f+87k0xuJCQzmVzARpkkYGq9cRYLinerVWzdXaqr1qqHqj1H11aqtutuLba6u3rY1q4e19a1WqtVevHaolJEtCp6Dt4RMgmCCjFzgYQkExIy7/vsH0CXYwUTnuedd2b4fv52fs8vCcfnN7/npiAAhqAwAMGwAjYKpEugupQr7yFQ+moi8XaOj3qcEKgPf3yLiPouvP4bKPwZtnNBrltLRJR7LAJoIgqqAJgyZUrZ2EjoFIicBMhJAA6D/s8wBmC1UvIiLDyeTHa+DA9b5OFwe5Ml6mEBjvNqjF1cEfy4Nxm/CYDj8VhElCdYBNB4FUIBII2R1uNcyEUA5sP76xk/EsFvlVj3JRLr3jEZOBptOxkuHoK5zSN7k1ZiXZhMrnvG43GIKA+xCKDxyNsCIBaLlQ70y8Uici2Aab4kofBnEfykNxVfCr2ugBWNtP4LID8EYJtJbm/kFdvJntuzdX0hvG1NRB5hEUCfJe8KgJ1t/vIrIFiI3N++tDfvuJDrUqnOpyf6webm6XXODvfXCjjdi8T2oAB1eyI16Tpg9ZjHYxFRAWARQPuSVwVAQ7j1TCXy3wAO9juXvVgGy1o43qWBaDR2DJT9CJQ6yOO8BpSoS5PJrt97PA4RFRgWAbQ3eVEANNVOm+pY9s8g+KrfuYzDmAhu6U1W3byvb9rRSOs/Q+Q2KJR4nM9bLuz5qdTaLo/HIaICxSKAPo3vBcCus/C/BDDZ71wm6E1Y1kWf7AbU1sYmBW3rHuzcsOgxdW+wdPuVmzZt2u79WERUyFgE0Cf5WACcEIhGen4M4Dp/89AyIsAVu59rbKxrneHa8jsoHOr1uFC4OpGO/9zjcYioiPDtANqTLxPvQdWHTd5RMvqEF5WoH0SwWCl5D1B3ACjzdCwg7orMTyY73/ZyHCIqTuwE0G45LwDC4RmNtjhLARye67ELnsLjo9kdF/f3b+z3OxUiKlzsBBCQ4wIgEpkWs2AvA9CSy3ELnmAHlFyXSHXe7ncqRFQc2AmgnBUA4XB7ky3qJXDynxAFbIJY5yaT6172OxciKi7sBBzYrFwMMnnyIdW2qD+Ck//ECJ6DjM3k5E9EXkgk3s7AKjsLUM97EH62LerpcLi9yoPYZIDnHYAOdJRsiYwtL5YNfzniKCWLkunOmwG4fidDRMWNywEHJs87AOnIjls5+U9IWon75WS680fg5E9EOZBKrRlSVuh0LzoBCjjWwtgz7ATkH087ALsu+XnU63GC1bWo+vwRqIgdilDzQSitb0SwqgZWKAQAcEdGMDbYj9HkxxjZ/AEyXe9h4N03kR3o8zKtCVPAi66S89Lpzh6/cyGiAw87AQcWzybmptppUx3bfgse3fBnV1ahbs4pqJt7Gipi0yceQClk1q9D+oVnsfWl5XCGfN2nokTJ4t504/eB57N+JkJEBzYWAQcOzwqAaLjtUS/u9i+ZXIfovPMQOeUsWKUhIzGdke1I/fkpJJ56GGN9W43EnIB+WHJxItH5eK4HJiL6NCwCDgyeFACRSPvpFtRSkzHFthE57atoPvdS2GXlJkP/lbtjBL1PPIyPH30QKuv9F3EB3nDFnZ9Mdq/3fDAiogngEcHiZ7wAmDJlStnYaPkaGHzSN9TYjEOuvhHlB7eaCrlPw+/Hsf6nizCa8HApXuTusvLRb2/cuHHEu0GIiPYfOwHFzXgBEA23fQeC/zIVr2bmHBx85fdhl1WYCjkuznAGG+64Bf2rjR/BzyiRK5LJzl+bDkxEZBqLgOJltACIxWKlg9us9QCaTcQLn3wmPrfgOxDLNhFuwpTj4INfLEZ6hbHVjBGx3Zm9vd1rTAUkIvIai4DiZPQegIF+uRgGJ/+Wby70bfIHdu47aLn8WoRPPMNUyJDr2jWmghER5UIqtWbIQfAMAf5iOrYCjrUxtjQS6ag0HZv2zWQHQKKRti4A03QD1cycg2kLF/k6+e9JOQ66F/8btq1+xUS4RxKp+HkmAhER5RI7AX+rtjY2qcS2jlXAXCjMhOBzAOoAVEOQhUJGgBSgNihgLSCrYDkrEon1Sb9zN1YANEZa57qQlbpxQo3NmPHvd+d8zf+zOMMZvHf9ZRhNam8MHHOUtPCyHyIqRCwCgJaWltBIpuRcBVwGYBaAiX5bVVB4TQQPBEaDv9k0sCbn588Bg0sALuQi3RgSsHHI1Tfm3eQPAHZ5BaZ9+wcQW7srEQxY6nITORER5dqBvBwwZVJHbTTS9h/bMyUfKeA+ALMx8ckfAASCWQq4Y6x07IOG+rbF4fCMRrPZfjYjBUBLS0sIwD/oxol+eX7Ojvrtj/Jp7ag//RztOEphvoF0iIh8cSC+HdAQaZ8/Vjq2FsD1AMIGQ1cqhWtscbsb6tt+2IGOEoOx98lIAbB9KHAqAK3NbSWT69D0j98wkY6nmuZfgmBNrW6YGZHIjPytdIiIPkMi8XbGRck8LzoBAGYHRP0pHzoBdXVtzdFI23MKagmAeu9GUuVK4cZ0ZOzl+vqY9l668TCzBCBykm6I6LzzjF3t6yW7rBwNZ+l/gRflnG0gHSIi3xT7ckBjePrRAQuvATgxh8MeLcpaHQ3H5nk9kKE9AHoFgF1ZhcgpZ5lJJQfCp34FdqXmv0kBCwAiKnjFWgTU17ed44q7EkBTrscGUA2x/hCNtF/q5SDaBUBDQywC4DCdGHVzTimIb/+72aEy1H1Rr+khwCzg6KChlIiIfFNsRUB9/fQvicISAH7uSA8A6h4viwDtAsB1cSQ0jxPWHX+abho5V3f8l3RDlNbXD80wkQsRkd+KpQiIRFqPEOX+FkDA67HGQQB1dzTc6kmLXLsAECXtOp8PVtei4hCtEL6oiM1AYJLupX7qcCPJEBHlgUIvAiKRjgYL8kcA+XQCIQCRX0ejbYeYDqxdACjoFQBVnz8CEE9eJfaWCKo6jtAKYQEsAIioqBRyEWBh7GfwZ83/s1TDxSPACUa7EgY6ANAqACpih+qm4JvK1g6tzysFLgEQUdEpxCIgGm3/CpDXd7TMjIZ7rjIZUP8UgKgGnY+HmqZqp+AXA7lrXyhARJSPCqkIiEa/UAFX3WkilqcEiyKRDq05d08GjgGK1h8g1DhFPwWflDZo586XAYmoaBVKESDuyMUw9JKtx6pEZa8xFczEPQBamyXsCt8vetpvAd27AFgAEFGRK4AiwFJQVxtLymMi6lsHVR822UQsA0sAmgVAqFw7Bb/YZdq5G/kjEhHls3x+OyAabZ8HSCFdzV45UrrDyJPy+XDOkYiIilwi8XYmEumY59FTwrNtUQPRSNvEP+kqY0lMbxCcPyuA49oFUyfv/H79UZ+LFzsVHno1i3W9ZsYSpS4CcJduHP0OgMKgzsedkWHtFPzibNfOXet3R0RUSLxcDvBTMADc8vdBLFtYggVzbbRHLZSXAOUlQHvUwoK5NpYtLMHN5wQRNPO1e9auW3i1mNgDoDWJZYcKdw7MDg3phijcH56IaD8UWxEQDAAPLijBxXNs2Nbe77SxLcElx9p4cEGJiSJA4NjaDxQZKACU1iw42rtZPwWfjPZu0g3BAoCIDjjFVAQsOjuIY1vHP5Ue22rhxnn6FYASdYxuDANLANKr8/GRno+0U/CLfu56vzsiokJVDEXA9AbB17848Wn0G7N3LhNo0byEDzBxFbCgU+fzma41uin4Zij+rmYEpfW7IyIqZIVeBJw/K7DPtv/e2Jbgn2bZmqMr7ZML+lcBa05iA+++CShzuzBzRSkXg2ve1Ioh0CueiIgKXSEXAXPb9v8dm7ntutOvaB8jN9AB0CsAsgN9yKxfp5tGzmW61iI7uE0rhrJYABARFWoR0DR5/6fQKZO1H8HTfrFQuwAIBKzXAWh9hU+/8KxuGjm3deUzuiHcQMB6w0QuRESFrlCLgEKmXQD09MTTAN7WibH1peVwR0d0U8kZZ/swtqxaoRVDgLc2b163xVBKREQFr9CKgJ4+d78/u6lPe+lb+xSZiXsAAMFzOh93hgaRXPakkVRyIbXsCTi6dwBo/s6IiIpRIRUBK+P7P4m/0Ln/xcNOqk8zgKECwFXak1niqYfhjGw3kY2nnO0Z9D65RD+QwnL9IERExadQioCHVjlw9uMqYcdVeOg1R3N06dIMYKYACIa2LwegtSNurG8rPv7dfSbS8VTPkl8iO6BdePVVVrvsABAR7UUhFAGdCRf3vzzxify+lxzEezU7AJpH8AFDBcCmTZu2A/itbpzE0t9j+P24gYy8keleh+Qzj+kHElnS3d09qh+IiKh47S4CAFnpdy57s+jJLF7sGv9k/mKXi5uezGqPK0pe0Y1hZgkAgAv8SjeGyjpY/9NFcIYzJlIyKpsZwvu33wTl6LZtAAU8YCAlIqKil0qtGQqnAqcBuAOA/v+ADRvLAhfeswP3/iW7z+WArAPc84KDC3+xA2P6P4VrBZXeTnQA2gcR94wVjbTFAcR0A9UcPRvTFt4EsXVvSjJDOQ66b7sB2954VTuWAPHeVHw6NI9OEhEdaBoaYh3KkQVQcioELQAq/M5pT20NFs7/Oxtz2y1M3XXO/6M+hZWdDn7zmqvf9v9/LydS8Tm6QUwWAIiG2y6D4G4TscInnoGWy68FxGiKE6cUNtz1n9iif+5/F1mQSHX+r6FgRESkIRpuPxuiHvc7j4lQor6VTHb9j24cY0sAAFBV496vAO0n8gAgvWIpNt59m5GW+/5SjmN28hf5MJwKsP1PRJQnEunOpwTI381nf2swNBp6xEQgoz32rVu3OpUVYRfA6SbiDW/sxvDGLtQceQysYImJkOOWzQzh/Z/8EH2rzO09EeCGDcPrVhkLSEREulRlZZ0L4Ey/ExkPpdTtPX1rjVycY7QDAADB0szPAaw3FW/b6lfw3vWXYXh97q7Nz3Svw9rvXWZkzX83AeKV1e49xgISEZERSkL3AyiEt+kHxHYXmwpmfJfdwMBAtqIy0ilQF5qK6WQGkX5+KbKDA6hs7/CsG+COjmDzknvxwd23ITs0YDS2AF//cFNX4b16RERU5DKZxFhVRV0ngAv8zmXf5PpEssvYHTKe7bCLRtr+AOAc03GD1bWInv01RE45G3aozEhMZ/swUsueQO+TS0xc8vNpliRS8XO9CExERGZEI22PAPia33l8KsFriWTTHOB5/UsE/hrSI02106Y6AftNKNR6Ed+urETt7JMRnnsaKmIzJn5aQCkMdb2HrSufwZZVK/Tv9t+7tKPk8HS6s8erAYiISF99/cFRUcHVAJr9zuUT+mHJUYlE5waTQT09Y7freMVjXo8TmFSDqo4jUNnagbLmqSitb4I9qRp2qBwA4IwMwxnYhtFkD4Y3fYhM1xoMrnkT2UGt24vHQwlwVm8q/ievByIiIn319W2Hi8ILACb5ncsuWQG+4sU84vkh+4b6tsVK4Rqvx8lHSqlbk+mu6/3Og4iIxq++PnaaKOspAEGfU1ECXNKbit/vRXDjpwA+qTdZ9T0FvOD1OHloRTI96V/9ToKIiCYmmex+FpbMB+DnvfRZLyd/IAcdAACoqWmpKQ2WrATwhVyMlwfe2pHNHt/X977nawxEROSNpnDsKEesJ5D7PQH9Alzg9fKx5x0AAOjv39jvKDkDwMZcjOezDY6yz+DkT0RU2HrS3a9nXcyCIHfPtwtegyVH5WLvWE4v2o9EpsUs2M8CODiX4+bQBiXuqclkt7GLkIiIyH/14fYLRNRiAFGPhhgA5AeJVOOdJo/67UvOX9oJh2c02uI8jeJbDnjLUfYZ6fTaj/1OhIiIzNu5nF36XUB9E0C9obCDSqm7xHYXJxLrk4ZijosvT+3t+iU+Bqjj/RjfAyt2ZLPnsO1PRFT8YrFY6cCAPd9S6nIFHAMgMMEQCsArStQDodHQIx9ue8eTG+g+i49v7R4dbAgP3aJELfQ3Dy1KKXVbMt18Q65aNkRElD/C4fYqEcyxoOYCmKmAg2Rnd6AKAhcKgwpIA3jfEqyFklVWUK3o6YmnfU7d/4k3Gm49CyL3AajzO5cJ2iJKfaM33fVHvxMhIiKaKOOPAU1UZnhrPFRW96CIOkggh/qdzzgtcZR8NZmOv+53IkRERPvD9w7AnhrC7ScqUXcCmOF3LnvR7UKuSqU6n/Y7ESIiIh05uQdgvHrTnSuqqt0jBbgK+fQ2s8iHAlxZVe1+npM/EREVg7zqAOypAx0l6fDYRRB1HSCtfuQgQFxBbg2nAg+swZodfuRARETkhbwtAPbUGJ5+tCvqIkCdDyDs8XDbROEJZeNXiUR8OXYe1yAiIioqBVEA7NbS0hIayZScBMHJSuEk7LxMSHcZwxXgLQieg8Lyymr3ue7u7lED6RIREeWtgioAPqm5eXpdNuseKS7aFTAdkDZARbHz/GUNgMpd/+kQFPoBDAKSAFSnCNYpQTwQsN7YvHndFv9+CiIiIiIiIiIiIiIiIiIiIiIiIiIiIiIiIiIiIiIiIiIiIiI6kP0fRO6Bj1AWr4kAAAAASUVORK5CYII=;" parent="1" vertex="1">
          <mxGeometry x="532" y="9" width="136.87" height="115" as="geometry" />
        </mxCell>
        <mxCell id="P1x1mqTw085ikrvF6RCM-2" value="" style="group" parent="1" vertex="1" connectable="0">
          <mxGeometry x="510" y="126" width="231" height="57" as="geometry" />
        </mxCell>
        <mxCell id="P1x1mqTw085ikrvF6RCM-3" value="&lt;font style=&quot;font-size: 32px;&quot;&gt;Secure learning&lt;/font&gt;" style="text;html=1;align=center;verticalAlign=middle;resizable=0;points=[];autosize=1;strokeColor=none;fillColor=none;fontSize=36;" parent="P1x1mqTw085ikrvF6RCM-2" vertex="1">
          <mxGeometry x="-24" y="-13" width="242" height="55" as="geometry" />
        </mxCell>
        <mxCell id="P1x1mqTw085ikrvF6RCM-6" value="" style="shape=flexArrow;endArrow=classic;html=1;rounded=0;endWidth=29.166666666666668;endSize=5.391666666666667;width=32.5;" parent="1" edge="1">
          <mxGeometry width="50" height="50" relative="1" as="geometry">
            <mxPoint x="598" y="165" as="sourcePoint" />
            <mxPoint x="598" y="195" as="targetPoint" />
          </mxGeometry>
        </mxCell>
        <mxCell id="P1x1mqTw085ikrvF6RCM-7" value="" style="shape=image;verticalLabelPosition=bottom;labelBackgroundColor=default;verticalAlign=top;aspect=fixed;imageAspect=0;image=data:image/png,iVBORw0KGgoAAAANSUhEUgAAAgAAAAIACAYAAAD0eNT6AAAABHNCSVQICAgIfAhkiAAAAAlwSFlzAAAOxAAADsQBlSsOGwAAABl0RVh0U29mdHdhcmUAd3d3Lmlua3NjYXBlLm9yZ5vuPBoAACAASURBVHic7N13nFx3fe//1/Q+25v6Sla1GrYlF4yMKzJgG4OBOGCHEnNJDIFASEIuCbmpkOT3C4GQhCRcQgfTMWBjG2xsY+Mi2yqWrS7tStvb7PR+/zgjWW2l2d2ZPbtz3s/H4/uYmTNnznxWM5rzPu37BRERERERERERERERERERERERERERERERERERERERERERERERERERERERERERERERERERERERERERERERERERERERERERERERERERERERERERERERERERERERERERERERERERERERERERERERERERkeqymV2AiFSEGwicNi0EOE967ADCp80TBXInPU4DiZMeF4GxCtUoIrOIAoDIzAoBDUD9Sc2PsWL2Ad7SNDcQLDV3aZrnpHndpVt/afpMigHZ0v0osA34LPDIDNchItOgACAyNTagBWgutRag7aTHx6edvrJ3mFHsDPkk8FdTeN0G4MPA5Rh7HJ4HPgc8WbnSROR0CgAiZ2oDOoAFwLxSW1CatpBXVvR2swqcxW4G7p3E/O8GvgC4TpteAD4O/EOF6hKR0ygAiBV1AEtLrfOk+4uBdozd6zI1TwCvLnPei4GnmHivSBHYCjwwyRpuxdijsAkjSHQBh0rt8En3DwGjk1y2SM1QAJBa1QGsAVYDy3llJb8U4zi7VEce45yEfBnzfht423nmeRi4ZhLv/88YK/9yjQJ7gJdLt8fvHwAyk1iOyJyjACBz3QKMlfyFGCv8463BzKKsymazFT/48wMPOr2BCBTHigVidnsxWoCYvWiPFGzFcQfFaB5in71m0T35XLb1PItMY5wcWSzj7d+GESoqIYexh+Bl4CXgBeA5YB/GXgWROc95/llEZo0lwGaMXbubMU4eqzOzIDlV05KVNqfHfwNFY31ts0GxaMMGFCliK0IB47EnVEdidOicy7PZbO677zv4MbffO0CRAbvNftSWtw3842tb+rHZTg8FH6ngn+LE2HO0HLjppOkxXgkDz5dud3PqpZQic4ICgMxWTZy6st8EnG9rUUy28c3vKXve5qWr6dr22LnnWbbG5vb5Pn18+79QLIK9yEce7c/xq75+oMcGfUUKPf989YJNxULVN86DwJWldlwK2IlxOeQTwKPAkWoXIjJdCgAyW8wDrgZeC1yFseUlc8jKa9/Euje+s+z5N9zyO+cNABtvnTBQOIH5wPwiUCwUsdnsFM3ZO+/FCKibgPeXph3FCAKPAw8C+80oTORcdA6AmMWLsaJ/PcaZ3ivMLWduc3p9OF0nXbxgs+EJnnp0xO5w4vaf2llgJh6jUHjlfL1cOkU+kzrxuJDPk0nEzvneTUtW8Kq3/C7rb7rD2Oc/CQ/+4x+x8ydfO+tzq657M6//xOfLXuY3/tdW+l5+YVLvP4MOYlzN8HPgl8C4ueWIKADIzGoEbsG4TOsazuy61hLcgRCeYBhvsA5PMIwnWIcnVFd6XIfT48XlC2B3OvGG6rE7HLj9QZxuLw63F7c/gN3pwhOsw+F04vLN7D9jKho5cd/p8eJ0T6MjwmKR7T/6Ms98418Z7z8KQKh1Hpf81t1svPXd2Ozld7Xw0oPf476/uXvqtcycLEYI+D7wQ2DA3HLEqhQApNrCwG3AW4FrObPDlznLZrfjr2/G39BMsLkdX0MzwaY2vKEGPCFjxe4N1eEJ1uMJvbLCt9lruTPAqUtGRshn0wSbO6a8jF9+5uO88IMvVbCqqssDjwHfAb6J+iWQGaQAINVgwzhJ6r0YK/85taXv8voJNrfjb2gh0NRCoLENf2PLSdNaCTS24m9o1sp8Ftr3q5/w/Pe/SN/u58hl0maXMxkp4HvAFzHGVSjn0keRKVMAkEryAncAf4hxbf6s5G9oIdy+gHD7QuO2bSHh9oXUlR7P9C51qY5ioUBssJexnsOMHTtMpHQ71nOYyLEjpOOz+jD8AeBfMMJA4jzzikyJAoBUQhj4EPABZsmlet5wPQ0LltGwaBkNC5cZ9xd00rBgKU6vz+zyZBZIRkZOCQbDR/YydPAlRrsPUshlz7+AmTGAEQQ+D0TOM6/IpCgAyHS4MS57+gTGyHczX0AgRPPS1bQsXUPLBWto7lxF4+LleMPqCFCmJp/NMlIKAye36GCvmWVFgL8FPsMrQzGLTIsCgEzVa4H/Ai6YqTf0NzTTseZi2ldtpHnZGpqXrqauY9FMvb1YXCoaYejAbvr3vEDPrmfp3b2N2FDfTJexG2NP28Mz/cZSexQAZLKCGEO0vp8qfn/sThcty9Yw78JLaF9zEfMuvIS6eYur9XYiUxLtP0bPi0YY6H1xGwP7dpDPzsgG+leA3wfiM/FmUpsUAGQylmCM9b624ku22WhZtobFl1zF4k1XMX/dpTg9GrRP5pZ8NkPPi89y5JlHOPLMIwzs20UVuyfejtGnxqFqvYHUNgUAKddlwI+o4El+vvomOi+71ljpX7IFf4MppxGIVE1ybJgj2x7lyDO/4sgzvyI2VPHzCIYxRkH8ZaUXLLVPAUDKsRajX/Npn1nnCYRZ9urXseLqm1iy+WrszprpF0jkvIYP7WHvI/fy0oPfY+xYxTbc08CbgPsrtUCxBgUAOZ+FwFPAlLtnsztdXHDlVlZd92Y6L7sWx8l91otYUbFI7+5t7Hn4x+z55Y+ID/dPd4njGKNm7pl+cWIVCgByPvcCb5zKC93+IOtuuoOLbruLUOu8CpclUhsKuSz7H7uPF374JY6+8OR0FrUDuBjIVaYyqXUKAHIubwJ+MNkXBZrauOi2u1h/y514AuEqlCVSm4YP7eG57/4nL95/z1Q7I/oQ8NkKlyU1SgFAzuURjCF7y+JwuVh/8+/w6t/9U9z+YPWqEqlx4/1Hefqr/8LOn36D4knDNZfhGNCJOguSMigAyEQWY4xhXtZ4rK3L1/H6v/h3GhfNWL9AIjWvf8927v+7DzJ8eO9kXnYd8IsqlSQ1REOZyUReh3F50XmtvuE23vT3XyXQqMv4RCop2NzO2jf8NonRIQb27ij3ZV2op0ApQ1lbd2JJZfWxu+jiLWz9+GdxuHQ5n0g1ON0erv+jf2TF1TeX+5Kl1axHaocCgEykrM35thXrsNn1NRKpKpuNldfcUu7cjdUsRWqHfrllWnbc+zUG9u00uwyRmtez61mzS5AaowAg05KORfjuR97KoafUE6lItYx07WfHj79idhlSYxQAZNpS42P84E/ewcOf/QSZRMzsckRqyujRg3z/Y7eTTWrgP6ksBQCpjGKR57/333z5ztfw0gPfney1yyJymmKhwAs/+BJfv+sGxvu6zS5HapAuA5SJXA+8erIvyiRi7H/sZ+z55Y/wBMM0d67CZlPOFJmMo9t/w/1/+wF2/PjL5LOZyb58P/D1KpQlNUYdAclEPg388XQX0rBgKRe//f2suvZW3IFQBcoSqU3FQp59j97Hs9/6PH0vPT+dRd0P3FihsqSGKQDIRCoSAI5zuj0sveIG1t98B4sueg3Y9NUTAaP//90PfIeXHvgusaG+SixSAUDK4jS7ALGGXCbN3kfuZe8j91I/v5OV19zCsiu30r5yg8KAWEohn6Nn17McfvqX7PvVTxntPmB2SWJR+uWViVR0D8BEgs3tLL38epZduZWFF12J0+2p9luKzLjRrgN0v/BrDj/9CF3PPUYmHq3m22kPgJRFAUAmMiMB4GROr4/W5euYv24ziy/Zwrx1lyoQyJxTyOcY3L+bYzufomfn0xzd/iSJ0aGZLEEBQMqiACATmfEAcDqn20P7motYsOEK2ldtpG3VBgKNrWaWJHKKbDLO4P4XGdi3i4F9OxnYt4vhwy+Tz5o6Gq8CgJRF5wDI9NhsUCxWZdG5TJqjLzzJ0ReePDEt2NxB26oNtK1YT9vKDbSuWKdQIFWXSyUZ6drP8JG9jBzey0jXfoYOvczYsUMUC4WZKaKK/9fEmhQAZFouu/MjeIIhnv3WvxMf7q/6+8WGeok93suBx+8/Mc0brqdpycpSW0HTkhU0Ll5BsLm96vVI7chl0kR6jhDpOczYscOM9RwmcuwwI90HGO/rnrkV/Wm84QY23voeGhZ0ct/ffsCUGqQ2KQDItLh8fi5+2/vZ8KZ38+LPvsmz3/o3Ir1dM1pDanyMYzue4tiOp06Z7gnWUT9/MXUdi6mfv4S6eYupm7eE+vlLCLV0YLOrHywrScfHiQ70MN7bTXTwGNGBHuNxXzeRni5iw32zags73L6Qi976Pta98R24vH4OP63xNqSyFACkIpxuDxve9C7W33wnR579FTvv/RoHnniAQs68Y6HpWIT+PTvo37PjjOccLhehlvkEW9oJtS0g2NxOsLmDUOs8gi0dhFo68De0aKjjWS6XTpEYHSQ+MkBidMhox++PDZ2YHhvsnRPjVDhcbpZduZW1r7+dxZdcpe+fVJUCgFSUzW5nyearWbL5auIjA7x437fZ84sfMHhgt9mlnSKfzTLWY+zmnYjN7sBf34Svvgl/QzOBxlZ8pcfBpjZ8dU14Q3V4QvUnbnXVwhQVi6Ri46RjETLxKOl4tHQ7Tjo2TnJsmMToEPGRfhJjwyRGjJV+rQyQ07ZyA6tvuI01N9yGN9xgdjliEQoAUjWBxlY2v+ODbH7HBxntPlDqCOgnDO7fZXZpZSkW8sRHBoiPDJT9GqfHizfUUAoEdXiCdbh8fjz+EO5gCJfXj8vrxx0I4QmEcXn9OD0enG4vDrcXAE8ojA0bDrcbp8dvTAsEzT9kUVpJA2QSUYr5PNlUgnw2Sz6TIpdJkc/lyCbjFAsF0vFx8pm0sSJPRMnEoqSiY2QSMdKxcTKJKOlYlEwiOie2zivJZrczb+0mlm95AxdseT3htgVmlyQWpAAgM6Jh4TIuvePDXHrHhxk7doiDTz7Ekacfpnv7k+RSSbPLq5hcOkUs3UtsqLcqy7c7nLj9AQBcvgB2pwubzY4nOPVxFvLZLNlU4szpmQy5dIJCPm+5FXQ1eEN1LLzoNSzZ/FqWXnGDrl4R0ykAyIyrn9/JRbfdxUW33UUuk+bY9ieNHtK2PcrQoZdNO9t6Lijkc6SiEYATtzI72R1O2le/iiWbX8viTa+lfdVG8/fiiJxEAUBM5XR7WLzJ+IEEo2OV3t3bOLbjaY7tfJqenU+Ry6TNLVKkDC5fgJYLLmT+us1G23AZnkDY7LJEJqQAILOKyxdg0cVbWHTxFsC4Nntg7w7692yn/+Xt9O15gdHuA9pLIKayO100d66ibeV6WlesY96Fl9C8dLW28GVOUQCQWc3p9jBv7Sbmrd10YlomEWNg7076925n6ODLDB18ieEje2vqXAKZPdz+IE1LVtC8dA1tK9bRunIDLcvW4HC5zS5NZFoUAGTOcfuDLNh4OQs2Xn5iWrFQINJ7hMEDuxk+tIfhI3sZ7T7AaPfBmrlUTKrLHQjRsKCTpiWraOpcSXPnKpqWrCDcvtDs0kSqQgFAaoLNbqd+fif18ztZvuUNpzwXG+pltPvgiUAwduyQ0ftbX3e1h2WVWcbtD1LXsYj6BUtpWNB54rZh4TL8DS1mlycyoxQApOYFmzsINnew8FWvPuO51PhYKQx0Md7XzXjfUaIDPcSH+4kO9JAYHaSQz5lQtUyWze4g0NhCsLmdUOt8Qm3zCbcvpK59IeH2BYRaF+AN15tdpsisoQAgluYN1+MN19O6Yt1Znzc6Axo0wsDIALHhPpJjI6TGR0lGRkhGRkiMDpGMDJOMjJBLp2b4L6htTrcHb7gRX10D3nADvroGfHXNpd4YWwm2dBBoajNaY4tOwhOZBAUAkXOw2R2lcQLKG1kwm0qQioySGBsiMTZMqhQSjrd0LEI2lSSXThr3kwmy6STZRIxMIl6Texu8oTocLg9Orw+3P4TT7cETDBsr9HAD3roGfOHG0m0DvromfHXGY5fXb3b5IjVLAUCkgo539Rtqmz+l1x/vlS8di5BLJcmmk2Ti4yeCwsk98mViUYrFVy6HTMciFE8azS4dGz9ldLtULHLKY5cvgMPpOuX9nR4vjtPGM7A7Xbh9gVOmeYJhnG5vaaUexOH24PYFcfsCONxu3IEwTo9XYyOIzGIKACKziMPlwuGqwxuqM7sUEalxCgBiCr/LwbI6Hw0eFzZgJJ3jYCRBPJs3uzQREUtQAJAZtyDoZVNbGLvNdmJas8/NBXU+tg2M0xXViXQiItVmN7sAsZZ6j5NN7aeu/I+z22xc3FZHg9d1lleKiEglKQDIjFrZEMDOmSv/4+zAqobAhM+LiEhlKADIjGrxnb//9HLmERGR6VEAkBnlcpz/K+ey2zjLEQIREakgBQCZUbbi+ecREZHqUwAQERGxIAUAERERC1IAEBERsSAFABEREQtSABAREbEgBQARERELUgAQERGxIAUAERERC1IAEBERsSAFABEREQtSABAREbEgBQARERELUgAQERGxIAUAERERC1IAEBERsSAFABEREQtSABAREbEgBQARERELUgAQERGxIAUAERERC1IAEBERsSAFABEREQtSABAREbEgBQARERELUgAQERGxIAUAERERC1IAEBERsSAFAJmWbDJhdgkilqD/a1JpCgAyLT27njG7BBFL6H3pObNLkBqjACDT0rXtUbpfeMLsMkRqWmyoj10/+brZZUiNUQCQafvpX/4vRo7sM7sMkZqUjo9z75+/l1Q0YnYpUmMUAGTaEqODfOsDN3HoN78wuxSRmjLadYB7/uBWendvM7sUqUEKAFIRqfExfvCn7+Tnn/ow8eF+s8sRmdPy2QzPfONf+epd1zG4/0Wzy5Ea5TS7AKkhxSIv3vct9j5yL+tvuoMNt76L+nlLzK5KZM5Ix8d58Wff4rnv/hfjfd1mlyM1TgFAKi6bjLPtnv/gue/+J52XXsPGN7+XJZteCzab2aWJzEqj3Qd4/vtfZPf995BJxMwuRyxCAUCqplgocPDJhzj45EP46pvo3HwNbbffwaVXvw6Xy212eSKmivQc4cATD7D3kXuNy2mLRbNLEotRAJAZkRwbZvcD3+FPHvgO4fpGXn3dG7nsmht51eVX0dTaYXZ5IlWXTSXoffFZurY9xr7HfsZo1wGzSxKL0z5ZmcingT+eiTdauHQFGy/bwsZLt/Cqy6+ibf4ivn+gXxtEMqdlk3GO7Xyao9uf5OgLT9L38gsUctmZeOv7gRtn4o1kblMAkInMWAA4XaiugfCi5bSuWE/byvW0rdhA05IVOodAZq1sMs7A/l3079nBwJ4dDB/Zw9DBl8hnZ2SFfzoFACmLDgHIrBONjBLd+TTHdj59YpqvrpHW5eto6lxJ46ILaFy0nKYlK/DVN5lYqVhNLp1itHs/I0f2M3xkHyNH9jJ4cDdjRw9RLBTMLk9kUhQAZFqalqwg0nOEXCZd1fdJRkY48uyvOPLsr06Z7g3XnwgD9fM7CbcvpK5jEXUdixQOZEpy6RSR3i4ivV2Ml25HuvYx0rWf8b5uU1b0oZYOFr7qSnY/8J0Zf2+pXQoAMi1rtr6d1de/hW3f/nd2/PirZFMzO2JZanyMnl3PnHVQIpfXT13HIsKlQBBum0+gqY1gyzwCTa2EWubh9HhntF4xV7GQJz4ySGyoj/hwP9GBHuJDfUT6uk+s8OMjA2aXeUKobT6b3/FB1r7+t+l+/nEFAKkoBQCZtmBzO1fd/X/Y/I4/YPuPvsyL932LSG+X2WWRTSUYOvQyQ4dennAeb6iOQHM7weYOAk2t+BuaCTS04KtvwlfXhK++6cRjhYXZqVgokIwMkxwbIREZJjEySHJsmMTYMMnIMLGhPhIjA8bKfmSQYiFvdsnnZrOxYMNlrL/pDpZfdRMOl8vsiqRGKQBIxfjqm7jsdz7CpXd8mO7nH2fnT7/B/kd/Rj6bMbu0CaWiEVLRCMOH9px3XpfXj6+uEW9dA95QPd5QHZ5gPZ5QGG+w9DhUjycYxhuqx+X14/L5cQfCuP0B7A79dzubbCpBPpMhHYuQy6TJpVOk4+Nk4lHSsQip6BipaIT08dtY5KTHYyTGhmviGnpffRNrXvc21r/xnTQsWmZ2OWIB+kWSirPZ7Sy6eAuLLt5COj7OwSceZP9j93HoqV+QSyXNLm/KsqkE2VSC8f6jU3q9w+XG5fPjCdbh9gVwev24vH6cHg9Otxenx4fT7cHp8eJwe3B5fThcHlxeP/aTtgJdHh8Ot+eUZbu8/jO2FF2+4Bmhwx0IYrc7Tjw+vsI95e9MxinkTz17PRUdB15ZyRbzedKJ6CnzpGPj5DNpsqkEmUSMfDZDJh4ll06Sy2RIx8bIZzJk00ky8ajxvMV7vfM3tHDBltez4qo3sGDjFQqJMqP0bZOq8gTCrL7+Lay+/i3kUknau5/n1w/eyzOPPshA79RWpHNVPpshn82QGh8zuxQxUePi5XReeg3LXr2V+es3YzspkInMJAUAmTFOr48tW2/lqhtvBaDnyEGeeewhnn3sIZ5+9EFiWjFKDfKGG1h00ZUsumQLSzZfTbhtgdkliQAKAGKieYuXcsvi93HLO99HIZ/nyP6XeXnnNnY+82sef/wRho/sq4lju2ItgaY25q/bzLx1m5m/7lJal6/FZtfI6zL7KADIrGB3OOhceSGdKy/kxtvu5IID/cSG+undvY3+vTsZ3LeTgX27iA31mV2qyAn+hhbaVqyjdfk62lZtZN7aS/A3tJhdlkhZFABk1go0tXHBa17PBa95/YlpidFBBvbtZGDvLoYOvsRI135GjuytekdEYm12h5O6+YtpXrKK5mWraVuxntYV6wg2ayArmbsUAGRO8Te0sGTzNSzZfM2JacVCgUhfFyOH9zJ8eC8jXfsY7T7I2LHDJEYHTaxW5hqX10/9gk4aFiylaclKmpasoHHxchoWXqDr8aXmKADInGez26mft4T6eUtYesUNpzyXScQYO3aIsWOHGTt2mEjPYaIDvUQHjxEb7CMdi5hUtZgl0NhKqHUe4Y5FNMzvpG7+Eurnd9KwoJNAU5vZ5YnMGAUAqWluf5DW5cYx2rPJpZKMDxwjNtRHbLCH6GAv8aE+ogM9xIZ6iQ32ER8d1MmIc4DN7jB6cmxqJdjURqCpzVjRty0k2DqvdH8BDpfb7FJFZgUFALE0p9dXGl3wggnnyWezxEf6iQ30kIyMkIqOGbfjoyQjIyQjo6Sio6QioyTHR0mNj87q3g/nCqfXhy/cgDdc6nmxdOurK00LN+CvbybY3H6iG2ddUy9SPgUAkfNwuFyE2xZM6vrtbDJOanyM5PiIERYio6SiY2QSMTLJOPlMmkw8anSDm02Tio6Ty6TIZ1KkohHymQy5dIJ0PDqnhpl1uFylLpADOJxuPKEwDpcHp8eH2x/E4XLhCYRP9HToDTW80rVyuAFvuP7EfedpvR2KSGUpAIhUgcsXwOULEGqbP+1l5bNZoxviRIxCPkcmEaWQL5z0fJpc+pUulovFIunY+CnLyCbj5HOndu97nMPpwuULnDHdEwxjs9lOmeby+rE7jV3or6zsjWneUN2U/0YRmXkKACKznMPlwuGq0wpWRCpK3VOJiIhYkAKAiIiIBSkAiIiIWJACgIiIiAUpAIiIiFiQAoCIiIgFKQCIiIhYkAKAiIiIBSkAiIiIWJACgIiIiAUpAIiIiFiQAoCIiIgFKQCIiIhYkAKAiIiIBSkAiIiIWJACgIiIiAUpAIiIiFiQAoCIiIgFKQCIiIhYkAKAiIiIBSkAiIiIWJACgIiIiAUpAIiIiFiQAoCIiIgFKQCIiIhYkAKAiIiIBSkAiIiIWJACgIiIiAUpAIiIiFiQAoCIiIgFKQCIiIhYkAKAiIiIBSkAiIiIWJACgExLIZc1uwQRSyjkC2aXIDVGAUCmpXf3c2aXIGIJo937zS5BaowCgEzLod88xOD+F80uQ6Sm5bNZdt77NbPLkBqjACDTUiwU+Mkn7yI1Pmp2KSK1qVjk4c/+b0a6tAdAKksBQKZt9OhBvnX3TYz1HDa7FJGakkun+PmnP8yOH3/F7FKkBikASEWMdO3na++9jh33fpViQScriUzX0e2/4Wt3Xc+L933b7FKkRjnNLkBqRyYR46F/+hg7fvwVrrzrz1iy6bVgs5ldlsic0rPrGZ791r+x/7H7zC5FapwCgFTcwN6dfP9jt9OwcBlrX38762++A0+wzuyyRGatfDbLgV/fz7Z7vkDvi8+aXY5YhAKAVM1o9wEe+8Lf8NTX/oU1r3srK6+5hcKSN+BwOswuTcR0+WyGI88+yv7HfsaBx+8nGRkxuySxGO2flYl8GvjjSi+0obmVK2+4mS1b38QlV16L2+M963zfP9BPsVjpdxcxV3xkgO7nf82Bx+/n0G9+QSYRq8bb3A/cWI0FS21RAJCJVCUAnMwXCLJh85VsvOwqNl62hdUbN+F0ugAFAKkN8ZEBjj7/BN3bn+ToC08wcmTfTLytAoCURQFAJlL1AHA6r8/P2osvZ+NlWxhpXU7rinX4G1pmsgSRKUvHIvTv3cnAnh3079vBwJ4djB49aEYpCgBSFgUAmciMB4CzCTZ30LpiLa3L19O6fC2ty9cSblugqwvENIVclrFjhxk+vIeRrv0MHtjNwN6dRj8Ys2O3lQKAlEUnAcqsFhvqJTbUy8EnHjwxzeX107BoGY0LL6BpyQoaFl1A46ILaFi4DIfLbWK1Ukviw/1EeruI9BxhpPsAI0f2MXJkL6NHD5kyCFagsZX4yMCMv6/ULgUAmZZL7/xDnB4vz93zhRk7izmbSjCwdycDe3eeMt1mdxBq6SDcsZBw+0LqOhZR176IcPtCwh0LCbV0YLPrCgQxurCOjwwQG+wlNtTHeF83kZ4jRPqMFX6kt4tcOmV2mQC0r9rIZb/zUexOB9//2G+bXY7UEAUAmRa3P8im2+/motvuYsePvsxz3/lPooO9ptRSLOQZ7z/KeP9R4Mkznrc7XQQaWwi2w+/5JAAAIABJREFUzCPQ2EqopYNAUxvBlnbjttl47A2pz4K5qpDLkhgbJjk2THyk37g/OkR0oKe0N6mfaP9R4iODFPI5s8udmM3Goouu5OK3vZ/Oy64F4PDTvzS5KKk1CgBSES6vn4vf/ntc9Nb3ceiph9n1069z8MmHTNlVOpFCLkt0oIfoQM8557M7XfjqGk80f2PLSY+b8NU14g3X4wnW4QmG8ZZu7aUrGKQycqkkyegYqfFRUtEx0tExUuOlFjNuk5ERkmNDJMaGSYwOkhofM7vsafE3NHPh1rez7qZ3Uj+/0+xypMYpAEhF2ewOll5+HUsvv474yAAvPfBd9v3qp/S+9NxsOUHqvAq5LPHhfuLD/ZN6ncvrxxOswxuqwxOsw+0P4PIFcAdCOD1e4/lAGKfHi9Prwxusw+nx4fR4cLq9ONxenG4PTo8Xu8uNy+vH7nDg9ger9JdOXS6VJJfNnHicTcQo5HPk0ilymRTpWIRsKkkulSSdiJJNJsilk2QSMTKJGLl0imwyXrqfJJtKkI5FjdenE6Ri43Pm+zJdbn+QzsuvY8Vrb2Lp5TfgcClIysxQAJCqCTS2cslv/T6X/NbvExvqZf+j9zH2zIO88NSjFPJ5s8uruGwqQTaVIDZUnUMgEx2asDtduHyBsz7n8vonXKHY7A6KhVc+h1Q0cuJ+MZ8nk4ieeJzPZsmmElMpW87CE6xj6RXXs+KqN7J489U43R6zSxILUgCQGRFs7mDjm9/Dmz/2cVKJGLue+w3PPvYQzzz2EHt2bDO7vDnh5BX0GUaHZq4QmTSb3UHr8gtZdPEWFl+yhQUbLtchIzGdAoDMOF8gyKbXXMem11zH7wG9XYd45rGH2PH04+za9iTdh2aktzSRqrE7XbQuX8u8tZuYv/5SFl10pQbEkllHAUBM17Gok5vfcRc3v+MuAEaHBvivn95Hz85n6N29jYF9u6rVZ7pIRQQaW2lbuZ6OtZuYv3Yz7as24vT6zC5L5JwUAGTWaWhu5YIrt7Ls1VtPTIsN9TGwdwf9e3bQv3c7/S9vV6coYopAUxttK9fTtmIDTZ0raVq8gqbOlWaXJTJpCgAyJwSb2wk2t7P0ihtOTEtFIwwffpnhw3uJ9Bxh+PCeE/dFpssbqqNxyUqal6ykcckKmjtX0rx0tcankJqhACBzljdUx/x1lzJ/3aWnTE+NjzJ69BBjx463w4wdPcRYz2GSY8MmVSuzka++ifr5nTQsWEr9/CXUL+gsPe7UMXupeQoAUnO84QY61jTQseaiM57LxKNGZ0CDPcSH+4kOHCM22EdsqLfUW1zfjHVpLNVlszsINrUSal9IuHU+odZ5hNoWEG6bb9y2L8ATCJtdpohpFADEUtyBkHHc9hzHbHOZNLHBnhPdxsaG+4kNGgEhGRk2eqYbHyM5Pjqrejq0BJsNb6geX7gBb7gBX30TweZ2Ak2tRnfOTW0EmkqPG1s09oPIOSgAiJzG6fZQP7+zrK5YM4kYqegYqchoKRwYwSB1oo2Rio6SjJS6s41FyGcypOPjM/CXzF52pwu3r9RzYrjB6F45VI83XI83bHS1fHwlb0xrMB6H6jUUtEiFKACITIPbH8TtDxJuWzDp1x7vTjcdHSOXSZNLp0jHx8lnMye6yc1n02TiMbKpJPlMinTsleCQTkQpntSjYrFQIB2PnvoemRT5zKmj2qVjUexOJ67TLlMzuiL2njLteDfFp07znei5zhMMY3e5cfsCRq+DbjeeYB0OlxuX14fbH8LhcuH2G90hO9xevMGwVuIis4ACgIhJnF6fMSaARh8UERPYzS5AREREZp4CgIiIiAUpAIiIiFiQAoCIiIgFKQCIiIhYkAKAiIiIBSkAiIiIWJACgIiIiAUpAIiIiFiQAoCIiIgFKQCIiIhYkAKAiIiIBSkAiIiIWJACgIiIiAUpAIiIiFiQ0+wCRERqWcjtpMPvxu2wk8wV6ImnSebyZpclogAgIlINPqedC5uCLAr5sJ00fX1LkN3DcfaMxk2rTQQUAGSWWhD0ciyWplAsml2KyKTUe5wsq/OzMOTFYbOd8bwdG2ubguSLRfaPJUyoUMSgACCz0ua2OrItBbqiKY5EU4ymsmaXJHJObX43qxuCNPlcZc1/YWOQI+NJsgWFXDGHAoDMWi67nWV1fpbV+YlkcnTHUgzEM4yls+gnU2aT1Y0B1jQGJ/Uap91Gi89NTzxdpapEzk0BQGZUgSIOztwtej51bid1jUFohFSuQF8iTX8iQ38iQ7ZQqEKlIuVp87snvfI/zuPUhVhiHgUAmVGJbJ6Qe3pfO6/TzpKwjyVhH8UijKSzjKSyDKcyDCezpPIKBDJzltcHpvzaRE7fVTGPAoDMqKOxNKsbK/e1s9mgyeuiyetiOX4AErk8w6lSKEhmGc/kyOtkQqmSRu/Uvs/pfIGhRKbC1YiUTwFAZtTesTgLQh5Crup99fxOB/6gg4VBLwDFIsRzeSKZLJF0jkgmx3g6Rzyb17kEFmOzQcDpoM7jJOxyEvY4CbmdeB12coUi/YkMe0bjJKp8nX4R2D4UVTAVUykAyIzKFYo8emyUzW11tPjcM/KeNhsEXQ6CLgfzT9pbmysUiWZyjGfzxDM54rk8sUyeeC5PWocR5jS7zYbfaafO4yTodlJ3fGXvcmA/y6V5AB4HLK3zsTDk4dc9YwyXeeXJSCpHm7/873I6X2DHUJTuaKrs14hUgwKAzLhUrsBjx0ZZGPKytimIz+kwpQ6n3UaD10WD98zLtrKFArFMnlguTzxrtGS+QDKbJ5nL69Itk9kAr9NBwGUn4HQQcDnxuxwEnHYCLgde51RONTW47HYua6/n511D5Mr4nPdH4mUFgAJFDowleWkkrhNXZVZQABBTFIGuaIqjsTRLwl5W1gfwu8wJAmfjsttp8Npp4OzXdOcKRRK5PMlcgVQ+TyJXIJXNk8oXyOQLpPNF0vkCGf3QT5rbYcd7vDnteBx2fE4HntJjv9OB32XHPuVV/Pl5nXYWh3wciJy/o56+eIaXRuOsbjj7yYCZQoHD40kORpLEs+oCWGYPBQAxVaFY5GAkyaHxJB1+D51hP20BdxV/2ivDabcRdjsJn2fDrwClQGAEg1TOuM0UimTyBXLFItl8kVzRmJY9adpcPz7stNtw2e247TbcDjuu0mOX3Ybbacdts+Fy2HE7jOd9DjseZ3VX7JPR6HFxoMx5dw/HGE1mWd7gp8HjAhuMpbIciabojqbm/GcptUkBQGaFYhF64ml64mn8LuMEvoUhL3XTvGTQbHY4sTU7WQUgly+QLRQpUCRfKJIvGnsfihSN29LjQukxQKHIWVc4xSJki2ffI+G02c44Nu6w2bDbTn3ssNlw2I3pbrsdmw1cdht2jOnG8+C0z5bV+NRNcKrAhHoTaXoT6tRH5o65/esqNSmRzbNn1BgsJeRy0uZ30x7w0OxznbVv9Vplx9gd7p49R0YsZUTdT0uNUwCQWS2azRGN5NgfSeCw2Wj2uWjze2jzuwnP8b0DMntlC0W6YzpLX2qbfkFlzsgXiye6/wVjuNUmr5smn4t6j4sGj9NSewikOvLFIk/3j+lSUKl5CgAyZyVzBY7GUhwtbanZgbDH6BWwweuk0eMi6HbO+WPRMjNyhSL9yTS7R+KMp3NmlyNSdQoAMj2z6OzmAjCWzjKWzkLEmGbHRtDtKJ2x7yTkdlDndioYWFiBIvFMnkgmRzSTZzyTYzyTI5rNzaavs0jVKQDIRMbKmenlX/yQV912F063p9r1TEmB4okf+JM57TZC7uPdwToIOksdybgcuOyKBrUgWygQyxq9Oxore+N7EM/l5+SKPj48UPas1axDaocCgEzkWDkzDe7fxY8+fidv+OQX8Ibrq11TxeQKRUZTWUZTWYie+pzLbifoMjqbCTgd+F0OgqVbn8uBU+cZzArZUmdM8WyeRNbowjlR6rUxUWO9NRYLBXb+9Bvlzn60mrVI7dAvmUxkObC33Jnr5y3hxk/8Kx0XXlLFkmYHl92Gz+kwOq9x2vHY7fhdDrylx+5Sz3XakzA12UKRVGk8hlS+QDpndKSULHWolMzliWcLlupO97H/+Gue+ebny539duBbVSxHaoR+oeRcdgJry57bZuPCrW/nyvf9GYHG1upVNUfYbbZXesFz2HDb7UYr9Xx34n6pdzyXw47DZhyecNrsk+6IZjYpFo0ucHOFItmC0ZlRptTjYTZfLD02ej1Ml3pITJVW8IW5uH++StLxcX7x//0JL//iB+W+ZAyYD5y/D2OxvDn8EyMz4D3AFyf7IqfHy7o3vpNLbr+bUEtHFcqyBjvgKIUDu83oXe/4fZfd6FnQ5Xjlv7Cj1BsfADZwnZQgnKXe+o7LFYtlrWiP70Y/ubfB4sm9ERaL5AtQLBZPLDNbKJY1iI5MrFgo8OL93+aJL36a2FDfZF76OeAPqlSW1BgFADkXJ7AdWDOVFztcLi54zevZ8KZ3s2DDZZWtTKQGJSMj7PrZN9nx468Q6Tky2ZcPYvxfHap8ZVKLFADkfNYDvwF801lI46ILWHXdm1l57ZtoWLC0MpWJ1IJikd7d29j+o6+w9+EfkctMeTyBtwP3VLAyqXEKAFKOtwLfoEJXjbSt3MCq625l5TW3EGzWIQKxnnw2y9EXfs3+x+/n4BMPEB3ome4i/wr4ZAVKEwtRAJBy3YpxZvF5BsCdBJuNthXr6bzsOpZefh1tKzdgs09+1DyRuSA21Ef387/m4BMPcOipX5KJR8//ovJ8CvgzQCdeyKQoAMhkXIuxJ6Aqp/j7G5pZftUb2fTbHyDctqAabyEyY8Z6DnNs+1Mc3f4Ex7Y/xVjP4Uq/RQbjhL8vVHrBYg0KADJZ84BvAluq9QZuf5Bb/v4rLNx4RbXeQqSi0rEIA/t2MbB3B317tnNs+28me/b+ZO0B3gFsq+abSG1TAJCpcADvB/4GqEr3f766Rt711cfx1TVWY/EiU5YcG6Z/7w4G9u5kYN9O+vfumMoZ+1OVAT6DccxfXf7KtCgAyHS0AX8H3EkVupV+zfv/nE23313pxYqUJTrQw0jXPkaO7Gf4yF5Gu/YzfHgvidFBs0r6KfBHwMtmFSC1RWMByHT0A+/FCAGfAN5JBb9TvS8+O6n5s6kE23/wPxx+5mHSsQj1C5ay+rq3sPSK6ytVktSYxOggkd6uE2206wAjR/Yy0rWfTCJmdnnHPQT8BfCk2YVIbdEeAKmkRRiHBn4XaJnuwpZecT1v+vuvljXvaNcBvv/HtxPp7TrjudXXv4Wtf/ZZbHbHdEuSOSYZGSE21Md4X7exku85QqS3i/HeLsZ6j5BLJc0ucSIZjKtuPgM8b3ItUqO0B0AqqQvjcqT/A9wG3AFch3HOwKTFhnq/YoOXinAZcCnQfrb58tkMP/yzO8+68gd46cHvUTdvMVe8548nXUOxUGDs6CFymSS++mb89U3Yna5JL0cqK5dOER/uJzbcR2ygl9hwP7HBHuN2oJfYcB/xob7pdKpjlr0Y3W9/BajqWYQi2gMg1daBMTrZbRgr8XIv9I9hdGvafXzCR3/Rs7jgsl9uK3Ip8CpgA1D/4n3f5uef+tA5F+by+nn/D3fi8gXKe/dikRd+8CWe+tq/EB/uP+Upb7gBf0Mz/oZmAo2t+Oub8dU3EWhqxd/Qgr++CX9jK766Rtz+YJl/rnXls1kyiSip8VGSkZETLTE6RHJsuPR4+JRp2VRNjXXTDfwA+A7wa3Q9v8wQBQCZSa3ATaV2PeCfYL4M8FsYP4rn9OGHe5d85V1b/nvkyL5rzzfv2z77w7LHJHj4X/43z39/0uMgncFmt+MJhPCE6vEEwngCIdzB8Cv3AyE8gTDuYAhvqB5PIITNbscdCGOz2XEHgtjtDtz+IDaHE7c/gN1h3o67YiFPOh6jkMuQTSbIpVPkMmkyyRjFfI5UdLw0zzj5TJp0bJx0PEomPk46Nk4qGiGTiJKOj5OJGbe5dMq0v8dEB4DvAd8HnkYrfTGBDgHITBrA2L35RYyxBa7HCAM3YgxhGgcexDiE8EI5C/zM1R2HKXPwk1w6lQY855uva9tjFVn5g3EIIRWNkIpGKrK841y+AA6nE5fXj911ZueM3lDdhK+12ewUi0VOXufkMulTV8TFIunYqTVX+m+wmBTwBPAwcC/GIFsiptIeAJktvBg/klPxCeCvzzNPEZ9v4YcePOBwZW1L8zY6bdCJzbYU6Cy1DoCf/tX72fOLH06xFBEAshhb9r/EWOk/ydS/3yIiMoFFQAJjk3aidu/5FvKXDx/yfvTR3jWeYPjAeZalpnZ66wV+DPw5cANQ5skmIiIyXe8FCpz9x7kbWDiJZT05wXLU1IrAGMaW/aeAtzC575aIiFTBjRjnDhz/oU4BX8c4v2AyPoV5Kxe12dMSwLPA/wAfA7Zi7G0SqQk6B0BqUTvGLthjTO246zzgRao0zoHMKgWMPUT7T2u7gIOl50VqkgKAyNltwbhEq8nsQmTahjBW8t3AkVLbD+zDuBxvzvUWJFIJCgAiE2sFfg+4CliAcZWAevaZPbIYl5b2YPSa11tq3Zy6wq+pXoNEKkUBQGRyfBijIHZgjHfQXnrcetL9JqCh1LzmlDknDQMjJ7WzPR7GWOH3Y6z8RWSKFABEqsvLK2GgAeO8gtMfB4Aw4C7d+jE6LGooTQsAIWZnx11pjC3sCMb5FvFz3B/H6OJ5opV8cYZrF7E0BQCRucOBERDg1EBwPCQcV88r/7d9GFdChMpY/rswTpwEY2U8dtJzoyfdHys9H0EnyYmIiMxag5R32VuzWQWKyMwrd2Q2ERERqSEKACIiIhakACAiImJBCgAiIiIWpAAgIiJiQQoAIiIiFqQAICIiYkEKACIiIhakACAiImJBCgAiIiIWpAAgIiJiQQoAIiIiFqQAICIiYkEKACIiIhakACAiImJBCgAiIiIWpAAgIiJiQQoAIiIiFqQAICIiYkEKACIiIhakACAiImJBCgAiIiIWpAAgIiJiQQoAIiIiFqQAICIiYkEKACIiIhakACAiImJBCgAiIiIWpAAgIiJiQQoAIiIiFqQAICIiYkEKACIiIhakACAiImJBCgAiIiIWpAAgIiJiQQoAIiIiFqQAICIiYkEKACIiIhakACAiImJBCgAiIiIWpAAgIiJiQQoAIiIiFqQAICIiYkEKACIiIhZkM7uAOcIGrAMuBVYAK4E6IAA0mFiXSDkWA44y5jsC5KtcixkGgGeBzwL7priMDcDdwEagADwDfA7YO8XlrQM+ALwKaJriMqwoCcSBMaAL499/O/Dr0nSRinAANwBfxfgBKaqpqc3plgLezuTdDeQmWN5vTWF5vzfB8tSm3jLAr0r/to3lfxQip/IDH8JIl2Z/qdXU1Crb0sB6ync1xl6Rcy1vwySW99rzLE9t+i0F/DdwQXkfiYixm//dQB/mf4HV1NSq175O+R4qY3nfmMTyHpwFf79VWg74AtojMCGdA2BYCnwZuNLsQkSk6rqBRWXMZwMSgPc88x0FFpa5vCTgKWNeqZxBjMM43zG7kNlGVwHAm4Hn0MpfxCrOt0I/zg64K7g8B+Aqc16pnBbgHuDzKHydwuoB4KPAdzHO6BcRa9hV5nx54OUKLi9X5vKkOn4fuA8Im13IbGHlAPC3wD+hwyAiVvOFScz7nxVe3mTmlcq7GngYXb5taR/D/BNU1NTUZr59iclxAD85x/L+h8ltRDiAH5v496sZ7THAd57PSmrQbRgdeZj9BVRTU5u51gV8kKnt8XMC/5tTrxDqAv5gGsv7M6C3gn+f2uTbPef7oGqd1XZ/LwO2MfVj/hGMY0iPYPRANQ6MVqQykep5lvJ2eV5CbX6fU7yysp0OO9BRWk4ll6cT08oXwOirpRPj+3oL07ve/wMYJwdKjbMDTzC1pPg4sJXyzggWmW0GKe973mxWgSLTsBb4NyDL5H/bUxjdu0uNu4vJfzkOAG8yo1iRClIAECtYCdzL5H/nHzCjWJk5Qcr/ETzeHkI9SEltUAAQq7BhnF8x2e6WbzKjWJkZf8Tkvgz/F+NEHZFaoAAgVnMrxgBB5f7mP2VOmVJtTqCH8r8ID6KVv9QWBQCxot9jcht+V5tTplTTGyn/C7APdRAhtUcBQKzqPyj/9//LJtUoVXQP5X8B3mhSjSLVpAAgVhWi/BFeoxiXGEqNcGBc11zOh/8rk2oUqTYFALGyuyl/I3CrSTVKFWym/A/+OpNqFKk2BQCxMhflnwf2DybVaIpaHwzo0jLnG8Ho3U9ERGpLFmP8hXJcVs1CZptaDwCrypzvXoyhOkVEpPb8qMz5Vla1ilmm1gPA8jLne7SqVYiIiJkewRgE7nxamfpYMXNOrQeAci/p21fVKkRExExJjBEcy2GZHmBrPQCEy5xvpKpViIiI2YbLnC9U1SpmkVoPAOUOs5muahUiImK2RJnzWaYvgFoPAOX+feUcGxIRkbnLVuZ8xapWMYvUegAol2U+cBERi1IAOE2tB4ByP3ARERFLqfUAUC7LJD4REYvSHoDT1HoA0AcuIiJyFrUeAMqlACAiUtu0QXiaWg8AOgdARETkLBQADJZJfCIiFqX1wWlqPQCUyzIfuIiICNR+ANAhABERAe0BOEOtB4ByWeYDFxERgdoPAEp8IiICWh+codYDQLks84GLiIhA7QcAnQMgIiKgPQBnUAAwWOYDFxERgdoPAOVSABARqW3aIDxNrQcAfeAiIiJnUesBQEREBLRBeIZaDwD6wEVERM6i1gNAuRQARERqmzYIT1PrAUAfuIiIyFkoAIiIiBVog/A0tR4AymWZD1xERATAaXYBVabEJyJiTS3AslJbCiws83UfBZ4FDpbaYSBdhfpMV+u7yEeB+jLmayzNK1KLBoHmMuZrAYaqXItINTQAry61K4H1QLhCyy4AXcATpfYY8CKQr9DypUrGMLbuz9fKCQkic9Ug5f0/KCckiMwGNuBS4J+AnRgr43K+45VqEeCnwF3o/82sVW4AqDOrQJEZoAAgtWIz8I8Yu+VncoV/rpYFHsAIA01V+8tl0iKU9wFWaleRyGykACBzmRt4K/AU5q/sz9fSwD0YQUVMNo4CgIgCgMxFLcCfAN2Yv2KfSnscI7g4Kv0PI+UpNwCEzCpQZAYoAMhcEsBY8Zf7+z3b24vAGyr6L1Qhk7kM0ANcC6wo3Z8L3GXO94fMjcs8MhiXpTwIJEyuRUSkkuzAO4FPA+0m11JJa4CfAA9hXGK4w9xyJu86jMsgzE5SakbrB95yzk9M5BXaAyCz3dXAbsz/ba12ywL/zhw68fxKjK1js//h1E5teeDmc3xuIscpAMhs5QM+xcxfxmd262EWHBYopyOg7RidKsjscxSjh6us2YXIrKaOgGQ2ugz4MsZh5aqwNwdxLGrAsbAex8IGbEE3Np8bW8Bo2G0Uk1mKqSwksxRiaQqDcfLdoxS6x8h3j1JM56pVXhH4PMb5DqYc0j1fAFgB7JmJQmTKtmD0TCVyNouBvZR3PswNGOeXiFSTDfgE8EkqeYa8w45zVRuuixbgetUCnCtbsfnLPQ1sAkXI90bIbe8h+3w32eeOUhiOV6beV+wDbsOEcwPOFwCuQz8Is92dwFfNLkJmrW8Dbytz3p3ARUDVNnnE8gIYW/0VOYfJ5nLguqITz/UrcV20EJvPVYnFnlO+a5TMo/tJP7CHfHfFepCPAXcAP6zUAstxvgCwFbhvJgqRKXsP8CWzi5BZ6dUYe4cmM+bH3cC/VaccsbjFwI+ADdNdkHNVG56tq/FcsxxbyDv9yqYot7uP9AMvk35oD8V4ZrqLKwB/AfwdxuGBqlMAmPsUAORs7Bg9p10yydeNYBz6G654RWJllwE/xjjPZMpcFy/E985NuDbOr0xVFVKMZ0j9YDvJ726nGElOd3HfBN6Fcdl3VdX6cMAiVvW7TH7lD8bImH8BfKiy5YiFvRpjQ3LKHa65L1uC785NOFfPzu4BbAE3vnduwnvbRtL37iL5jW0UxqYcBG7H+Le6jSr3T6M9AHOf9gDI6cIYJ+9O9dcyh3EuwM6KVSRWdSXwM6a48nd01OH/0Bbcly6paFHVVoylSXzpKVI/3AGFKe/Nvx+4FUhVrrJTVWQPwOIOJ7deHajEoqTkgd8k2X2w6nuApDb9BdPrSc2JMczq6ypTjljUazCGzJ38yt9px3vzOvx3XY7NW/0T+yrNFvQQ+OAWPFtXE//MI+R2901lMVsxTgq8FZj2cYWzqUgAWL7QxV++r6ESi5KSwdG8AoBMxQXAByqwnBuAm4B7K7AssZ6LMfYeT3rL0LG4kdAnt+LonPsj6zqXt1D3udtIfu1ZEl9+aip7A14HfAt4M0ZnSRVlr/QCRcRUn6FyY3X8cwWXJdYxD2PLddIrf88Nq6j7j7fVxMr/BLsN352bCP//t2JvmtKe8psxxkeoOAUAkdpxHZXtXnQZ8AcVXJ7UviDGbv8Fk3mRze0g+KfXEfz49XNyl385XBvmU/fft+O6aOFUXv5RjBN7K0oBQKQ2ODG2/ivtz4GOKixXao8d+BqwcTIvsvlchP7uJjyvW12dqmYRe72P8D/cjOfGNVN5+b9hjMhbuXoquTARMc3dwIXlzOh12Gn3ld1Fagj466kWJZbyceCWybzA3hQg/LnbcF08pa3iuclhJ/ixa/G+dVI5CcCFcT5Axa6FVACYCc4QjtDFOOpfgyOwFpttmv1Ti5yqEWNLvSwfWTOfv7+oczLLfzewabJFiaVcgtG3f9kcHXWEP/cWnMssOAilDQK//xr8v3v5ZF/ZDPxfJte754TUEVBV2XA13Yiz8RpOHvOimI+THfgO+dh280qTWvK3QFlnTbX73PzRhQsJuRz8175enhgYL+dldozDC1cyQ12Uypzix9j1X/bBe3u9j9A/3Iyjo656Vc0BvndcQjGVI/kEfLmJAAAgAElEQVS1ZybzshuB9wP/Pt331x6AKnI134Kz8XpOH/DK5gjg7vgdHMF15hQmteRCJnFy0Kcu6iTscmADPnPJMuzlb0dcQfmDCom1/BOwstyZbX43oX+4BceC+iqWNHf433sZ3lvXT/Zlk/o3n4gCQJXYPR04G7acYw4brpY3o49ApumfKXNP3kVNQX67s3XCx2X4J6ZwaZfUtKswtkbLYnM7CP3dG3Eun9aQALOe3WZjcXM7F3eu4pKlq+ls6cBxjrQd+MAW3Fcuncxb+Pl/7d1pdBzllfDxf1V3q7VvtiVZm2VZXuRNtiQbG2ObHRPDJCQhZCFMIAthSEIWCNkYlkmAEMAknHlP3nk/TE7eTBYmCQmBmEDC4mCIiRdsY+MFG++LvGm3Wuqumg9lZ8CqVt9qqRdJ93dOH86hbnU9ltRdTz3LvUMwFaB3nwQxc2YR63dj+AvxZXmai1Xq3T4MXCYJNIAVLk/8Z0cEhCqB2z20T41sJvAIHm5CObddSKAhvQr5DLXCnDyumXchl86cx5wJk2moruPiGc18aN5FjMmNMuVhGuR+5wp83tZDnI9TNyBu2gFIEMMvzIwY0AyKKi5B4AFp8PW1JSwqye/3/8+uCfDgTpyyrkp9Bifjn0jGRZMJvi+u7W/DRlZGkCsbFlKYndvvWF5WDu+bs5DinP6fQwAj6CfvO1dgBD0tzfs+zmhAXLQDkCiGrFNsIH76UurdbsdJ+xtTtt/kvjk1UY9/bXoFdXlZ0utm4aHjoUasPOBeabCvspDc2y9OYHPSw+zqOrIzoifPzPAHuGL2eeRmut+zfTXF5Nx2oZdLVuIkCYqLdgCUGn7KgK9Lg78xs5qqnOhfSkGfyf2NNV6u/zGcQi9q9Po20v3ofpO8e6/EyB75258njIn9I8kOZrJs9gIyA+4/j+CV9QQv9bS+7+vEmaxLOwBKDT8P4ZT8jak6J8iX62PPuX6weiyXjvc0HfVD9PtjtMrHw8K/rI/MxVc7Ovb6Zw7w9P9uBdk5LK2fS7TlEzlfXIKRnym9bC5wmzT43fQDrNTwsgC4Xhr8cHMt2X7Zx/zR5lr8wqkrYC7wKWmwGlH+BRBt4DdLcsm6fvTkkOrq6RbHVhaXMLt6kusxIz+T7JsWeLn0LQh/J++mHQClhg8DJyGP6C69qCSfa6rlT17TC7P59GRPWUYfII4vHTWsBXDSTovkfHEpRtbILO7j5p1jhz3FN02cSkl+seuxzKtn4q8Xfx7zgZs8XRztACg1nHwSOE8S6DMMHp9f53mT8L/NqWFMUPyFXQJ8y+Ml1PD2cYSV/gKNVV73tg97m/fvorWrQxxvGiZLpjW45wgwDXJu9bTU5jY8ZvfVDoBSw0MuHlbff2ZyGbOLvOfsKQ76+dYsT9sCvwxM8XwhNVyJy0Nn3TB6hv7P6ouEeXbT3+gKnRafU5Cdy8xK96kA/4wyL4WSJgDXiC+MdgCUGi6+CZRLAgsz/NzTEP9W/VunlTOjUNx5yMBZlKhGvmlAoyTQP6NsxCf8iaYr1MOfNq0hFO4TnzNnwhTyMt234mZ9otnL5T/uJVg7AEqlv4nAV6XBd82uZlxm/POufsPg0WZPQ7fvB66I+4JquBDfXLJvmJ/IdqS9U10dvLh1HbawdJbf56Np4jTXY4G5lfhnifr+4BQKEhdZ0A6AUunvYUC0J2haQTb/MlX8ZRHVJeMLeV+F++KkKFbgoRqcGpaukwT5ascQmK/JIg+ePMamfTvF8bUlFeRnuY+8ZV03V/o2QZwOuYh2AJRKbxcBH5QGP9xUS2CAoiPG2FKMmc0Yc87HGF89YMbKR+fVEvSJvyLqgZulwWrYaUa41iN4RX2CmzJ8rN+znZb2U6JYwzCYXeWe3DNjQQ1mkTjj70elgdoBUCp9+XCerEXeV1HMsoooyXyyczGvvgHz47dhXvxBzCVXYV77eczrboUi98psdXlZ3OptNOE+YHRkfBl9PiCK8ples9iNaJZts3rHJmzhXMDkskqygy6DfT6TjIsmSy97KdI8DdJ3VEol3eeABklgwDT4QbR5e58f8wM3YrjMMRol5fg+9BnIdU8seNfsasqyxClci4C7pcFqWFkqCcporsYsjrs2zYh0srOdbYf2imJN02Ryqfuq/+Dl7msEXPiBRaLrSd9RKZVURThP1CJfmFbO1Hz3VcRGw0KMsQOkCs/Ow1xyteuhvIDP646CW4BZXk5QaS8LEO3py7hMn/7drN+znXAkIoqdVOq+e8I/tQRflThd9xJJkHYAlEpPdyMcTh+XGeDbs6qjHjfqZsZ8D6NuBkal+wjCTXVlNI3pX940Ch9OtkI1cpyHs7hsYAYEGkU5gkadnr5eth/eJ4otysmjOMqIXGBe9M/5ObQDoNQwNQ0n37rIfXNqKMyIngDMyBPVDcJYcpXrokDTgMfmTfKSVfBiPKxEVmlPNPzvmzjWy0K1UWfz/l1YwrUAtSXua28Cc8UdrGYgZjIP7QAolX4eRbilbnZRDjfVlQ4YY3d1ii5qjC3DmOm+f3vhuHw+PMF9sWAUjyJ5alTDgagqjT79D6wrdJpDp46JYsujLMwNzKlweuSxBRBM22gHQKn0chVOMg+RFfMm4YtRwc/e/Zb44uaCyyBKRrKHmiaKKwsCtThpgtXwJ5rY9/B0OmrtOnpQFDc2t4AMf/9nACM3iH9KifRyMVcNagdAqfSRgZP0R+TDE8aytDT2bh9746twukv2plnZmPMvdj1UlRPka9M9fcl/Gxhg9aEaBoKAaOLZP1V8Yxq19h4/gmVZMeMMw6C0wD0Rl4efs3tSgXfRDoBS6eNLCJ+2Mn0mDzZOlL1rqAfrtefFjTBmL8QY4z6t8PWZVUzIEY/s5wHfFV9YpaNanIWdAzKyMzDHeC8+Ndr0RcIc62gVxZbku6/497ATIGbiAO0AKJUeSoDvSIO/Nr2SmlxRdmAA7C1rsVtkw4+YJsaS5a6Hsnwm351bI74u8ClgdCeGH95E2Wd81eKb0qh3qPW4KK4g233nja9KnOpfOwBKDRPfQ5i9qyI7gztmepxvtS3sVc8grU5iVNVhTHQfjPjoxBIuKBE1FZzvmMfAyyYClUZiDiODdgC8ONYmSw1cEKUugIefdS0x7vHaAVAq9eYAN0qD7587kVx/zFHZfuxDe7B3bRHHm4uvAl//6xjAinm1wsXIACwEPiaOVulEVBHKVyHuEI56radlu3IKsnNce81mSR5GQPT5DwIDJvDQDoBSqfcYgnlWgPPG5vHx2vgXW1mrnoFwryy4cAxGw0LXQ3OLc7mhduDth+d4CMG+ZJV2RBmgjFzd8SnV2XNatBDQZ/oIBlzScJsGRo44Pbd2AJRKY9chTLRi4DkhT3+dbdjrV4vDzfMugShzkd9rrKEgED0B0TkqgDvEF1bpQtYByBbfkEY927bp6u0RxQb87p8vDz9v7QAolaaygAelwZ+cVMq8sXmDvqi19mUQrkQmEMRceJnrodLMDO6c5V64JIqvAzVeTlAppx2ABOgLh0VxAZ92AJQaqe5AeEPM9fu8rr6PLtzrbVvg9CaMEvdFh1+ur2BynnviIBeeOjwqLWgHIAH6hIWBoncARIlCwdmKG5V2AJRKjQqcJ2KRb8yqolxeljcme/sb2If2yIINE2Ppctc6ARmmwYNNwnwEjusQFipRaUE2x+PTTR5e2HbsNQDgJARyJV8EPODvTzsASqWGeFHcxNxMvlzvXiI0brZ9Zlug8Ito/ISoVQXfXzWGy8s9bQMTL3pUKSdasm6f7kt0O0aUaE/254o2VWB3CxfyQsdAB7UDoFTyedoW91DTRDJ9Q/9RtVsOYm97QxxvLn4f+N1HIR5uriUg3xc4Fw/bHlVKyToA8huSIvrivnP1RbQDoNRI4ikxzoVlhVxTPTZhjbFWPwvCFcnkFmA0XuB6aHpBNp+b7CntvzjxkUqpAW8gZ9ld2gHwIhilI32uqB0A+c9bOwBKpZFPIUyN6zMMVjTXJrY13Z1Ya1eJw83mpRAlR/k9cyYwNihenOQp9bFKGVkHQEcAxDIDGQQDsT8ntg2hsPvUiocplwFHcLQDoFTyeCqO89nJZcwqSnzuHHvDK9B6QhbsD2AuvNz1UFGGn7saRIXjzvoSMMXLCSrpRB0Aq0WW3U5Fz/F/rs5Qt2vCILsjJO1w2egIgFJpQ1wetyjDzz1zJiS4OWdEws5UgJAxZTZGRY3rsc9PGc/MQnGnxVP5Y5USogpSkf2y/PYKinPyRXFt3e6dqsg+8c/6CDDgfkPtACiVHLXAl6XBdzVUexlOHzR71xbsfTtlwYaBsfgqMPp/ffgMgxXzPE1bXA0s83KCSqrtkiAPN6VRb3zRGFFca7QOgLyzFfN3px0ApZLjUZziHDHVF2Rzy5TyBDenP2vVMyDIUQ5glJRj1M91PXZRWSH/VCX7kjvjUSB5vR3lhagDYB3v1K2AAgYwvlC2qLe1y330XjsASg0vFwPvlwZ73FI3dE62YL/5d3G4ef7lEHTv0zzcXEtQvnWxHrhFfGGVTK3A0ZhRNkTeEa4jGcXG5ReR6Vbgx8XhKOtyPPycd8QK0A6AUonlw9n2J7K8spgrvCXVGVLWa89DT7csODsPs+lC10O1uZncNs3TKMY9QOL2O6rBiHkjAejbKFouMKrVlbmn1D5XZ0837ae7+h+wbPo2H5ZeblusAO0AKJVYtwCzJIEZpsFDTQne9hdLqBvr9RfE4cbcRVDoPtz/zVnVjJenLy4C7hVfWCXTm5KgvvUHEt2OYc1n+qgtkWX0PHjquOv/D+9owe4MSS/5VqwA7QAolThFwN3S4C9Oq2BqvriwTsLYm/6GfSL2qC8APj/moitdD+UFfNw3p8bLpW8GZns5QSXFXyVB4c2HsPtkRW5Go9qS8QT9sqUuB0+2uP7/vnX7pZfbD7wTK0g7AEolzn0Ih7VLMgN8a7an0rqJY1nYq54WhxuTpmNMmOx67J+9lTD2NF2ikuZFnD3lA7JDYcJbjyShOcOPYRg0VMtSXvSG+9h3IkoHYIN4lEU0jKcdAKUSYzrOE63IfXNqKAjI8oMng71/F/Y7MacQ/8FcvBzM/vV9TANWNNfK8h47LgKukYerJDiCYDgZoHfVrgQ3ZXiqK62gIFuWH2NXy0EiVv+RFKv1tJd1FtoBUCqFxFvbGopzuLGuNMHN8c5a9QwI65ZTXIIxc57roQXj8vnoxBIvl34YyPRygkq4FyVBoT9v12mAcwT8fpom1ovjdx52H+bv/csOCMu26QIvSYK0A6DU0Hs/cIU0eEXzJHzR6n6nUtsJ7I2visPNBZdBZrbrsQcbJ5Ijr2FeC3xFfGGVDKInSru9h741exPdlmGleeI0coKy/uzxjlaOdbS6Hgs9Jx6R2wnskwRqB0CpoZUBPCQNvnbCOJaUpm9RPGvNCxAlIUk/mVmY513ieqgiO4PbZ8i2QJ3xLSD52ZBUNH9CWBfAw41qxCsrLKa+fKI4fsMe9x2Xkb0nCe9wXxfg4jfSQO0AKDW0voKwwE2Wz+SBxprEtmaw+kJYa54XhxuzF2CMdZ/OuH1GJTW54pH9XOB+8YVVonUBv5UE9r72DtZRYadxBMvKCHJRfRPSwb0THW1RF//1PLnJy6X/vzRQOwBKDZ1S4JvSYI83xJSxt6zHbhGuPjYMjMVXux7K8pncP7fGy6VvQFg6WSXFz0RRYYvTv1g36IuZ5vC9PflMg4tnNJMtHPoHWLdnO26bLayT3YSeFa3BBFgHbJUGD9+fsFLp5wFANJ4fx5B46tgW9stPOwXKBYyqWoxa90VPH6nxNOVhAD8881+Vei/g7C+PKfTHrVjHvZcIzg5mcsHUBq6/YBk3LlnO9Rcs44KpDZ5upKlmGAYX1jdSVlAsPufAiRb2R8m9cfqX67BDYelbiZ/+QTsASg2VucA/S4M9LopLOfvwPuy3N4vjzcXLwef+7/O46HEB8AnxhVUiWcDPJYF2X4TTT7zh6c0Ls3P5QNNipo6v/kfCnKA/wNTx1VzTtIRx+YWeG5xsBrB46hxqxsmXr4QjEVbvdP9s2e09hJ7eIn4r4JfiC6MdAKWGwtknVdHnKY5tcWnB+usfoU9Y8a2gGGPOItdDcWx7fBCQbaJWifZjQPRHEHpqM9bhdtGbGsBF05vIynB/0s/MCHJlw0IqisdJ25l0PtPHxTOamCzM93/W+j3b6IxSf6P7J2u8VFl8AknhpnfRDoBSg/cxYLEkMI7EOOmjsx17/SpxuDn/IshxzwLoMfFRBXCn+MIqkfYAv5AE2qEwnY+9JHrT8UVjKc7NHzAm4PNz2czzqC+vEb1nMmVlZLJ8zvmenvwBjrSeYMsB94y94Z3H6Pm9eNTNxukoe6IdAKUGJwsPq9VvqPWUGjftWOtWQbuwHnkgiLnwMtdDcaQ+vgOo8XKCSpgHcKYDYup7fS+9r+yOGVecK1sX4jMNzp8yi6X1c/G5ZJ5MhaoxpXyw2fsURXeohxe2rsNyW1tj2XQ99hJYsnU3wO8A+RzdGdoBUGpwvgFMkATmBXz8m7dV8Okn3If12nPicKO+EaPUfUjUY/GjTDzkV1AJtQ0Pe827Hl+F3RNjGFu4wPSsutJKrmxYkNKdAsFAgAumNHD5rHlkZgQ9nRuxbF7YupbTve6V/Xqe2eK1rsL3PDXgDO0AKBW/SuB2abDH8rhpy96xCfvgHlmwYWIsvQq3zdBxlD++Fljq5QSVMPcjKBAEYLV00PWjlweMaWl3z343kNKCYhqq6zyfN1g+02BmZS3Xzr+EqeXVeN+kYvPqzo0cbXMfSYscaKX7x6u9vOGzONv/PNMOgFLxexhwz317jtrcTL40bYQktrNt7FV/AFuWl9woq8aY4l7ld3llMcsqirxc/TGcqoEqtd7Aw5az0Mq3CP0p+l72lvaTHG076bkRU8dXez4nXhn+ALOqJnHteZdwXt0MggFZad9zrXl7Kzui5Pu3eyN03vcsdnev9O3COKOQcdEOgFLxOR/4iDT4B821ZPpGzsfNPnYY+6314nhz0ZUQ5Qvz4aZaAqb4KWoO8GnxhVUi3QEIF4RA12MvE9kb/Sb/4tZ1dERZDR9NTjCLQJTtpkPBZ/qYMLaMJdPm8NGFlzJ/0nRyguJpq37W79nOmweir4nofnwV4Z3HvLzlj4CN8bZn5HwjKZU8Jh4S1FxUVsj7q8YktkUpYL36HITc5zD7yc3HbFziemhaQTa3TPE0OvJdIP03hY98LcB3pMF2Tx8dd6/E7nT/m+kK9fD0+lc42SXbOghg2zYR+UK5AflMH/lZOVSOKaGxZirLZi/gE4su59KZ85hcVkXAN5hy3TZrd78VNdc/QOjZt+h5+k0vb3oQuGcQjSJpBcjNrMn4CuZh+seCEf2yttWL3bufcOtq7L7jcV3L8BfhL1yEmVkNRmoySBkBeRYoNex8GmiWBPoMgxXzBpjnzsrBmHUeRnkNZEZ5sgj1wOG9WJvXyAvznMMoLsWYNR/GjQd/fEOX7uRfvkbTEti6Dlyqnd3VUM3P32nheEi053kccBfwNfHFVaL8GCcBlihlc2TvSdrvfIr8Rz6Akdn/77C7N8QfN7zKpbPmizLpHW07iSWcigJnxf7kskrys3LI8P3v9QM+n+eFfFIRK8KqbW+wu+VQ1JjeNXvofERUcPHdvoqwQFM0SegAGARKPoy/4Hz5KdmT8Bcupu/Irwh3/N3T1Xy5swiUXY9hDP/FViot5QH3SYNvnjKemYXuOWyMihrMq66HoGAZQdUkfA2LsFb+F/a+t6WXd67TsBBziftCvKTyBzAvWIa1sn+ysqIMP/fMmcAX1oj/bV8E/gPYPoQtVN5ZwK3Aq4CoZxneeoTO7z5H3r1Xgsu0WCjcx7MbX2X+pBlMrxiokp7NG3t3ihppAIumNiR1zQDA6d4e/rJlbdQFf3Dm53HPsxCWd2RwFv49Mdj2JXwKwF90obeb/z/4CJReh5lZIz7DDI4no+wGvfmrRLobKJMEFmX4+deGKF84OXmYyz8pu/mfFQxiLv8E5MlHv40Jk9Pj5n+GUTcLY7z7rsnPTi5jdpE44V8AeGSo2qUGZS1O+Wax3tW7nSfeKMP3EcvmtZ1v8uLW9fRF+ufBt2zn+MFTsvnymVWTkn7z33fiKL9du2rAm3/knRO0f/MPsbdJvtdh4FODbB6Q8A6AD3+xeyIQEcNHYIz8fH/RJQNOLyg1SJOAL0iD726YwNig+0OR2XB+9CH/gQSCmE3uc+lujPmXpM3NH3CqBTZe4HrIZxg82uxpW+By4MqhaJYatEeA33s5IbTyLTruWYndG4kas7vlIL9+/UU27t3J4dbjHGk7ydaD7/C7tS+zVbgV1TRMZidxu2A4EmH1jk08v/l1eqLs8wcIbztK21eexG7v8fL2Fk6VTE8pf6NJ6N3SzCzHMONfMQlgZMl/caaHWKXi8BggmiisL8jm5injowcMOLQZg/Rcnw/DY17yZDAqJ0U9dmFZIddUj+XJfeL1P48Cf0aYn14ljA3cCGxAmBgLoPevu+j4xlPkfXc5Rrb7yG13qIe172yLu2EF2TlkBpIxKmyzu+UQf9/9Fp09pweM7H1tD533rvRS5e+se3D+3odEQkcADHPwP3TDCIAhbKY5lIubksO2xfs9VWpdClwlDX64OcbWtkF8IRnSc/0ePjvJFBi4XQ81TfSyZXIazhy0Sr1TOJUbPXXG+jYcoP2rT2Kd6EpIo3xJyBbY0n6SP6xfzYtb18e8+Yee2ULHXc/Ec/P/M3Fm/IsmoT+ZSG8LXlYJu7F7W8QJR+zQkIyKJNVwbPMo5AdWSIOvrhzDFeUxktucaom7MfYJ4bmhnrh3DSSSfXLgz/TE3Ey+Ul/h5S3vxtkZoFJvNc78tKcVbeHtLbR95hf0vb53yBvU1t3paaeAlG3D/hNHWbnxNf6wfjUtMWpk2L0Ruh5fRefDL0DEc3u24OQdGdJ/SGK7RuEOrK7o2Z9Eb9H2N3FspH3NoK6VbFZoH1Zv9K0hKm3cCsyUBGaYBt9vij1Eb29ZG3djvJw7mOskiqRNd86qolyeNrkQDzszVML9HPiS15Os1tO0f+Mpuh5f5XVF/ID6IhF2HR2679nuUA9bDuzmN39/kec2v86hU7GnqyL7TtF2y6/o+W1cOXsO4Kx1ESddkkr42Ehvy39jh9viOtfq3kG4VV5+NNz+OpHOTXFdK9lsq5veIz9PdTNUbMU4e85FvlRfwRRBgRt739vYG1/z3Bh76zrs3VvE8dbal7AP7/N8nUSx927H3hS7U5/r9/G9Rk/rJD4HNMXbLjXk/p14ijfZ0PPbjbR99ckBswZ6tWbXm7R2d8Z5tk1rdyeb9+/m6Q2v8MvXnudvb2+hTfJ+EYue32yk7eZfEdl9Ip6LH8eZfnTPHTxIsXIo1gHXx3qT2ooAH7ks1/2g1UOkYwNGoAAzoxRJ8jTb6iFy6iV6W54Aoq8QdRPp2gRWBDNYPiRrEIacbWF1v0Xv4f/E7ou+heWPq7vZ/LZofcDvcfJyq8R4BBAtuy/JDPDLpfXi+Wt730443YkxthxiJSHp7sD625+xPVTiA8CysHdswggEMIrLIIFpUwfUcxp7/V+xXnxKPKU3uyiHPx06xUFZXnQDmA78JP5GqiH2F6AamOv1RKulg56nt0BPGP+MMgz/4P5uI5bF7qMHCfj8FObkRV0XcLq3h7buTo51tLK75SCb9+3itZ1vsnn/Lg6eOkZXSL5iP7zlCO3fftqpgRDfiEYncAWQsKfaWHfjZcDKWG9y6fwsfv1QaeyLmZkY/iIwY2UCPMagpzoMEyMwFsNMTHanuNgR7L5WbCt2vutbv3+c/1op6rHeBPznYJumXM3A6VyJdsv8x8LJ3FQnShHwXoYBBcUYGe5ZK+3eHmg7Jb5xRuXzO9cZ0kyAsdm9PdDeCpa3zjzA+hOdLFi5wUNZdD6Mh1K1KuHOps0Wb5/t9wYleeR8fhEZS+tAXjMi+vsZBtnBrPfsjrVt6O7twbIGP/VgHeuk+ydrCK3cOpglcMdwtrl6y4TnUVI3zdtWD3bv4WRdDLu3ZZBLENUotwLhZ2ROcS6fmhTHzR+cb5/WE4n/W42E4eTw+kw0jsnl4xNL+Nlu8aLJR3EeWrxVlVGJYuFkbTwAPID32rlYLR103PcsvvICMj/WSOaV010zCIrfz7bp9Fh0SPS+Rzs4/cQGQk+/OWBuA4E9OA/fCc9ymYZ7hJRKCx8CxFmoVjTXDsXDiXLxYONE8gPiIeBq4CsJbI6Kz/eBm/E6p/sukUNtdD3yIq2f/Bk9v9uE3eEpgU7ChLceofOB5zn1iZ/S89uNg735b8SpNJqUFNeaNk+p/jKAB6XB19WMY3FpQQKbM7qVZWVw+4wq/vWNPdJTvoVTqz59Vj8qgP+Hk8Hup0DcH5jI4Ta6fvgy3f/nFQILawheUU/G/AngT97zrHW0g9Bz2wg9t43Igf7FreK0EvgYEN+q+ThoB0Cp/m7HWQAbU5bP5H5vq9VVHL42vYKf7jrK2x0DJ1k5IxunZPANiW2VisNTQCPwK4QVNaOx+yL0rtpF76pdGPmZBBorCcytItBYia9yaKtF26Ew4c2H6Vu/n74NBwhvb3Gm7oZGGKes8kMMNnGOR9oBUOq9SoE7pcF3zKhkQk4aLTQdoYI+k/sba/jIy+K8ItfjVAt8JXGtUnHaDSwCfoCzPmDQk2d2ew+9L71N70tONUmzJBf/1FJ81UX4qgrxTSjGV16AkR+jPHw4QqSlE2t/K5F9J4nsayW89ySRbUex+wY1tB/NfuCjONUUk25IdgHk5ZhMqtC+xFDadyTMyXbRilTdBTC0foJT31xkemG2l7S1apA2nOj08oi0BlhIkp+qlCfXAD8GSpJ1QSMnAyMrAyM7gBH0Y3f2YnWFsLv7IJyQm3w0TyncV1gAAAKfSURBVAKfBeJKEJAMy3A+PPpK39eNUX97yqsmnEVKqf6d6mvoXjoNkP4KcbYKhkn930syXvtxtqumnD66KPW/Hkc/EyPNAzhrAlT6agVuA+YB8tzvw08f8COgHvh1itsC6JedUmedjzNcrEaWcpyV1Sr9bcBZG3AzMPRVgVLHAv4bJ7HYbTgZ/tKCdgCUclyS6gaohLkw1Q1QYhbO4s3JOGtxtqW2OYNy9sY/E6eS387UNqe/WB2A9Mi0oAYi2helYtJh4pErL9UNUJ714eQLmIkzgrMhtc3xpBtnYWMdzo1/cCVxEyhWB2AbQ1x/WA05eWk4NRD9OY5cb6a6ASpuEeCXOLkDZgL3kp7TAxawGmf6ogy4BXgnpS0aIk+R+lWT+nJ/rRng96a8yQZaSP3vVF9D++rFGU5WI4cPp0reT4HDpO5vK4zzHXwnUJnQf3EKVeJsW0j1B1lf732dxCl/qobOMiBE6n+3+hqal8UgqtCpYaMW+BzwBHCcxP5N7QL+L3AtUJSMf1wiSTMwlePURf8gTp50lToR4Bngqzh/jGpoLcRJyXlBqhuiBmUrTnrVJ1PdEJVUJk6HYAow7cx/p575bz6QG+N8CycX/yGcgjzbgR040+HbcLYsjhheUzDmAjWA5j5NjT6cAicj6o8wTRXjVJYTl6FTaeMATtEZpdwU4dzLcoAsnBt+B872PF1UrZRSSimllFJKKaWUUkoppZRSSimllFJKKaWUUkoppZRSSimllFJKKaWUUkoppZRSSimllFJKKaWUUkoppZRSSimllFJKKaWUUkoppZRSSimllFJKKaWUUkoppZRSSimllFJKKaWUUkoppZRSSimllFJKKaWUUkoppZRSSimllFJKKaWUUkoppZRSSg2h/wFjwhH87dPdiwAAAABJRU5ErkJggg==;" parent="1" vertex="1">
          <mxGeometry x="442" y="195" width="142" height="142" as="geometry" />
        </mxCell>
        <mxCell id="P1x1mqTw085ikrvF6RCM-9" value="Credit &lt;br&gt;assessment&lt;br&gt;service" style="text;html=1;align=center;verticalAlign=middle;resizable=0;points=[];autosize=1;strokeColor=none;fillColor=none;fontSize=36;" parent="1" vertex="1">
          <mxGeometry x="584" y="202.00298245614033" width="210" height="142" as="geometry" />
        </mxCell>
        <mxCell id="BlMz6nxB0Qt_j4NmP0e1-2" value="&lt;svg t=&quot;1681793186134&quot; class=&quot;icon&quot; viewBox=&quot;0 0 1024 1024&quot; version=&quot;1.1&quot; xmlns=&quot;http://www.w3.org/2000/svg&quot; p-id=&quot;10191&quot; width=&quot;200&quot; height=&quot;200&quot;&gt;&lt;path d=&quot;M74.042079 268.610309h875.918135v708.449375H74.042079z&quot; fill=&quot;#F4E9DF&quot; p-id=&quot;10192&quot;&gt;&lt;/path&gt;&lt;path d=&quot;M427.793327 631.617105h168.413346v287.206231h-168.413346z&quot; fill=&quot;#CEA68A&quot; p-id=&quot;10193&quot;&gt;&lt;/path&gt;&lt;path d=&quot;M439.256724 643.080501h145.486552v264.281731h-145.486552z&quot; fill=&quot;#2D4151&quot; p-id=&quot;10194&quot;&gt;&lt;/path&gt;&lt;path d=&quot;M717.230336 631.617105h168.413345v287.206231h-168.413345z&quot; fill=&quot;#CEA68A&quot; p-id=&quot;10195&quot;&gt;&lt;/path&gt;&lt;path d=&quot;M728.693733 643.080501h145.486551v264.281731h-145.486551z&quot; fill=&quot;#2D4151&quot; p-id=&quot;10196&quot;&gt;&lt;/path&gt;&lt;path d=&quot;M138.358612 631.617105h168.413345v287.206231H138.358612z&quot; fill=&quot;#CEA68A&quot; p-id=&quot;10197&quot;&gt;&lt;/path&gt;&lt;path d=&quot;M149.819716 643.080501h145.486551v264.281731H149.819716z&quot; fill=&quot;#2D4151&quot; p-id=&quot;10198&quot;&gt;&lt;/path&gt;&lt;path d=&quot;M968.464429 253.267699H55.535571l-5.238772-23.256939L512.001146 10.874178l461.702055 219.136582z&quot; fill=&quot;#E2C8B3&quot; p-id=&quot;10199&quot;&gt;&lt;/path&gt;&lt;path d=&quot;M74.042079 393.050065h875.918135v26.01274H74.042079z&quot; fill=&quot;#DBCEA9&quot; p-id=&quot;10200&quot;&gt;&lt;/path&gt;&lt;path d=&quot;M951.464212 253.267699H72.535788L512.001146 44.693491z&quot; fill=&quot;#CEA68A&quot; p-id=&quot;10201&quot;&gt;&lt;/path&gt;&lt;path d=&quot;M245.557419 214.292151l266.441435-126.455021 266.443727 126.455021zM249.062926 435.123023h89.414493V904.301505h-89.414493z&quot; fill=&quot;#E2C8B3&quot; p-id=&quot;10202&quot;&gt;&lt;/path&gt;&lt;path d=&quot;M268.5507 887.49158a6.114576 6.114576 0 0 1-6.114576-6.114575V458.049817a6.114576 6.114576 0 1 1 12.229152 0V881.374712a6.114576 6.114576 0 0 1-6.114576 6.116868zM293.770172 887.49158a6.114576 6.114576 0 0 1-6.114575-6.114575V458.049817a6.114576 6.114576 0 1 1 12.229151 0V881.374712a6.114576 6.114576 0 0 1-6.114576 6.116868zM318.989645 887.49158a6.114576 6.114576 0 0 1-6.114576-6.114575V458.049817a6.114576 6.114576 0 1 1 12.229152 0V881.374712a6.114576 6.114576 0 0 1-6.114576 6.116868z&quot; fill=&quot;#CEA68A&quot; p-id=&quot;10203&quot;&gt;&lt;/path&gt;&lt;path d=&quot;M394.549477 435.123023h89.414494V904.301505h-89.414494z&quot; fill=&quot;#E2C8B3&quot; p-id=&quot;10204&quot;&gt;&lt;/path&gt;&lt;path d=&quot;M414.037252 887.49158a6.114576 6.114576 0 0 1-6.114576-6.114575V458.049817a6.114576 6.114576 0 1 1 12.229151 0V881.374712a6.114576 6.114576 0 0 1-6.114575 6.116868zM439.256724 887.49158a6.114576 6.114576 0 0 1-6.114576-6.114575V458.049817a6.114576 6.114576 0 1 1 12.229152 0V881.374712a6.114576 6.114576 0 0 1-6.114576 6.116868zM464.476197 887.49158a6.114576 6.114576 0 0 1-6.114576-6.114575V458.049817a6.114576 6.114576 0 1 1 12.229151 0V881.374712a6.114576 6.114576 0 0 1-6.114575 6.116868z&quot; fill=&quot;#CEA68A&quot; p-id=&quot;10205&quot;&gt;&lt;/path&gt;&lt;path d=&quot;M551.545279 904.303798H57.227569v43.159688h909.544862v-43.159688zM540.036029 435.123023h89.414494V904.301505h-89.414494z&quot; fill=&quot;#E2C8B3&quot; p-id=&quot;10206&quot;&gt;&lt;/path&gt;&lt;path d=&quot;M559.523803 887.49158a6.114576 6.114576 0 0 1-6.114575-6.114575V458.049817a6.114576 6.114576 0 1 1 12.229151 0V881.374712a6.114576 6.114576 0 0 1-6.114576 6.116868zM584.743276 887.49158a6.114576 6.114576 0 0 1-6.114576-6.114575V458.049817a6.114576 6.114576 0 1 1 12.229152 0V881.374712a6.114576 6.114576 0 0 1-6.114576 6.116868zM609.962748 887.49158a6.114576 6.114576 0 0 1-6.114575-6.114575V458.049817a6.114576 6.114576 0 1 1 12.229151 0V881.374712a6.114576 6.114576 0 0 1-6.114576 6.116868z&quot; fill=&quot;#CEA68A&quot; p-id=&quot;10207&quot;&gt;&lt;/path&gt;&lt;path d=&quot;M103.578666 435.123023h89.414494V904.301505h-89.414494z&quot; fill=&quot;#E2C8B3&quot; p-id=&quot;10208&quot;&gt;&lt;/path&gt;&lt;path d=&quot;M123.066441 887.49158a6.114576 6.114576 0 0 1-6.114576-6.114575V458.049817a6.114576 6.114576 0 1 1 12.229151 0V881.374712a6.116868 6.116868 0 0 1-6.114575 6.116868zM148.285913 887.49158a6.114576 6.114576 0 0 1-6.114576-6.114575V458.049817a6.114576 6.114576 0 1 1 12.229152 0V881.374712a6.116868 6.116868 0 0 1-6.114576 6.116868zM173.505386 887.49158a6.114576 6.114576 0 0 1-6.114576-6.114575V458.049817a6.114576 6.114576 0 1 1 12.229152 0V881.374712a6.116868 6.116868 0 0 1-6.114576 6.116868z&quot; fill=&quot;#CEA68A&quot; p-id=&quot;10209&quot;&gt;&lt;/path&gt;&lt;path d=&quot;M28.31459 940.986667h967.37082v47.745047H28.31459z&quot; fill=&quot;#DDB69B&quot; p-id=&quot;10210&quot;&gt;&lt;/path&gt;&lt;path d=&quot;M0 977.057391h1024v36.070724H0z&quot; fill=&quot;#CEA68A&quot; p-id=&quot;10211&quot;&gt;&lt;/path&gt;&lt;path d=&quot;M685.522581 435.123023h89.414493V904.301505h-89.414493z&quot; fill=&quot;#E2C8B3&quot; p-id=&quot;10212&quot;&gt;&lt;/path&gt;&lt;path d=&quot;M755.4493 887.49158a6.114576 6.114576 0 0 0 6.114576-6.114575V458.049817a6.114576 6.114576 0 1 0-12.229152 0V881.374712a6.114576 6.114576 0 0 0 6.114576 6.116868zM730.229828 887.49158a6.114576 6.114576 0 0 0 6.114575-6.114575V458.049817a6.114576 6.114576 0 1 0-12.229151 0V881.374712a6.114576 6.114576 0 0 0 6.114576 6.116868zM705.010355 887.49158a6.114576 6.114576 0 0 0 6.114576-6.114575V458.049817a6.114576 6.114576 0 1 0-12.229152 0V881.374712a6.114576 6.114576 0 0 0 6.114576 6.116868z&quot; fill=&quot;#CEA68A&quot; p-id=&quot;10213&quot;&gt;&lt;/path&gt;&lt;path d=&quot;M831.00684 435.123023h89.414494V904.301505h-89.414494z&quot; fill=&quot;#E2C8B3&quot; p-id=&quot;10214&quot;&gt;&lt;/path&gt;&lt;path d=&quot;M900.933559 887.49158a6.114576 6.114576 0 0 0 6.114576-6.114575V458.049817a6.114576 6.114576 0 1 0-12.229151 0V881.374712a6.116868 6.116868 0 0 0 6.114575 6.116868zM875.714087 887.49158a6.114576 6.114576 0 0 0 6.114576-6.114575V458.049817a6.114576 6.114576 0 1 0-12.229152 0V881.374712a6.116868 6.116868 0 0 0 6.114576 6.116868zM850.494614 887.49158a6.114576 6.114576 0 0 0 6.114576-6.114575V458.049817a6.114576 6.114576 0 1 0-12.229152 0V881.374712a6.116868 6.116868 0 0 0 6.114576 6.116868z&quot; fill=&quot;#CEA68A&quot; p-id=&quot;10215&quot;&gt;&lt;/path&gt;&lt;path d=&quot;M74.042079 296.122461h875.918135v26.01274H74.042079z&quot; fill=&quot;#CEA68A&quot; p-id=&quot;10216&quot;&gt;&lt;/path&gt;&lt;path d=&quot;M57.227569 322.132908v112.990115h909.544862v-112.990115z&quot; fill=&quot;#DDB69B&quot; p-id=&quot;10217&quot;&gt;&lt;/path&gt;&lt;path d=&quot;M960.593661 253.267699H64.603118l-14.306319-23.256939v66.109409h923.406402v-66.109409z&quot; fill=&quot;#E2C8B3&quot; p-id=&quot;10218&quot;&gt;&lt;/path&gt;&lt;path d=&quot;M95.043021 878.463009H201.526512v25.843082H95.043021z&quot; fill=&quot;#DDB69B&quot; p-id=&quot;10219&quot;&gt;&lt;/path&gt;&lt;path d=&quot;M95.043021 435.123023H201.526512v25.843082H95.043021z&quot; fill=&quot;#CEA68A&quot; p-id=&quot;10220&quot;&gt;&lt;/path&gt;&lt;path d=&quot;M240.529573 878.463009h106.483491v25.843082h-106.483491z&quot; fill=&quot;#DDB69B&quot; p-id=&quot;10221&quot;&gt;&lt;/path&gt;&lt;path d=&quot;M240.529573 435.123023h106.483491v25.843082h-106.483491z&quot; fill=&quot;#CEA68A&quot; p-id=&quot;10222&quot;&gt;&lt;/path&gt;&lt;path d=&quot;M386.016125 878.463009h106.483491v25.843082h-106.483491z&quot; fill=&quot;#DDB69B&quot; p-id=&quot;10223&quot;&gt;&lt;/path&gt;&lt;path d=&quot;M386.016125 435.123023h106.483491v25.843082h-106.483491z&quot; fill=&quot;#CEA68A&quot; p-id=&quot;10224&quot;&gt;&lt;/path&gt;&lt;path d=&quot;M531.502677 878.463009h106.483491v25.843082h-106.483491z&quot; fill=&quot;#DDB69B&quot; p-id=&quot;10225&quot;&gt;&lt;/path&gt;&lt;path d=&quot;M531.502677 435.123023h106.483491v25.843082h-106.483491z&quot; fill=&quot;#CEA68A&quot; p-id=&quot;10226&quot;&gt;&lt;/path&gt;&lt;path d=&quot;M676.986936 878.463009h106.483491v25.843082h-106.483491z&quot; fill=&quot;#DDB69B&quot; p-id=&quot;10227&quot;&gt;&lt;/path&gt;&lt;path d=&quot;M676.986936 435.123023h106.483491v25.843082h-106.483491z&quot; fill=&quot;#CEA68A&quot; p-id=&quot;10228&quot;&gt;&lt;/path&gt;&lt;path d=&quot;M822.473488 878.463009h106.483491v25.843082h-106.483491z&quot; fill=&quot;#DDB69B&quot; p-id=&quot;10229&quot;&gt;&lt;/path&gt;&lt;path d=&quot;M822.473488 435.123023h106.483491v25.843082h-106.483491z&quot; fill=&quot;#CEA68A&quot; p-id=&quot;10230&quot;&gt;&lt;/path&gt;&lt;path d=&quot;M371.941367 345.788773c15.216513 0 23.885133 6.066429 23.885133 16.372024 0 6.4516-3.466531 11.268519-8.187158 13.290662v0.577755c5.779845 1.829558 11.749982 7.22194 11.749981 16.372023 0 11.364811-9.053791 18.297874-24.077718 18.297873h-33.709264v-9.342668h6.259015v-46.229586h-6.259015v-9.342668h30.339026v0.004585z m-9.244084 27.255372h6.547893c8.28345 0 12.327737-3.562824 12.327736-9.246375 0-5.779845-4.044286-8.668621-12.327736-8.668621h-6.547893v17.914996z m0 28.31459h8.957499c8.861206 0 12.520322-3.562824 12.520321-9.631546s-3.659116-10.113008-12.520321-10.113008h-8.957499v19.744554zM469.008824 345.788773l22.24816 55.569962h5.298382v9.342668h-29.662685v-9.342668h8.476035l-3.562824-9.053791H447.049541l-3.466531 9.053791h8.476035v9.342668h-27.640541v-9.342668h5.296089l17.816411-46.133293h-8.476036v-9.438961l29.953856 0.002292z m-11.075934 17.238656l-7.60711 20.41631h18.105288l-7.89828-20.41631-0.962925-3.950286h-0.577755l-1.059218 3.950286zM521.575375 401.358735h6.259015v-46.229586h-6.259015v-9.342668h21.09265l28.410882 44.108857 0.481463-0.096292-0.866633-6.06643v-28.603467h-7.703403v-9.342668h26.77391v9.342668h-6.355307v55.569961h-14.638758l-28.60576-44.012564-0.481463 0.192585 0.866633 6.066429v28.410882h7.609403v9.342668h-26.581324v-9.340375h-0.002293zM643.775183 345.788773v9.342669h-6.162722v46.229586h6.83677v9.342668h-27.92942v-9.342668h6.259015v-46.229586h-6.259015v-9.342669h27.255372z m37.75355 0v9.342669h-6.547892l-17.04607 21.285235 11.557396 17.04607c3.372531 4.913212 7.609403 7.89828 11.653689 7.898281h1.251803v9.342668a30.309221 30.309221 0 0 1-7.031648 0.77034c-8.088573 0-14.446172-2.696191-20.320016-11.557396l-14.34988-21.766698 15.794268-20.416309 2.503605-2.118436-0.192585-0.481463h-6.740477v-9.342668l29.467807-0.002293z&quot; fill=&quot;#9B6948&quot; p-id=&quot;10231&quot;&gt;&lt;/path&gt;&lt;/svg&gt;" style="text;whiteSpace=wrap;html=1;" parent="1" vertex="1">
          <mxGeometry x="966.76" y="61.5" width="188.48" height="186" as="geometry" />
        </mxCell>
        <mxCell id="BlMz6nxB0Qt_j4NmP0e1-3" value="" style="shape=image;verticalLabelPosition=bottom;labelBackgroundColor=default;verticalAlign=top;aspect=fixed;imageAspect=0;image=data:image/png,iVBORw0KGgoAAAANSUhEUgAAAKEAAACOCAYAAABZq2hVAAAI6ElEQVR4nO3dUUwb9x0H8K9DSLFNAig+48bSGFOlYiCjadUqitIoCVKzl0h0VaTtYc3TXlJVk1ap6qpEm/bQSXmo2rWpNu1lYaq0LmqH1qdEgqIENVWilNEUzEM2BhVgOG82pAYCKd4DhWLjM2f+d/c7+76fp+TOnH/4/8V/39//+58vm81mQSRol3QBRAwhiWMISRxDSOIYQhK3W7qAdYnJWVzt6ZMuoyKdfekn0iUU5ZoQzkzp6L70gXQZFelU10lEomHpMgyxOyZxDCGJYwhJnGs+ExbywtkXEOuIAQDu9d3BvU/uwAcfssj9ppHbvts2tZLB1HIG5cTVIdQaQ2j9NoTLo5P43+4a4YrcL/XwgXQJJWN3TOIYQhLHEJI4hpDEMYQkjiEkca4eotmsNtyAx048JV2G62W++g/+dWdQuoySlE0IHzvxFENowszlD4EyCyG7YxLn6ndCPaFjZCguXUZZ0WeS0iWUzNUh/LD7I6D7I+kyyGbsjkkcQ0jiGEIS53PLMiAzU7P4560v87b6gE3z5i6+/k7OXi2i4dhzzwIAFlZX8NWDOZurlDfW/wUyejpn26tvvIz812rN2rZTXScdqm5nXBNCMzpbn8/5f6wjhgtvngcA/HdlAZ/Oj0uU5aje3/wFsyO5v2fvyN+FqrEGu2MS5+ohGikZPY3ZYbV31XBbE4JavUUVVTaGsIDZ4XF89t7HSsc4fO40mo8zhGawOyZxDCGJYwhJHD8TmnT0UT9iddUF98XnVjAwvehwRZWDITQpVleNo4/6DfczhDvH7pjEMYQkbqM7vnzprxi6NYwssvDBl/MgN22jrX559oKr2ih/WyQa/vb77cI2Qjh0axhDt/MnEFA5cH+7tRfd66kTk8/e+9jU13H5s1R24u6VG7h75ca2j6sN1+Hkr3+m/HzlzFMhXNDTlgTMDLPPUxuus7kS9ysaQi2ibfz769mU7cVsZ3H1oXQJrlTu7WQYQi2i4e3339r4/59//KudV2WRa3MT0iW4ktva6cb9qZKC6KnuuJBYwx5TjwvVVBXdZ/Y48dSyqcd5iadDGKqpwmtPNCgfp6VhD14zGcJXbiaRXPpG+TkrCQerSRxDSOIYQhLHEJI4hpDEmT47/tFvf567wecD8i9ZtnnbtV9cMFuuZ+W0k0AbAcDg736PxYRuumbTIYy0/8D0QcvJKzfNLaX2/PeDhpNaR1PL+NPovKnj2D08U47t5OlxQqsCkVz6hmN/CoqG8A8X/+hUHaTAbe2kl9AVA0VCqCf0kg9GMq5fvS5dghJPdccBrR5BbfuVu6yY7mV2CZAAlwrxVggPnztt6nFj/UPKy4AcPPMsmo93KB3DKzhOSOI23gnXL0QxGgq6/O4HuNrTl7P9/JvnoTWGAACfzk9gcXUFRgs1WrHtHy+9u82v401vv/8WfD4fstksetP3Nu2x7rXfvC2/HTqebs+5kCk/Q5FouGj9GyHc7oGFaI2hjVm9tY/MYdfqSsnHIHWbZ1YHq+29hUShz8uRaHhH+VnH7pjEWX5iMjs8vmU521KFW5sQbmuyqCJrDMwsIbm0WnCf/sB9A9VWtEPz8R86stCn5SHM6GncvaI2bnXwzDHXhTCeWi6rqfmzI+PK7RDU6hxZ6JPdMYljCEkcQ0jiHPnGpLnlGTSEDhju/3ygx4kyTAu3NaFTcWmOoAtXVogd6oQ/uLfgvsXMfcQHex2uaI0jIWwIHUB9KFpw3+LCfSdKKElQq6/I2z/Ua1H4A4VDCEw6Wstm7I5JHENI4hhCEscQkjiGkMQ5cna8mLkPo7OvtX3khLQ+iQcGQzSp5JTD1XzHkRBKjT9RLre2A7tjEscQkriKvNDJyavl3FxDubA8hOG2Jhw8c0ztGK1qcwmtuBblp387v+Ofzehp5Roa25qUbi0RblVvB6f+CCwPYVCrR7viL0/qwm3um51uhJ8JSRxDSOIq8sQknz+wF5HvxQz3Jybitk8pawhFDaezAcDY6C1bn9/NPBHCmsA+NLc8bbg/nZy0PYT1oWjRGpz4Q3ArdsckjiEkcZZ3x9asaHWMwzyKvrxyXfm648PnTjuyshjfCUkcQ0jiGEIS58gQjT+wFzWBfYb7U0l7LzdcWpjHzWvdhvudGBpJTMSRmIiL1tBQZJwSsL8djDgSwtiTnUWvOy4WECu4YfzNDTW0PNlpeN1xOjmJ1IBMCNkdkziGkMRV5Nd2jS6YwqRag+qcynJSkSFUmQxqhaBWL15DOWF3TOIYQhLnSHc8NnobwO2C+5YWzN2ildSNfm583bFkOzgSQqlBUMrl1nZgd0ziGEISxxCSOMs/EzYf7+AtVl2gvYwmBlfkYLXqzG7A/L2R7aqhVqsrmxCpqsgQjvUPKR9DJYQZPa1cgxu+enSKLTdYVL22wYr1bLxurH8I/+7/QukYTt1j0JYbLKreXdKNN6IpN1/rc8rtsLaymP0h5NkxiavIz4T5GkJRHDraZbh/cKDH9m8TmlueKboCw81r3a6YfS2B74QkzpF3wkNHu4peZNPXc8mJMjzvyHMvosbgGpNUchKDQje65DshiWMISRxDSOIYQhLniSEaAJgeHzXc58Ss4qXF+aI1eJknQphKTorPKp4eH2UIDbA7JnEMIYljCElcRX4m7HTB6geqNXhpJlFFhlD6dlpBrd4zN0e0gmUh3F8dgH91BYmqPcrHCuzag/3VgR3VUOkCVdVF96+/BoFdxR9nhr9qazvU7F5RPm4+y0L4RO0BAMBD/zg+UTzW/uoAjuzb+m5W7L6Z+6sDOFJd+VPie7cJ1/rrNv1IHVTvEfW4P7SlHfQFXfGoW/HEhMQpvRPGh+LQZ5I52/TE1r+UdHISSyVM2NQTOkaGjNd33szs4ypFMu/1Bgq/BvntAgDTE3HDtcPTBQbzC7VDskD7qvJls9msmQdefP0dXO3ps7wAKn+nuk7i1Tde3vHPszsmcQwhiWMISZzpE5NTXSfQGNXsrIXKVCQaVvp50ycmRHZhd0ziGEISxxCSOIaQxDGEJI4hJHEMIYn7P3se4a+Cj36VAAAAAElFTkSuQmCC;" parent="1" vertex="1">
          <mxGeometry x="27" y="74" width="230.17" height="203" as="geometry" />
        </mxCell>
      </root>
    </mxGraphModel>
  </diagram>
</mxfile>
